{"glyphs":{"0":{"ha":997,"x_min":57,"x_max":938,"o":"m 497 -14 q 264 33 358 -12 q 119 160 169 79 q 61 342 69 240 q 58 433 58 379 q 58 542 57 488 q 61 636 58 597 q 122 816 68 738 q 270 940 175 894 q 497 986 365 986 q 725 940 631 986 q 873 816 819 894 q 933 636 926 738 q 937 542 936 597 q 937 433 938 488 q 933 342 936 379 q 876 160 926 240 q 731 33 825 79 q 497 -14 638 -12 m 446 932 l 432 921 l 431 903 l 450 901 l 460 918 l 446 932 m 578 921 q 543 930 556 931 q 514 911 531 929 q 499 881 497 893 q 513 847 500 868 q 534 828 522 829 q 565 832 546 828 q 589 842 583 835 q 597 868 594 850 q 598 901 599 889 q 578 921 597 913 m 444 860 q 418 872 428 871 q 393 861 408 872 q 378 840 378 850 q 383 813 378 831 q 397 797 389 799 q 419 796 406 796 q 439 799 433 796 q 449 817 444 803 q 456 842 454 832 q 444 860 458 851 m 297 856 q 282 858 288 861 q 269 849 276 856 q 254 833 260 839 q 256 815 249 826 q 270 807 263 804 q 290 813 278 810 q 308 816 301 815 q 317 828 315 817 q 313 845 318 840 q 297 856 308 850 m 663 817 q 643 803 647 817 q 644 792 640 794 q 653 783 647 789 q 671 783 663 776 q 683 792 679 789 q 685 803 688 794 q 677 815 682 813 q 663 817 672 817 m 642 739 q 632 759 638 753 q 611 765 626 765 q 590 760 596 765 q 578 740 583 756 q 581 725 574 729 q 597 714 588 721 q 610 704 606 707 q 625 707 615 701 q 641 720 636 715 q 642 739 646 725 m 326 747 q 309 759 318 760 q 285 754 300 758 q 262 744 269 749 q 254 724 254 740 q 260 701 254 707 q 283 689 267 694 q 303 690 297 685 q 317 707 308 696 q 331 727 326 719 q 326 747 336 735 m 190 738 q 176 754 182 750 q 156 754 169 758 q 127 745 138 749 q 115 722 117 742 q 126 701 115 704 q 154 692 138 699 q 185 678 174 685 q 208 688 196 672 q 211 712 221 703 q 190 738 201 721 m 731 746 q 713 751 719 750 q 700 743 706 753 q 692 725 692 732 q 701 707 693 718 q 715 699 708 699 q 733 704 722 700 q 750 712 744 708 q 756 728 756 715 q 749 741 756 739 q 731 746 742 743 m 497 258 q 554 284 538 258 q 572 349 571 310 q 576 439 575 389 q 576 540 576 489 q 572 628 575 590 q 555 690 571 664 q 497 718 539 717 q 440 690 456 717 q 422 628 425 664 q 420 540 421 590 q 420 439 419 489 q 422 349 421 389 q 442 284 425 310 q 497 258 458 258 m 876 626 q 842 672 860 663 q 785 678 824 682 q 742 655 750 672 q 728 603 735 638 q 717 542 721 564 q 747 500 713 519 q 783 492 769 488 q 810 509 797 496 q 842 540 822 522 q 879 579 867 564 q 876 626 892 594 m 238 554 q 209 565 221 568 q 179 549 197 561 q 158 527 163 538 q 160 497 154 517 q 176 478 165 479 q 206 478 186 478 q 231 480 222 478 q 244 497 239 482 q 253 530 251 518 q 238 554 256 542 m 672 511 q 656 523 661 518 q 639 519 650 528 q 628 503 628 511 q 633 482 629 496 q 644 468 639 471 q 663 465 650 465 q 681 469 675 467 q 690 485 688 472 q 688 500 693 496 q 672 511 682 504 m 324 521 l 311 515 l 310 500 l 325 500 l 340 511 l 324 521 m 364 488 l 349 478 l 353 461 l 369 457 l 375 474 l 364 488 m 761 464 q 735 467 744 471 q 717 449 726 463 q 701 424 704 433 q 708 397 697 414 q 730 381 719 382 q 758 386 740 381 q 786 398 778 392 q 794 424 794 404 q 787 451 794 444 q 761 464 779 458 m 229 374 q 207 385 215 383 q 185 375 199 386 q 177 357 174 365 q 186 335 181 349 q 196 322 190 325 q 213 321 201 319 q 233 339 231 322 q 239 359 238 351 q 229 374 240 367 m 818 313 q 785 317 803 328 q 778 306 775 313 q 783 289 782 299 q 786 273 786 279 q 796 265 786 267 q 813 267 807 264 q 824 281 818 269 q 828 298 829 292 q 818 313 828 304 m 685 300 l 674 317 l 657 307 l 658 288 l 679 281 l 685 300 m 407 251 l 396 264 l 378 253 l 390 236 l 406 238 l 407 251 m 203 261 q 180 260 186 267 q 164 239 174 253 q 157 221 157 228 q 165 204 157 214 q 180 189 174 193 q 199 189 186 185 q 219 200 214 194 q 225 221 225 206 q 222 248 225 239 q 203 261 219 257 m 660 240 q 638 251 649 257 q 607 239 626 244 q 581 231 590 235 q 571 211 571 228 q 572 176 569 189 q 596 156 575 164 q 632 151 619 147 q 660 175 644 156 q 674 207 675 194 q 660 240 674 219 m 329 215 l 317 224 l 310 210 l 319 199 l 333 201 l 329 215 m 479 169 q 441 194 456 185 q 404 185 426 203 q 377 149 379 165 q 386 101 375 132 q 411 65 397 74 q 456 57 425 56 q 494 70 485 58 q 511 110 504 82 q 509 145 518 135 q 479 169 500 156 m 713 189 q 699 188 704 189 q 692 181 694 188 q 692 169 689 172 q 700 160 694 165 q 711 151 707 154 q 722 153 715 149 q 733 178 736 163 q 726 188 731 186 q 713 189 721 189 m 794 178 l 782 172 l 783 163 l 793 157 l 801 167 l 794 178 m 354 114 l 344 114 l 339 104 l 349 97 l 357 104 l 354 114 z "},"1":{"ha":774,"x_min":11,"x_max":696,"o":"m 386 0 q 360 11 371 0 q 349 38 349 22 l 349 599 l 193 479 q 165 473 179 469 q 140 490 151 476 l 18 649 q 14 678 11 663 q 31 703 17 694 l 365 963 q 396 972 379 972 l 658 972 q 685 961 674 972 q 696 935 696 950 l 696 38 q 685 11 696 22 q 658 0 674 0 l 386 0 m 576 865 q 549 878 560 876 q 524 867 539 879 q 511 844 510 854 q 519 817 513 835 q 533 803 525 803 q 556 804 542 803 q 581 806 572 806 q 594 821 590 806 q 595 847 599 839 q 576 865 592 856 m 406 858 l 394 868 l 388 856 l 393 847 l 403 849 l 406 858 m 478 790 q 467 799 472 799 q 453 796 463 800 q 444 789 444 793 q 443 776 443 785 q 444 761 443 767 q 453 754 444 756 q 467 754 463 751 q 476 765 471 757 q 483 778 481 774 q 478 790 485 783 m 357 722 q 358 747 357 738 q 344 763 360 757 q 319 763 328 767 q 300 744 311 760 q 297 726 292 733 q 311 707 303 719 q 326 688 321 696 q 344 683 331 679 q 358 698 358 689 q 357 722 357 707 m 215 714 q 200 706 206 715 q 204 692 197 700 q 212 681 210 686 q 221 679 214 676 q 228 688 228 683 q 226 700 228 692 q 215 714 225 711 m 151 679 q 138 678 142 681 q 132 667 135 675 q 126 654 126 658 q 131 643 125 650 q 157 640 142 632 q 165 648 164 643 q 165 661 167 653 q 162 674 164 669 q 151 679 160 678 m 71 678 l 57 675 l 60 663 l 69 657 l 76 667 l 71 678 m 288 676 q 278 672 279 676 q 275 660 278 667 q 278 644 272 649 q 294 644 286 639 q 299 658 301 649 q 295 672 296 667 q 288 676 294 676 m 564 665 q 528 663 538 675 q 501 628 518 650 q 473 591 485 604 q 478 554 461 578 q 514 523 497 528 q 561 528 531 518 q 596 553 590 538 q 601 597 601 568 q 597 641 601 626 q 564 665 592 656 m 247 606 q 231 612 238 611 q 218 606 225 613 q 212 593 210 599 q 218 578 214 588 q 226 563 224 568 q 240 560 229 558 q 251 567 250 561 q 253 583 251 574 q 254 597 254 592 q 247 606 254 601 m 428 526 q 417 527 421 528 q 410 519 413 526 q 415 500 406 510 q 435 499 424 492 q 448 506 443 503 q 451 517 453 508 q 443 526 449 526 q 428 526 438 525 m 542 432 q 500 474 517 461 q 447 472 483 486 q 422 451 425 464 q 424 422 419 439 q 429 381 428 404 q 431 333 431 350 q 461 307 432 315 q 507 309 493 299 q 538 347 521 319 q 558 390 556 374 q 542 432 561 407 m 593 467 l 581 468 l 569 454 l 585 447 l 600 453 l 593 467 m 606 289 q 578 284 586 289 q 565 263 571 279 q 563 237 558 246 q 581 218 567 228 q 609 197 599 204 q 638 201 619 189 q 655 228 656 215 q 649 263 654 240 q 633 285 643 281 q 606 289 624 289 m 451 249 l 433 247 l 425 232 l 440 224 l 454 231 l 451 249 m 543 176 q 536 190 543 188 q 525 192 529 192 q 517 186 521 193 q 516 178 513 181 q 524 169 519 175 q 536 165 529 163 q 543 176 543 167 m 457 189 q 442 184 444 192 q 432 165 439 176 q 419 149 425 154 q 422 133 414 143 q 439 124 432 122 q 458 132 446 126 q 481 141 472 138 q 488 158 489 144 q 479 181 486 175 q 457 189 472 186 m 638 132 q 619 154 636 150 q 598 160 606 158 q 583 150 590 161 q 580 131 576 138 q 592 114 583 125 q 605 105 599 106 q 621 108 611 104 q 638 132 639 115 m 446 72 q 432 78 442 81 q 421 67 421 75 q 429 50 419 53 q 441 47 436 47 q 450 51 446 46 q 453 62 456 58 q 446 72 451 65 z "},"2":{"ha":978,"x_min":49,"x_max":924,"o":"m 86 0 q 60 11 71 0 q 49 38 49 22 l 49 182 q 53 215 49 190 q 83 257 57 239 l 99 268 q 342 446 244 374 q 490 570 440 518 q 539 663 539 622 q 532 700 539 682 q 489 718 525 718 q 446 705 461 718 q 424 675 431 692 q 413 647 417 658 q 391 622 406 628 q 357 615 376 615 l 96 615 q 74 624 83 615 q 65 646 65 633 q 124 828 68 751 q 274 949 179 906 q 488 992 368 992 q 707 955 614 992 q 851 849 800 918 q 903 681 903 779 q 865 539 903 604 q 760 415 828 474 q 603 293 693 356 l 593 286 l 886 286 q 913 275 901 286 q 924 249 924 264 l 924 38 q 913 11 924 22 q 886 0 901 0 l 86 0 m 450 924 q 422 926 438 935 q 403 917 411 919 q 397 900 396 914 q 408 881 401 885 q 429 874 414 876 q 446 878 442 872 q 456 896 450 885 q 450 924 463 911 m 604 860 q 594 892 599 881 q 567 904 589 903 q 535 897 544 906 q 518 867 526 888 q 519 840 511 849 q 542 821 526 832 q 563 807 554 810 q 586 814 572 804 q 605 833 601 824 q 604 860 608 842 m 369 871 l 356 876 l 343 864 l 356 849 l 375 854 l 369 871 m 271 789 q 254 823 261 811 q 224 833 247 835 q 196 819 200 832 q 186 783 192 806 q 177 747 181 760 q 193 721 174 733 q 227 710 214 707 q 261 731 240 714 q 278 756 278 744 q 271 789 279 768 m 651 789 l 636 789 l 631 776 l 643 771 l 654 775 l 651 789 m 772 783 l 757 783 l 742 774 l 756 760 l 772 765 l 772 783 m 503 778 l 494 774 l 497 765 l 507 763 l 510 772 l 503 778 m 835 769 l 821 764 l 814 751 l 828 749 l 842 754 l 835 769 m 606 717 l 593 728 l 585 715 l 585 701 l 599 706 l 606 717 m 781 703 q 756 719 768 719 q 725 711 744 718 q 701 698 707 706 q 694 671 694 690 q 701 644 694 653 q 726 631 708 636 q 764 619 750 624 q 792 636 778 615 q 801 669 806 657 q 781 703 796 682 m 596 588 l 588 581 l 586 565 l 601 569 l 604 581 l 596 588 m 794 574 q 781 585 788 583 q 763 582 775 586 q 755 573 754 579 q 756 557 756 567 q 753 540 756 547 q 761 529 751 533 q 776 532 772 526 q 785 546 779 538 q 797 560 792 554 q 794 574 801 565 m 624 531 l 610 536 l 601 521 l 614 507 l 628 518 l 624 531 m 524 532 l 510 529 l 514 514 l 529 513 l 524 532 m 696 479 q 679 493 688 493 q 654 489 671 493 q 638 481 642 486 q 632 461 633 475 q 633 442 631 449 q 649 431 636 436 q 666 428 660 425 q 681 440 672 432 q 697 458 690 451 q 696 479 704 465 m 553 390 q 542 401 549 400 q 524 400 535 401 q 500 399 510 399 q 489 385 490 400 q 490 363 485 369 q 510 347 496 356 q 527 345 521 340 q 543 360 533 350 q 556 374 553 368 q 553 390 558 379 m 456 344 q 418 342 429 354 q 390 307 407 331 q 368 272 375 285 q 378 236 361 258 q 408 214 393 213 q 450 224 424 215 q 473 242 471 231 q 475 276 475 254 q 478 320 475 303 q 456 344 481 338 m 572 260 l 564 267 l 554 260 l 558 244 l 571 251 l 572 260 m 843 226 q 831 228 835 231 q 818 219 826 225 q 810 210 813 214 q 810 197 807 206 q 818 183 814 188 q 833 179 822 178 q 850 184 844 181 q 857 200 856 188 q 856 215 860 210 q 843 226 853 219 m 333 197 q 305 189 311 200 q 289 158 299 178 q 279 128 281 139 q 292 104 278 118 q 318 92 307 90 q 347 103 329 93 q 365 121 363 111 q 364 147 368 131 q 358 182 360 169 q 333 197 356 194 m 757 181 q 724 196 736 190 q 696 185 713 201 q 675 151 678 165 q 685 114 672 138 q 709 99 696 94 q 746 106 722 103 q 778 113 765 110 q 793 136 790 115 q 786 164 796 157 q 757 181 776 171 m 564 157 q 549 169 556 167 q 532 168 543 172 q 522 157 521 164 q 524 140 524 150 q 538 124 524 128 q 555 117 549 121 q 568 122 561 113 q 574 140 575 133 q 564 157 572 147 m 167 126 q 149 142 157 139 q 126 139 142 144 q 111 126 113 135 q 110 103 110 118 q 115 88 110 92 q 132 81 121 83 q 150 77 143 76 q 163 88 157 78 q 174 108 171 100 q 167 126 176 115 z "},"3":{"ha":985,"x_min":32,"x_max":938,"o":"m 483 -14 q 272 15 358 -14 q 134 90 186 44 q 58 184 82 135 q 32 275 33 233 q 41 297 32 288 q 63 306 50 306 l 342 306 q 370 299 361 306 q 389 283 379 293 q 421 264 400 272 q 485 256 442 256 q 555 277 533 256 q 576 329 576 299 q 485 390 576 390 l 311 390 q 285 401 296 390 q 274 428 274 413 l 274 540 q 283 576 274 561 q 301 596 292 590 l 494 701 l 129 701 q 103 713 114 701 q 92 739 92 724 l 92 935 q 103 961 92 950 q 129 972 114 972 l 840 972 q 867 961 856 972 q 878 935 878 950 l 878 758 q 869 724 878 739 q 850 703 861 710 l 688 590 q 814 540 757 574 q 904 449 871 507 q 938 304 938 392 q 878 137 938 208 q 717 26 819 65 q 483 -14 615 -14 m 549 925 q 528 924 535 931 q 513 907 522 918 q 508 891 506 897 q 517 875 510 885 q 543 865 528 860 q 561 872 556 868 q 567 889 567 876 q 565 913 567 904 q 549 925 564 921 m 453 883 l 440 888 l 429 881 l 436 868 l 446 872 l 453 883 m 749 858 q 710 876 724 872 q 675 861 696 881 q 642 824 651 840 q 647 778 633 808 q 678 749 660 750 q 728 750 696 747 q 760 764 753 753 q 772 800 767 775 q 773 835 778 824 q 749 858 768 846 m 376 865 l 360 860 l 365 842 l 383 839 l 392 857 l 376 865 m 326 843 q 302 850 313 858 q 274 832 292 842 q 251 819 258 825 q 246 797 244 814 q 257 776 249 781 q 282 769 265 772 q 307 769 299 767 q 322 786 315 772 q 337 817 332 806 q 326 843 342 828 m 644 674 q 631 688 636 682 q 614 689 625 694 q 601 674 601 682 q 601 653 600 667 q 609 635 604 640 q 626 628 614 631 q 641 633 638 626 q 649 649 644 639 q 644 674 656 663 m 540 647 l 524 657 l 514 644 l 518 633 l 533 629 l 540 647 m 590 615 q 576 615 581 621 q 564 603 572 610 q 552 592 557 596 q 551 579 547 589 q 578 564 558 563 q 595 569 590 565 q 603 585 600 572 q 602 603 604 597 q 590 615 600 610 m 467 581 l 454 588 l 444 575 l 454 561 l 472 565 l 467 581 m 638 517 l 625 532 l 610 518 l 619 504 l 635 500 l 638 517 m 403 497 q 386 515 394 511 q 361 514 378 518 q 333 503 343 508 q 322 478 324 499 q 328 448 321 457 q 356 432 336 439 q 384 430 375 425 q 406 451 393 435 q 414 474 415 464 q 403 497 413 483 m 714 483 q 690 485 701 493 q 680 474 682 479 q 681 461 678 469 q 703 443 686 443 q 726 460 721 443 q 726 474 729 469 q 714 483 722 478 m 506 485 l 489 488 l 486 468 l 503 456 l 518 472 l 506 485 m 632 426 q 622 440 626 436 q 608 442 618 443 q 592 437 597 440 q 585 422 588 433 q 588 408 583 411 q 601 399 592 404 q 612 397 608 394 q 622 406 615 400 q 631 415 628 411 q 632 426 635 418 m 794 418 q 786 424 792 425 q 772 424 781 424 q 760 423 765 424 q 754 415 756 422 q 752 401 751 406 q 761 390 753 396 q 772 388 768 385 q 785 397 776 392 q 794 406 790 403 q 794 418 797 410 m 742 375 q 738 383 742 382 q 728 386 735 385 q 717 389 721 388 q 708 383 713 390 q 711 361 701 372 q 732 356 721 351 q 742 375 743 360 m 796 363 l 779 363 l 776 343 l 793 333 l 807 350 l 796 363 m 738 314 l 726 310 l 726 299 l 739 292 l 742 304 l 738 314 m 878 251 q 869 272 876 267 q 847 281 863 276 q 824 283 832 285 q 808 268 817 281 q 795 243 799 253 q 804 219 792 233 q 827 203 817 204 q 856 208 838 201 q 876 224 872 215 q 878 251 879 233 m 243 244 q 235 254 239 251 q 225 254 232 257 q 217 248 218 253 q 217 236 217 243 q 217 224 217 228 q 224 217 217 219 q 249 224 240 211 q 251 234 254 231 q 243 244 249 238 m 710 215 q 686 222 700 228 q 667 216 674 218 q 660 201 660 214 q 668 190 660 189 q 689 186 676 190 q 704 181 699 183 q 715 188 710 179 q 718 202 721 197 q 710 215 715 207 m 428 213 l 413 221 l 401 206 l 415 196 l 432 196 l 428 213 m 526 182 q 523 197 525 192 q 513 203 521 201 q 499 200 503 204 q 492 188 496 196 q 494 165 485 175 q 506 157 501 158 q 518 160 510 156 q 527 169 526 164 q 526 182 528 174 m 222 178 q 199 178 206 182 q 182 160 192 174 q 173 138 174 146 q 182 117 172 129 q 198 110 190 106 q 219 118 206 114 q 238 126 232 122 q 244 142 244 129 q 241 165 244 157 q 222 178 238 174 m 413 140 q 409 151 413 149 q 397 156 406 153 q 382 161 388 158 q 371 156 376 164 q 366 142 364 147 q 375 126 368 136 q 400 119 385 114 q 410 127 408 122 q 413 140 413 132 m 306 139 q 290 148 296 143 q 276 144 285 153 q 267 128 268 135 q 272 110 267 122 q 284 102 278 100 q 301 106 290 104 q 319 109 313 108 q 326 119 325 110 q 322 133 328 131 q 306 139 315 135 m 585 100 q 569 107 575 107 q 553 101 564 107 q 540 90 543 96 q 539 74 538 85 q 546 58 542 63 q 563 51 550 53 q 576 56 572 50 q 585 71 579 61 q 590 86 589 81 q 585 100 592 92 m 422 74 q 410 86 415 83 q 393 85 404 89 q 375 75 381 79 q 369 57 369 71 q 378 42 371 44 q 397 38 385 40 q 421 47 411 33 q 428 61 426 56 q 422 74 429 67 z "},"4":{"ha":1021,"x_min":36,"x_max":982,"o":"m 526 0 q 500 11 511 0 q 489 38 489 22 l 489 156 l 74 156 q 47 167 58 156 q 36 193 36 178 l 36 392 q 42 419 36 410 q 51 435 47 429 l 444 949 q 496 972 464 972 l 785 972 q 811 961 800 972 q 822 935 822 950 l 822 438 l 943 438 q 972 426 961 438 q 982 400 982 415 l 982 193 q 971 167 982 178 q 944 156 960 156 l 822 156 l 822 38 q 811 11 822 22 q 785 0 800 0 l 526 0 m 501 921 q 488 928 493 926 q 475 925 482 931 q 467 913 468 918 q 471 897 467 907 q 480 890 475 889 q 493 890 485 890 q 508 901 506 892 q 501 921 511 915 m 739 721 q 720 784 733 765 q 664 811 707 803 q 601 810 621 821 q 558 760 581 799 q 537 698 536 721 q 567 642 538 675 q 598 624 583 624 q 628 635 613 625 q 667 657 644 646 q 706 672 689 667 q 732 688 724 678 q 739 721 740 697 m 469 732 l 454 731 l 460 715 l 474 708 l 479 724 l 469 732 m 335 731 l 322 728 l 328 717 l 338 714 l 346 724 l 335 731 m 403 579 q 394 614 400 603 q 365 629 388 625 q 335 624 343 633 q 315 596 326 614 q 303 565 306 576 q 315 539 300 554 q 338 529 328 525 q 367 542 349 533 q 394 555 385 550 q 403 579 404 560 m 353 422 l 499 422 l 499 622 l 353 422 m 778 601 l 765 592 l 767 576 l 781 579 l 785 588 l 778 601 m 706 561 l 696 558 l 700 547 l 711 544 l 717 557 l 706 561 m 717 428 l 704 429 l 697 417 l 708 406 l 725 413 l 717 428 m 251 406 l 233 407 l 219 394 l 233 382 l 246 389 l 251 406 m 922 360 q 913 376 917 369 q 896 378 908 382 q 884 367 885 375 q 883 349 883 360 q 896 326 882 332 q 908 327 904 324 q 917 336 911 331 q 925 347 922 343 q 922 360 928 351 m 588 347 q 572 366 581 363 q 547 368 564 369 q 521 362 529 367 q 510 339 513 357 q 511 315 506 322 q 533 299 517 307 q 559 286 549 289 q 583 296 569 283 q 597 319 597 308 q 588 347 596 329 m 210 322 q 178 359 192 349 q 136 360 165 369 q 91 335 103 349 q 79 286 79 321 q 89 233 79 250 q 133 204 99 215 q 181 205 167 193 q 217 244 196 217 q 231 283 235 268 q 210 322 228 299 m 835 329 q 833 340 833 336 q 825 347 832 344 q 816 344 818 349 q 810 335 814 340 q 804 324 807 328 q 806 315 801 321 q 828 313 814 307 q 835 329 836 317 m 753 343 l 742 342 l 743 332 l 754 324 l 763 336 l 753 343 m 447 289 q 443 308 444 300 q 429 315 442 315 q 408 313 415 317 q 396 296 400 310 q 395 277 390 283 q 410 261 400 271 q 428 251 421 253 q 446 257 435 250 q 453 269 456 263 q 447 289 451 276 m 342 292 q 321 301 336 303 q 304 285 307 299 q 302 269 303 275 q 311 257 301 263 q 329 251 322 251 q 344 260 336 251 q 350 274 353 268 q 342 292 347 281 m 768 243 q 760 258 767 256 q 740 261 753 260 q 715 246 724 263 q 710 228 711 235 q 718 214 710 222 q 733 208 726 207 q 750 214 740 208 q 766 226 761 221 q 768 243 771 231 m 692 168 q 683 181 689 179 q 668 182 678 182 q 651 181 657 182 q 642 169 646 181 q 642 156 639 160 q 654 144 646 151 q 665 140 661 139 q 676 146 669 142 q 690 155 685 151 q 692 168 694 158 m 760 104 q 736 119 753 121 q 724 113 726 118 q 719 99 722 108 q 729 78 717 85 q 743 72 738 72 q 756 78 749 71 q 760 104 768 89 m 556 108 l 539 111 l 533 94 l 547 88 l 558 94 l 556 108 z "},"5":{"ha":958,"x_min":32,"x_max":922,"o":"m 478 -17 q 232 26 331 -17 q 84 140 133 69 q 32 294 35 211 q 41 316 32 307 q 63 325 50 325 l 343 325 q 377 317 365 325 q 393 303 389 308 q 428 267 413 279 q 479 254 444 254 q 538 276 513 254 q 564 340 564 297 q 542 399 564 372 q 479 425 519 425 q 435 417 450 425 q 412 400 421 408 q 390 392 403 392 l 114 392 q 92 401 101 392 q 83 422 83 410 l 139 925 q 158 960 142 949 q 193 972 174 972 l 814 972 q 840 961 829 972 q 851 935 851 950 l 851 739 q 840 713 851 724 q 814 701 829 701 l 408 701 l 397 603 q 476 640 436 629 q 583 650 515 650 q 708 626 647 650 q 817 560 768 603 q 894 458 865 517 q 922 331 922 400 q 872 160 922 239 q 724 32 822 81 q 478 -17 625 -17 m 274 931 l 261 939 l 247 936 l 254 924 l 265 919 l 274 931 m 618 922 q 602 931 610 933 q 582 924 594 928 q 565 916 571 919 q 560 900 560 913 q 565 882 560 888 q 582 872 569 876 q 600 872 594 868 q 614 886 606 875 q 624 904 621 897 q 618 922 626 911 m 328 921 l 315 925 l 307 919 l 310 910 l 319 911 l 328 921 m 206 908 q 193 919 197 915 q 181 917 189 922 q 172 906 172 911 q 175 890 172 900 q 181 881 176 882 q 193 879 185 879 q 208 878 203 879 q 218 888 214 878 q 217 899 221 896 q 206 908 213 903 m 493 861 q 469 892 489 892 q 419 897 450 892 q 376 904 393 901 q 347 882 360 907 q 335 836 332 853 q 361 797 338 819 q 395 785 381 776 q 433 807 410 794 q 480 826 461 821 q 493 861 499 832 m 739 833 q 726 844 738 842 q 711 838 717 846 q 714 821 707 828 q 722 813 719 815 q 732 813 725 810 q 740 821 739 817 q 739 833 740 825 m 614 831 q 591 840 600 838 q 572 832 582 843 q 567 813 563 821 q 581 792 572 806 q 592 772 588 779 q 611 768 597 764 q 628 779 626 771 q 631 803 629 788 q 614 831 632 824 m 276 781 q 251 802 264 801 q 214 797 238 803 q 185 785 193 793 q 175 754 178 776 q 181 725 174 733 q 207 710 189 717 q 235 703 225 701 q 258 721 246 706 q 281 750 274 739 q 276 781 289 761 m 757 779 l 747 779 l 736 768 l 751 764 l 765 767 l 757 779 m 289 674 l 279 683 l 268 674 l 274 661 l 285 664 l 289 674 m 239 661 q 219 669 226 669 q 200 661 211 669 q 193 646 189 653 q 201 626 197 639 q 208 613 204 617 q 222 608 211 608 q 244 609 236 608 q 257 624 253 610 q 257 645 261 638 q 239 661 253 653 m 332 593 q 316 603 322 601 q 300 599 310 606 q 289 587 289 593 q 290 568 289 581 q 311 551 294 553 q 328 551 322 550 q 338 563 333 553 q 332 593 346 581 m 667 561 q 656 580 664 576 q 631 586 647 583 q 609 585 617 588 q 596 569 601 582 q 582 542 586 553 q 592 518 578 532 q 615 513 606 506 q 639 529 624 521 q 660 542 653 538 q 667 561 668 546 m 485 551 l 475 558 l 464 551 l 468 539 l 481 542 l 485 551 m 268 522 l 258 524 l 258 513 l 267 508 l 275 515 l 268 522 m 174 503 q 156 521 171 518 q 142 519 146 522 q 135 507 139 515 q 134 498 131 501 q 143 490 138 494 q 151 481 149 485 q 161 481 154 476 q 174 503 175 488 m 822 497 l 803 497 l 799 483 l 806 472 l 818 479 l 822 497 m 799 413 q 755 423 771 429 q 715 396 739 417 q 698 363 696 378 q 711 325 700 349 q 725 285 721 303 q 738 259 729 268 q 769 251 746 250 q 821 273 808 256 q 842 329 833 290 q 839 380 849 364 q 799 413 829 396 m 124 247 q 114 253 118 254 q 101 250 110 251 q 92 238 92 247 q 92 225 92 229 q 99 218 92 221 q 109 218 106 215 q 118 226 113 221 q 125 237 122 233 q 124 247 128 240 m 219 244 q 189 242 199 247 q 169 219 179 238 q 165 190 161 200 q 182 165 168 179 q 207 153 197 153 q 233 164 217 154 q 251 181 249 172 q 250 206 253 189 q 242 233 246 224 q 219 244 238 242 m 383 225 q 362 222 368 228 q 349 203 356 217 q 336 178 340 188 q 344 157 332 169 q 370 133 360 140 q 400 136 381 126 q 424 158 421 146 q 424 193 426 171 q 412 217 421 213 q 383 225 403 221 m 674 153 q 663 173 665 164 q 647 178 661 182 q 626 167 632 174 q 619 143 621 160 q 626 126 618 129 q 647 117 633 122 q 664 115 658 113 q 676 126 669 117 q 681 139 682 133 q 674 153 679 144 m 583 163 l 568 156 l 558 143 l 574 138 l 588 144 l 583 163 m 483 100 q 466 110 472 107 q 451 107 460 114 q 440 92 440 99 q 443 71 439 85 q 453 60 447 61 q 472 58 460 58 q 490 60 483 58 q 499 75 496 63 q 497 90 501 86 q 483 100 493 94 z "},"6":{"ha":961,"x_min":28,"x_max":932,"o":"m 486 -14 q 252 28 356 -14 q 88 151 149 71 q 28 346 28 232 q 43 436 28 390 q 81 524 58 482 q 126 598 104 565 q 163 649 149 631 l 389 944 q 408 962 394 951 q 443 972 421 972 l 722 972 q 744 963 735 972 q 753 942 753 954 q 747 924 753 932 l 572 692 l 582 692 q 692 664 632 688 q 808 599 753 640 q 897 496 863 557 q 932 353 932 435 q 875 165 932 249 q 717 34 818 82 q 486 -14 617 -14 m 578 914 l 563 913 l 560 901 l 567 889 l 576 899 l 578 914 m 508 792 l 496 783 l 499 772 l 510 768 l 519 779 l 508 792 m 438 758 q 402 767 415 771 q 371 746 389 764 q 357 719 354 731 q 369 688 360 707 q 385 653 379 665 q 415 644 392 642 q 451 658 442 649 q 465 694 461 668 q 466 733 471 721 q 438 758 461 746 m 289 642 q 265 637 272 642 q 253 617 258 632 q 250 594 247 601 q 265 576 253 586 q 284 569 276 567 q 304 581 292 572 q 313 592 314 586 q 308 610 313 599 q 304 633 306 624 q 289 642 303 642 m 215 639 q 206 635 208 640 q 201 624 204 631 q 201 607 196 613 q 218 607 208 601 q 228 612 225 610 q 231 621 232 614 q 226 633 229 629 q 215 639 224 638 m 457 546 q 444 565 449 558 q 425 567 439 571 q 397 555 406 560 q 388 531 388 550 q 396 503 388 510 q 422 490 404 496 q 450 487 440 483 q 471 506 460 490 q 474 526 481 518 q 457 546 467 533 m 683 557 q 657 550 663 561 q 642 521 651 539 q 626 494 631 504 q 633 469 621 485 q 660 449 649 453 q 692 453 671 444 q 708 474 711 461 q 703 506 704 486 q 702 540 701 526 q 683 557 703 553 m 801 507 l 789 510 l 783 496 l 793 490 l 806 493 l 801 507 m 269 468 q 235 483 250 485 q 206 472 221 482 q 169 447 190 461 q 135 417 143 431 q 136 374 128 403 q 155 329 143 342 q 199 314 167 317 q 243 324 231 313 q 267 365 256 335 q 290 422 282 400 q 269 468 299 443 m 482 257 q 550 281 522 257 q 578 347 578 304 q 550 415 578 392 q 482 438 522 438 q 414 415 442 438 q 386 347 386 392 q 415 281 386 304 q 482 257 443 257 m 825 378 q 777 422 800 415 q 711 417 754 429 q 666 384 672 406 q 658 322 660 363 q 660 256 657 279 q 701 218 663 232 q 760 219 742 203 q 804 268 778 235 q 840 322 831 301 q 825 378 849 343 m 333 321 q 317 321 322 324 q 307 308 313 318 q 295 292 300 299 q 299 276 290 286 q 314 265 307 265 q 335 269 321 265 q 344 280 344 274 q 344 296 344 286 q 344 313 344 307 q 333 321 343 318 m 200 240 l 190 247 l 185 238 l 188 229 l 196 231 l 200 240 m 632 200 l 618 207 l 611 196 l 615 186 l 628 186 l 632 200 m 421 175 q 394 201 408 199 q 351 197 379 203 q 317 184 326 193 q 303 150 307 175 q 311 119 300 126 q 343 101 322 111 q 378 87 365 92 q 408 100 392 82 q 431 135 428 121 q 421 175 435 150 m 222 171 q 212 188 217 183 q 193 192 207 192 q 175 187 181 192 q 165 169 169 182 q 167 154 161 158 q 182 143 172 150 q 193 140 189 138 q 204 149 197 143 q 219 158 214 154 q 222 171 225 161 m 494 172 q 474 171 481 172 q 463 158 468 169 q 461 139 458 146 q 475 124 464 132 q 493 114 486 115 q 511 119 500 113 q 524 135 524 128 q 521 156 525 142 q 512 169 518 167 q 494 172 506 172 m 686 125 q 677 152 681 142 q 657 161 674 163 q 628 152 636 160 q 617 125 621 144 q 622 103 613 108 q 644 89 631 99 q 660 85 654 83 q 676 93 667 86 q 689 108 686 101 q 686 125 692 114 m 449 94 q 425 81 432 96 q 426 69 422 72 q 438 60 431 65 q 456 58 446 51 q 467 65 463 63 q 469 76 471 68 q 449 94 465 93 m 578 88 q 570 91 574 92 q 561 88 567 90 q 549 85 554 85 q 544 76 544 85 q 549 68 544 69 q 561 64 554 67 q 576 71 571 61 q 578 88 583 81 z "},"7":{"ha":868,"x_min":39,"x_max":832,"o":"m 186 0 q 165 9 174 0 q 156 31 156 18 q 158 43 156 38 l 458 688 l 76 688 q 50 699 61 688 q 39 725 39 710 l 39 935 q 50 961 39 950 q 76 972 61 972 l 794 972 q 822 961 811 972 q 832 935 832 950 l 832 751 q 826 711 832 728 q 814 681 821 694 l 511 32 q 494 13 507 25 q 454 0 481 0 l 186 0 m 390 935 l 375 929 l 371 918 l 381 911 l 390 918 l 390 935 m 182 919 q 170 928 175 926 q 157 926 165 931 q 147 916 147 921 q 147 900 146 911 q 165 883 150 886 q 188 894 182 881 q 182 919 194 907 m 461 897 q 442 902 449 901 q 426 893 435 903 q 422 875 419 882 q 433 858 425 868 q 447 842 442 847 q 465 842 453 838 q 478 853 478 846 q 479 874 479 861 q 461 897 479 892 m 246 868 q 228 876 235 874 q 213 869 221 879 q 204 854 203 861 q 211 835 206 847 q 222 828 215 826 q 238 831 228 829 q 253 833 247 832 q 260 843 258 833 q 246 868 263 860 m 751 853 q 732 844 739 856 q 730 835 728 839 q 736 826 732 832 q 746 813 743 818 q 757 810 749 807 q 765 820 767 814 q 763 836 763 826 q 751 853 761 850 m 386 819 q 374 843 383 839 q 346 851 365 847 q 321 851 329 854 q 304 833 313 849 q 296 809 294 818 q 310 786 297 800 q 331 770 322 774 q 357 775 340 767 q 381 792 375 783 q 386 819 388 800 m 589 825 q 565 839 583 840 q 553 835 557 839 q 547 822 550 831 q 541 803 544 810 q 549 789 538 796 q 567 784 560 782 q 585 794 574 786 q 593 808 593 803 q 589 825 593 814 m 153 810 q 135 808 140 814 q 124 790 129 801 q 110 769 115 776 q 115 750 106 761 q 135 739 126 738 q 158 747 144 740 q 176 759 172 753 q 178 779 179 765 q 172 801 176 794 q 153 810 168 807 m 744 739 l 731 747 l 718 736 l 726 722 l 740 725 l 744 739 m 600 718 l 594 728 l 582 722 l 588 711 l 599 707 l 600 718 m 665 671 q 647 674 654 679 q 629 660 640 668 q 607 646 617 650 q 603 626 597 642 q 616 602 608 608 q 643 596 624 596 q 665 605 661 596 q 675 631 669 614 q 678 653 679 644 q 665 671 678 661 m 513 614 q 488 632 506 632 q 473 627 476 632 q 467 613 469 622 q 467 600 464 604 q 478 590 469 596 q 489 585 485 586 q 500 589 493 583 q 512 600 508 596 q 513 614 515 604 m 626 518 q 597 526 608 532 q 565 506 585 519 q 541 484 547 493 q 542 454 535 475 q 556 415 549 429 q 589 401 563 401 q 622 415 615 401 q 638 453 629 428 q 647 490 646 476 q 626 518 647 503 m 492 422 q 478 444 486 439 q 454 449 471 449 q 431 444 438 449 q 418 424 424 439 q 418 403 413 410 q 435 388 424 397 q 450 383 444 381 q 467 392 456 385 q 487 404 478 400 q 492 422 496 408 m 453 294 l 443 299 l 431 292 l 439 278 l 453 283 l 453 294 m 511 253 q 492 269 508 267 q 474 272 481 271 q 461 263 467 272 q 464 249 457 253 q 478 238 471 246 q 497 232 488 228 q 509 240 506 236 q 511 253 513 243 m 350 196 q 333 212 342 210 q 308 210 324 214 q 288 200 293 207 q 282 179 283 193 q 285 157 281 164 q 301 144 289 150 q 325 138 317 138 q 343 150 333 139 q 356 172 354 163 q 350 196 358 181 m 310 103 q 299 109 306 111 q 283 106 293 107 q 265 103 272 103 q 256 93 257 104 q 257 72 254 79 q 272 60 260 65 q 290 58 285 54 q 304 72 296 63 q 315 86 313 81 q 310 103 317 92 z "},"8":{"ha":989,"x_min":50,"x_max":939,"o":"m 493 -14 q 286 13 371 -14 q 149 85 201 40 q 74 187 97 131 q 50 303 50 243 q 85 428 50 372 q 171 514 119 483 q 85 694 85 576 q 124 835 85 768 q 252 944 163 901 q 493 986 342 986 q 733 944 644 986 q 859 837 821 903 q 897 697 897 771 q 878 594 897 640 q 815 514 858 547 q 906 428 872 486 q 939 300 939 369 q 895 150 939 222 q 753 32 851 78 q 493 -14 656 -14 m 424 904 q 411 919 422 917 q 392 913 397 922 q 390 903 388 907 q 397 894 393 900 q 406 882 403 888 q 417 879 408 876 q 424 889 425 883 q 424 904 424 894 m 653 896 q 639 910 649 908 q 623 910 629 910 q 613 901 617 911 q 613 888 610 892 q 625 876 617 883 q 647 875 636 868 q 654 883 654 879 q 653 896 654 888 m 540 865 q 532 879 538 876 q 515 883 526 882 q 492 871 499 886 q 486 856 486 861 q 494 842 486 850 q 508 835 501 835 q 524 842 514 836 q 538 851 533 847 q 540 865 542 856 m 282 857 q 230 868 249 869 q 189 839 211 867 q 167 790 167 810 q 189 740 168 771 q 224 719 207 714 q 272 733 242 724 q 315 741 296 739 q 346 751 335 743 q 358 782 357 758 q 340 833 360 822 q 282 857 319 843 m 476 817 q 469 830 475 828 q 451 835 463 832 q 428 825 435 838 q 432 800 421 813 q 444 788 439 792 q 458 789 449 785 q 474 799 469 793 q 476 817 478 804 m 781 814 q 753 813 767 824 q 747 786 742 803 q 769 771 754 769 q 779 776 778 771 q 783 790 781 782 q 787 804 785 799 q 781 814 789 810 m 668 810 q 644 808 656 817 q 631 797 636 801 q 629 782 626 793 q 640 772 633 772 q 658 772 647 772 q 676 788 672 774 q 668 810 679 801 m 493 601 q 558 624 535 601 q 582 676 582 646 q 558 730 582 708 q 493 751 535 751 q 428 730 451 751 q 406 676 406 708 q 428 624 406 646 q 493 601 451 601 m 796 692 q 772 715 781 707 q 743 713 763 722 q 706 691 718 700 q 696 654 693 682 q 716 626 700 628 q 758 619 732 624 q 785 622 778 615 q 801 646 792 629 q 809 670 810 661 q 796 692 808 679 m 663 663 l 649 672 l 636 663 l 639 644 l 654 650 l 663 663 m 615 621 l 603 624 l 599 613 l 607 603 l 624 607 l 615 621 m 314 621 l 301 618 l 299 601 l 317 597 l 322 611 l 314 621 m 399 599 q 372 610 390 613 q 356 604 361 607 q 349 589 350 601 q 353 576 347 579 q 368 568 358 574 q 389 575 378 564 q 399 586 394 582 q 399 599 403 590 m 600 578 q 586 583 592 583 q 574 578 581 583 q 568 551 561 567 q 577 542 572 543 q 590 542 582 540 q 604 557 600 543 q 606 569 606 564 q 600 578 607 574 m 754 561 q 747 571 749 567 q 738 572 744 575 q 728 565 729 569 q 728 551 728 560 q 740 538 728 542 q 753 535 749 536 q 763 542 757 535 q 763 551 767 549 q 754 561 760 554 m 500 560 l 489 549 l 493 538 l 508 531 l 513 549 l 500 560 m 428 535 l 418 538 l 413 529 l 417 513 l 435 519 l 428 535 m 338 518 q 322 530 329 529 q 303 526 315 531 q 284 518 290 522 q 278 500 278 514 q 285 486 278 488 q 304 481 293 485 q 322 474 315 476 q 336 482 328 472 q 345 500 344 493 q 338 518 346 507 m 685 486 q 656 495 667 496 q 629 479 644 494 q 619 455 615 465 q 631 428 622 444 q 646 407 639 413 q 671 404 653 401 q 701 412 690 408 q 717 436 713 415 q 713 467 719 458 q 685 486 706 476 m 254 408 q 241 447 244 432 q 214 461 238 463 q 174 448 185 458 q 157 410 164 438 q 158 372 151 383 q 188 344 164 360 q 218 340 207 333 q 247 360 229 346 q 261 382 261 372 q 254 408 261 392 m 431 421 l 414 426 l 406 413 l 417 404 l 428 407 l 431 421 m 493 219 q 563 241 535 219 q 590 301 590 263 q 563 362 590 340 q 493 383 535 383 q 424 362 451 383 q 396 301 396 340 q 424 241 396 263 q 493 219 451 219 m 863 331 q 860 360 863 350 q 839 376 857 371 q 810 378 819 383 q 788 357 800 374 q 783 335 778 343 q 799 313 789 326 q 814 298 807 301 q 833 299 821 294 q 856 309 849 304 q 863 331 863 314 m 344 333 q 340 349 342 343 q 328 354 338 354 q 314 349 317 354 q 307 335 311 344 q 303 320 303 325 q 313 310 304 315 q 324 305 319 303 q 338 311 329 307 q 344 333 349 319 m 114 321 l 101 325 l 90 314 l 100 301 l 113 308 l 114 321 m 763 250 q 746 277 756 271 q 714 285 736 283 q 685 278 693 286 q 669 251 676 271 q 667 224 663 233 q 686 203 671 214 q 714 184 703 189 q 743 192 725 179 q 765 216 763 204 q 763 250 768 228 m 174 249 q 160 265 167 260 q 140 265 154 269 q 122 254 126 261 q 118 233 118 247 q 121 211 118 218 q 138 200 124 204 q 170 186 158 192 q 194 197 182 181 q 197 222 208 214 q 174 249 186 231 m 831 240 q 819 242 822 244 q 808 233 815 240 q 804 213 799 224 q 825 201 811 200 q 842 219 839 204 q 831 240 843 235 m 304 176 q 274 183 285 185 q 247 165 263 181 q 242 142 235 151 q 258 118 249 133 q 270 106 264 107 q 288 107 276 106 q 307 113 300 110 q 315 128 314 115 q 319 157 317 146 q 304 176 321 168 m 450 142 q 435 145 440 147 q 422 135 429 143 q 412 121 414 126 q 415 106 410 115 q 426 98 421 97 q 442 100 432 99 q 454 104 450 101 q 460 115 458 107 q 460 131 461 125 q 450 142 460 138 m 643 114 q 619 122 632 128 q 606 100 606 117 q 621 82 606 86 q 644 89 636 76 q 643 114 653 101 m 408 67 q 399 78 403 75 q 386 78 394 81 q 372 54 371 72 q 389 33 374 38 q 400 36 397 32 q 407 47 403 40 q 408 67 415 60 m 585 60 q 567 56 572 63 q 569 38 561 49 q 576 27 574 31 q 588 26 579 24 q 600 46 600 31 q 596 55 600 53 q 585 60 592 57 z "},"9":{"ha":949,"x_min":29,"x_max":919,"o":"m 219 0 q 198 9 207 0 q 189 31 189 18 q 194 49 189 40 l 376 292 q 365 293 369 292 q 257 321 315 299 q 147 383 199 343 q 62 483 94 422 q 29 624 29 543 q 78 801 29 718 q 226 935 128 883 q 468 986 324 986 q 713 942 613 986 q 867 820 814 899 q 919 638 919 742 q 892 509 919 569 q 822 392 864 449 q 736 272 781 335 l 553 28 q 535 10 547 21 q 499 0 522 0 l 219 0 m 544 936 q 533 938 538 938 q 524 932 528 939 q 522 921 519 925 q 529 910 524 917 q 549 904 538 900 q 561 922 563 910 q 556 932 560 931 q 544 936 553 933 m 617 913 l 607 908 l 610 899 l 621 893 l 626 906 l 617 913 m 346 894 q 341 902 344 901 q 331 904 338 903 q 321 906 325 906 q 314 899 317 906 q 319 882 310 890 q 328 874 325 876 q 339 875 332 871 q 346 894 349 879 m 424 825 q 401 850 410 842 q 372 850 392 858 q 354 829 353 842 q 357 796 356 817 q 363 771 358 779 q 383 758 367 763 q 412 755 401 753 q 433 774 422 757 q 440 800 443 790 q 424 825 436 810 m 204 813 q 190 822 196 821 q 175 817 185 824 q 161 806 164 811 q 160 789 158 800 q 168 776 163 778 q 185 772 174 774 q 210 785 203 771 q 204 813 217 801 m 658 819 q 640 817 646 821 q 631 801 635 813 q 623 781 625 789 q 632 764 621 774 q 648 760 642 754 q 667 772 654 765 q 688 782 678 779 q 693 799 697 785 q 682 816 690 814 q 658 819 674 818 m 519 819 l 503 818 l 489 807 l 503 790 l 522 799 l 519 819 m 844 754 q 828 785 835 774 q 801 792 822 796 q 779 776 779 789 q 775 742 779 763 q 769 708 772 721 q 785 686 765 696 q 820 676 807 675 q 851 694 833 676 q 861 722 868 710 q 844 754 854 733 m 472 535 q 537 558 513 535 q 561 625 561 582 q 537 692 561 669 q 472 715 513 715 q 408 692 433 715 q 383 625 383 669 q 408 558 383 582 q 472 535 432 535 m 106 703 q 82 700 93 710 q 78 690 76 694 q 82 679 79 686 q 88 664 86 671 q 99 658 89 657 q 110 666 110 660 q 113 683 110 672 q 106 703 115 697 m 649 638 q 643 649 649 647 q 629 653 638 650 q 610 647 617 657 q 601 635 604 640 q 603 622 597 631 q 616 609 611 613 q 632 610 621 606 q 647 619 644 614 q 649 638 649 625 m 326 610 q 310 622 319 624 q 286 619 301 621 q 263 618 272 618 q 251 603 254 618 q 256 585 247 589 q 276 574 264 582 q 297 560 289 567 q 315 564 304 554 q 331 585 329 576 q 326 610 333 594 m 806 610 l 794 615 l 781 610 l 788 594 l 801 597 l 806 610 m 701 540 q 682 561 700 557 q 669 558 672 563 q 663 546 667 554 q 655 534 657 539 q 658 522 653 529 q 670 516 665 515 q 683 521 675 517 q 698 528 693 525 q 701 540 703 531 m 356 544 q 342 542 346 546 q 335 531 339 539 q 326 515 329 521 q 331 501 322 510 q 345 494 339 493 q 363 501 351 496 q 372 510 371 506 q 372 525 374 515 q 356 544 369 542 m 224 511 q 209 525 218 525 q 185 524 200 525 q 165 519 171 522 q 157 503 160 515 q 157 486 153 492 q 172 474 161 481 q 190 465 183 467 q 207 471 197 463 q 224 489 219 482 q 224 511 229 496 m 776 519 l 765 517 l 761 508 l 776 508 l 776 519 m 672 490 q 661 494 665 496 q 650 488 657 493 q 636 479 642 482 q 633 467 631 476 q 641 456 635 457 q 657 454 647 456 q 672 455 667 454 q 681 465 676 456 q 672 490 686 479 m 475 478 l 458 474 l 450 458 l 465 453 l 481 458 l 475 478 m 363 425 l 349 417 l 354 403 l 367 401 l 376 414 l 363 425 m 290 411 q 283 419 288 418 q 269 419 278 421 q 256 416 261 418 q 250 406 251 414 q 261 381 247 388 q 288 386 275 374 q 290 411 299 396 m 706 343 q 693 369 700 361 q 668 376 686 376 q 644 369 650 376 q 632 343 639 361 q 626 317 626 326 q 640 297 626 308 q 663 290 654 288 q 686 304 672 293 q 705 320 700 313 q 706 343 710 328 m 518 358 q 488 342 496 361 q 488 326 483 331 q 500 314 492 322 q 525 310 513 303 q 538 333 540 318 q 532 351 535 346 q 518 358 529 357 m 429 311 l 421 304 l 422 294 l 433 289 l 444 303 l 429 311 m 632 250 q 610 263 621 265 q 582 256 600 261 q 565 243 568 250 q 563 221 563 236 q 565 198 563 206 q 582 185 567 190 q 613 176 601 179 q 638 189 625 172 q 648 219 650 207 q 632 250 646 231 m 517 175 l 500 172 l 497 160 l 507 149 l 521 157 l 517 175 m 346 124 q 334 140 340 136 q 315 143 328 144 q 298 135 301 142 q 292 117 294 129 q 306 89 289 97 q 322 82 315 82 q 336 90 328 82 q 349 105 346 99 q 346 124 351 111 m 426 143 l 415 132 l 410 114 l 428 119 l 438 131 l 426 143 m 511 78 q 502 91 508 89 q 485 94 496 93 q 474 91 476 96 q 468 79 472 86 q 463 67 465 71 q 468 57 461 63 q 478 53 474 51 q 490 58 483 54 q 506 65 500 63 q 511 78 513 67 z "},"A":{"ha":1049,"x_min":0,"x_max":1049,"o":"m 31 0 q 9 9 18 0 q 0 31 0 18 q 1 40 0 36 l 311 926 q 331 957 315 942 q 374 972 346 972 l 675 972 q 718 957 703 972 q 738 926 733 942 l 1047 40 q 1049 31 1049 36 q 1040 9 1049 18 q 1018 0 1031 0 l 761 0 q 723 12 735 0 q 707 35 711 24 l 674 126 l 375 126 l 342 35 q 326 12 338 24 q 288 0 315 0 l 31 0 m 451 883 q 438 884 443 885 q 429 876 433 883 q 435 850 424 861 q 449 840 443 843 q 464 843 454 838 q 474 853 474 847 q 472 871 474 860 q 466 881 471 879 q 451 883 461 882 m 599 846 q 583 864 592 861 q 560 865 575 867 q 531 862 542 864 q 517 842 521 860 q 515 810 511 821 q 538 789 519 800 q 567 778 556 778 q 596 793 579 779 q 608 817 610 806 q 599 846 606 828 m 353 836 q 338 841 344 843 q 324 832 332 839 q 317 808 311 824 q 322 792 319 797 q 336 786 325 786 q 354 790 349 786 q 364 804 360 793 q 365 823 368 817 q 353 836 363 829 m 490 768 q 483 764 483 768 q 479 753 482 760 q 475 744 476 747 q 478 736 474 740 q 497 735 486 728 q 506 751 508 740 q 490 768 501 767 m 713 711 q 703 723 708 721 q 688 724 699 725 q 669 721 676 722 q 660 708 663 719 q 664 692 658 696 q 679 682 669 688 q 695 674 689 676 q 710 679 701 672 q 718 694 718 688 q 713 711 718 700 m 318 696 q 301 704 308 704 q 283 697 294 704 q 265 684 271 690 q 264 664 260 678 q 273 643 267 649 q 296 636 279 638 q 315 641 310 635 q 326 660 321 647 q 331 679 332 672 q 318 696 329 686 m 446 397 l 603 397 l 524 656 l 446 397 m 728 601 q 710 606 717 606 q 696 596 703 606 q 690 580 689 586 q 699 564 692 574 q 712 545 707 551 q 731 543 717 539 q 747 555 744 547 q 749 578 749 563 q 744 593 749 589 q 728 601 739 597 m 372 536 q 356 553 364 550 q 332 551 347 556 q 313 542 317 549 q 308 519 310 535 q 313 503 307 507 q 329 494 318 499 q 353 481 344 488 q 374 486 361 474 q 384 510 386 500 q 372 536 382 519 m 703 500 q 689 499 693 504 q 678 486 685 493 q 669 476 671 479 q 671 464 667 472 q 692 451 678 450 q 703 457 701 453 q 707 471 706 461 q 710 488 708 482 q 703 500 713 494 m 799 474 l 785 468 l 778 457 l 790 449 l 800 458 l 799 474 m 789 394 q 783 413 785 406 q 769 421 781 419 q 754 415 757 422 q 747 397 751 408 q 753 374 742 383 q 769 356 764 364 q 788 356 775 349 q 796 372 800 364 q 789 394 792 381 m 700 419 l 688 410 l 689 397 l 703 393 l 707 406 l 700 419 m 853 379 q 835 381 842 388 q 824 372 828 376 q 824 361 821 368 q 831 353 826 353 q 844 353 836 353 q 860 353 854 353 q 867 361 865 353 q 865 372 869 369 q 853 379 860 375 m 394 329 q 386 346 390 342 q 369 350 382 350 q 344 348 353 349 q 331 332 335 347 q 328 304 325 314 q 347 283 331 294 q 368 283 361 275 q 388 300 375 290 q 397 313 396 307 q 394 329 399 319 m 600 332 q 578 331 588 339 q 575 310 569 322 q 581 304 578 304 q 592 304 585 304 q 606 314 604 306 q 600 332 608 328 m 696 319 q 685 327 689 324 q 676 326 682 331 q 671 317 669 321 q 675 304 672 313 q 689 292 679 292 q 698 295 696 292 q 703 306 700 299 q 696 319 704 313 m 490 299 l 483 311 l 467 306 l 469 286 l 488 281 l 490 299 m 274 282 q 259 298 264 292 q 242 299 254 304 q 226 285 229 292 q 225 263 224 278 q 231 240 228 247 q 250 229 235 233 q 276 228 267 226 q 294 246 286 231 q 293 265 303 260 q 274 282 283 271 m 789 263 q 782 277 785 272 q 769 282 779 282 q 756 276 758 281 q 750 261 753 271 q 751 249 749 253 q 761 240 754 244 q 774 233 769 235 q 788 236 779 231 q 794 249 794 243 q 789 263 793 254 m 583 257 l 576 269 l 567 260 l 567 250 l 579 244 l 583 257 m 354 232 q 338 238 344 240 q 321 229 332 236 q 312 218 313 224 q 314 203 311 213 q 333 188 317 189 q 350 188 344 188 q 360 199 356 189 q 364 217 364 211 q 354 232 364 224 m 869 183 q 848 186 856 188 q 833 172 840 185 q 818 148 824 157 q 825 125 813 139 q 847 113 836 110 q 874 122 857 115 q 901 133 892 129 q 910 157 911 138 q 897 177 908 175 q 869 183 886 179 m 257 131 q 237 149 249 150 q 204 147 225 149 q 169 145 182 146 q 150 122 156 144 q 153 90 144 100 q 181 67 161 79 q 217 47 204 53 q 250 60 231 42 q 269 91 271 76 q 257 131 267 106 z "},"Á":{"ha":1049,"x_min":0,"x_max":1049,"o":"m 31 0 q 9 9 18 0 q 0 31 0 18 q 1 40 0 36 l 311 926 q 331 957 315 942 q 374 972 346 972 l 675 972 q 718 957 703 972 q 738 926 733 942 l 1047 40 q 1049 31 1049 36 q 1040 9 1049 18 q 1018 0 1031 0 l 761 0 q 723 12 735 0 q 707 35 711 24 l 674 126 l 375 126 l 342 35 q 326 12 338 24 q 288 0 315 0 l 31 0 m 451 883 q 438 884 443 885 q 429 876 433 883 q 435 850 424 861 q 449 840 443 843 q 464 843 454 838 q 474 853 474 847 q 472 871 474 860 q 466 881 471 879 q 451 883 461 882 m 599 846 q 583 864 592 861 q 560 865 575 867 q 531 862 542 864 q 517 842 521 860 q 515 810 511 821 q 538 789 519 800 q 567 778 556 778 q 596 793 579 779 q 608 817 610 806 q 599 846 606 828 m 353 836 q 338 841 344 843 q 324 832 332 839 q 317 808 311 824 q 322 792 319 797 q 336 786 325 786 q 354 790 349 786 q 364 804 360 793 q 365 823 368 817 q 353 836 363 829 m 490 768 q 483 764 483 768 q 479 753 482 760 q 475 744 476 747 q 478 736 474 740 q 497 735 486 728 q 506 751 508 740 q 490 768 501 767 m 713 711 q 703 723 708 721 q 688 724 699 725 q 669 721 676 722 q 660 708 663 719 q 664 692 658 696 q 679 682 669 688 q 695 674 689 676 q 710 679 701 672 q 718 694 718 688 q 713 711 718 700 m 318 696 q 301 704 308 704 q 283 697 294 704 q 265 684 271 690 q 264 664 260 678 q 273 643 267 649 q 296 636 279 638 q 315 641 310 635 q 326 660 321 647 q 331 679 332 672 q 318 696 329 686 m 446 397 l 603 397 l 524 656 l 446 397 m 728 601 q 710 606 717 606 q 696 596 703 606 q 690 580 689 586 q 699 564 692 574 q 712 545 707 551 q 731 543 717 539 q 747 555 744 547 q 749 578 749 563 q 744 593 749 589 q 728 601 739 597 m 372 536 q 356 553 364 550 q 332 551 347 556 q 313 542 317 549 q 308 519 310 535 q 313 503 307 507 q 329 494 318 499 q 353 481 344 488 q 374 486 361 474 q 384 510 386 500 q 372 536 382 519 m 703 500 q 689 499 693 504 q 678 486 685 493 q 669 476 671 479 q 671 464 667 472 q 692 451 678 450 q 703 457 701 453 q 707 471 706 461 q 710 488 708 482 q 703 500 713 494 m 799 474 l 785 468 l 778 457 l 790 449 l 800 458 l 799 474 m 789 394 q 783 413 785 406 q 769 421 781 419 q 754 415 757 422 q 747 397 751 408 q 753 374 742 383 q 769 356 764 364 q 788 356 775 349 q 796 372 800 364 q 789 394 792 381 m 700 419 l 688 410 l 689 397 l 703 393 l 707 406 l 700 419 m 853 379 q 835 381 842 388 q 824 372 828 376 q 824 361 821 368 q 831 353 826 353 q 844 353 836 353 q 860 353 854 353 q 867 361 865 353 q 865 372 869 369 q 853 379 860 375 m 394 329 q 386 346 390 342 q 369 350 382 350 q 344 348 353 349 q 331 332 335 347 q 328 304 325 314 q 347 283 331 294 q 368 283 361 275 q 388 300 375 290 q 397 313 396 307 q 394 329 399 319 m 600 332 q 578 331 588 339 q 575 310 569 322 q 581 304 578 304 q 592 304 585 304 q 606 314 604 306 q 600 332 608 328 m 696 319 q 685 327 689 324 q 676 326 682 331 q 671 317 669 321 q 675 304 672 313 q 689 292 679 292 q 698 295 696 292 q 703 306 700 299 q 696 319 704 313 m 490 299 l 483 311 l 467 306 l 469 286 l 488 281 l 490 299 m 274 282 q 259 298 264 292 q 242 299 254 304 q 226 285 229 292 q 225 263 224 278 q 231 240 228 247 q 250 229 235 233 q 276 228 267 226 q 294 246 286 231 q 293 265 303 260 q 274 282 283 271 m 789 263 q 782 277 785 272 q 769 282 779 282 q 756 276 758 281 q 750 261 753 271 q 751 249 749 253 q 761 240 754 244 q 774 233 769 235 q 788 236 779 231 q 794 249 794 243 q 789 263 793 254 m 583 257 l 576 269 l 567 260 l 567 250 l 579 244 l 583 257 m 354 232 q 338 238 344 240 q 321 229 332 236 q 312 218 313 224 q 314 203 311 213 q 333 188 317 189 q 350 188 344 188 q 360 199 356 189 q 364 217 364 211 q 354 232 364 224 m 869 183 q 848 186 856 188 q 833 172 840 185 q 818 148 824 157 q 825 125 813 139 q 847 113 836 110 q 874 122 857 115 q 901 133 892 129 q 910 157 911 138 q 897 177 908 175 q 869 183 886 179 m 257 131 q 237 149 249 150 q 204 147 225 149 q 169 145 182 146 q 150 122 156 144 q 153 90 144 100 q 181 67 161 79 q 217 47 204 53 q 250 60 231 42 q 269 91 271 76 q 257 131 267 106 m 396 1042 q 374 1064 374 1042 q 381 1082 374 1075 l 519 1251 q 545 1274 535 1269 q 571 1278 556 1278 l 843 1278 q 869 1250 869 1278 q 863 1233 869 1240 l 658 1065 q 635 1049 647 1056 q 600 1042 622 1042 l 396 1042 m 639 1264 l 622 1263 l 617 1247 l 631 1242 l 642 1249 l 639 1264 m 729 1190 l 714 1201 l 700 1188 l 707 1171 l 725 1174 l 729 1190 m 649 1114 q 644 1124 646 1121 q 635 1128 642 1128 q 620 1126 625 1128 q 614 1114 615 1124 q 615 1103 611 1107 q 626 1096 619 1100 q 640 1085 635 1090 q 651 1086 644 1081 q 656 1099 660 1093 q 649 1114 653 1104 z "},"Ă":{"ha":1049,"x_min":0,"x_max":1049,"o":"m 31 0 q 9 9 18 0 q 0 31 0 18 q 1 40 0 36 l 311 926 q 331 957 315 942 q 374 972 346 972 l 675 972 q 718 957 703 972 q 738 926 733 942 l 1047 40 q 1049 31 1049 36 q 1040 9 1049 18 q 1018 0 1031 0 l 761 0 q 723 12 735 0 q 707 35 711 24 l 674 126 l 375 126 l 342 35 q 326 12 338 24 q 288 0 315 0 l 31 0 m 451 883 q 438 884 443 885 q 429 876 433 883 q 435 850 424 861 q 449 840 443 843 q 464 843 454 838 q 474 853 474 847 q 472 871 474 860 q 466 881 471 879 q 451 883 461 882 m 599 846 q 583 864 592 861 q 560 865 575 867 q 531 862 542 864 q 517 842 521 860 q 515 810 511 821 q 538 789 519 800 q 567 778 556 778 q 596 793 579 779 q 608 817 610 806 q 599 846 606 828 m 353 836 q 338 841 344 843 q 324 832 332 839 q 317 808 311 824 q 322 792 319 797 q 336 786 325 786 q 354 790 349 786 q 364 804 360 793 q 365 823 368 817 q 353 836 363 829 m 490 768 q 483 764 483 768 q 479 753 482 760 q 475 744 476 747 q 478 736 474 740 q 497 735 486 728 q 506 751 508 740 q 490 768 501 767 m 713 711 q 703 723 708 721 q 688 724 699 725 q 669 721 676 722 q 660 708 663 719 q 664 692 658 696 q 679 682 669 688 q 695 674 689 676 q 710 679 701 672 q 718 694 718 688 q 713 711 718 700 m 318 696 q 301 704 308 704 q 283 697 294 704 q 265 684 271 690 q 264 664 260 678 q 273 643 267 649 q 296 636 279 638 q 315 641 310 635 q 326 660 321 647 q 331 679 332 672 q 318 696 329 686 m 446 397 l 603 397 l 524 656 l 446 397 m 728 601 q 710 606 717 606 q 696 596 703 606 q 690 580 689 586 q 699 564 692 574 q 712 545 707 551 q 731 543 717 539 q 747 555 744 547 q 749 578 749 563 q 744 593 749 589 q 728 601 739 597 m 372 536 q 356 553 364 550 q 332 551 347 556 q 313 542 317 549 q 308 519 310 535 q 313 503 307 507 q 329 494 318 499 q 353 481 344 488 q 374 486 361 474 q 384 510 386 500 q 372 536 382 519 m 703 500 q 689 499 693 504 q 678 486 685 493 q 669 476 671 479 q 671 464 667 472 q 692 451 678 450 q 703 457 701 453 q 707 471 706 461 q 710 488 708 482 q 703 500 713 494 m 799 474 l 785 468 l 778 457 l 790 449 l 800 458 l 799 474 m 789 394 q 783 413 785 406 q 769 421 781 419 q 754 415 757 422 q 747 397 751 408 q 753 374 742 383 q 769 356 764 364 q 788 356 775 349 q 796 372 800 364 q 789 394 792 381 m 700 419 l 688 410 l 689 397 l 703 393 l 707 406 l 700 419 m 853 379 q 835 381 842 388 q 824 372 828 376 q 824 361 821 368 q 831 353 826 353 q 844 353 836 353 q 860 353 854 353 q 867 361 865 353 q 865 372 869 369 q 853 379 860 375 m 394 329 q 386 346 390 342 q 369 350 382 350 q 344 348 353 349 q 331 332 335 347 q 328 304 325 314 q 347 283 331 294 q 368 283 361 275 q 388 300 375 290 q 397 313 396 307 q 394 329 399 319 m 600 332 q 578 331 588 339 q 575 310 569 322 q 581 304 578 304 q 592 304 585 304 q 606 314 604 306 q 600 332 608 328 m 696 319 q 685 327 689 324 q 676 326 682 331 q 671 317 669 321 q 675 304 672 313 q 689 292 679 292 q 698 295 696 292 q 703 306 700 299 q 696 319 704 313 m 490 299 l 483 311 l 467 306 l 469 286 l 488 281 l 490 299 m 274 282 q 259 298 264 292 q 242 299 254 304 q 226 285 229 292 q 225 263 224 278 q 231 240 228 247 q 250 229 235 233 q 276 228 267 226 q 294 246 286 231 q 293 265 303 260 q 274 282 283 271 m 789 263 q 782 277 785 272 q 769 282 779 282 q 756 276 758 281 q 750 261 753 271 q 751 249 749 253 q 761 240 754 244 q 774 233 769 235 q 788 236 779 231 q 794 249 794 243 q 789 263 793 254 m 583 257 l 576 269 l 567 260 l 567 250 l 579 244 l 583 257 m 354 232 q 338 238 344 240 q 321 229 332 236 q 312 218 313 224 q 314 203 311 213 q 333 188 317 189 q 350 188 344 188 q 360 199 356 189 q 364 217 364 211 q 354 232 364 224 m 869 183 q 848 186 856 188 q 833 172 840 185 q 818 148 824 157 q 825 125 813 139 q 847 113 836 110 q 874 122 857 115 q 901 133 892 129 q 910 157 911 138 q 897 177 908 175 q 869 183 886 179 m 257 131 q 237 149 249 150 q 204 147 225 149 q 169 145 182 146 q 150 122 156 144 q 153 90 144 100 q 181 67 161 79 q 217 47 204 53 q 250 60 231 42 q 269 91 271 76 q 257 131 267 106 m 525 1035 q 340 1097 400 1035 q 279 1251 279 1158 q 286 1270 279 1263 q 306 1278 293 1278 l 443 1278 q 463 1270 456 1278 q 469 1251 469 1263 q 481 1198 469 1221 q 525 1175 492 1175 q 569 1198 558 1175 q 581 1251 581 1221 q 588 1270 581 1263 q 607 1278 594 1278 l 744 1278 q 764 1270 757 1278 q 771 1251 771 1263 q 710 1097 771 1158 q 525 1035 650 1035 m 660 1201 q 626 1210 639 1215 q 594 1190 614 1206 q 578 1165 578 1176 q 586 1135 579 1154 q 601 1106 594 1115 q 629 1097 608 1096 q 658 1108 651 1099 q 669 1139 664 1118 q 677 1175 675 1161 q 660 1201 679 1189 m 378 1192 l 365 1185 l 368 1171 l 383 1165 l 386 1181 l 378 1192 m 333 1186 l 317 1190 l 315 1172 l 328 1167 l 344 1171 l 333 1186 z "},"Â":{"ha":1049,"x_min":0,"x_max":1049,"o":"m 31 0 q 9 9 18 0 q 0 31 0 18 q 1 40 0 36 l 311 926 q 331 957 315 942 q 374 972 346 972 l 675 972 q 718 957 703 972 q 738 926 733 942 l 1047 40 q 1049 31 1049 36 q 1040 9 1049 18 q 1018 0 1031 0 l 761 0 q 723 12 735 0 q 707 35 711 24 l 674 126 l 375 126 l 342 35 q 326 12 338 24 q 288 0 315 0 l 31 0 m 451 883 q 438 884 443 885 q 429 876 433 883 q 435 850 424 861 q 449 840 443 843 q 464 843 454 838 q 474 853 474 847 q 472 871 474 860 q 466 881 471 879 q 451 883 461 882 m 599 846 q 583 864 592 861 q 560 865 575 867 q 531 862 542 864 q 517 842 521 860 q 515 810 511 821 q 538 789 519 800 q 567 778 556 778 q 596 793 579 779 q 608 817 610 806 q 599 846 606 828 m 353 836 q 338 841 344 843 q 324 832 332 839 q 317 808 311 824 q 322 792 319 797 q 336 786 325 786 q 354 790 349 786 q 364 804 360 793 q 365 823 368 817 q 353 836 363 829 m 490 768 q 483 764 483 768 q 479 753 482 760 q 475 744 476 747 q 478 736 474 740 q 497 735 486 728 q 506 751 508 740 q 490 768 501 767 m 713 711 q 703 723 708 721 q 688 724 699 725 q 669 721 676 722 q 660 708 663 719 q 664 692 658 696 q 679 682 669 688 q 695 674 689 676 q 710 679 701 672 q 718 694 718 688 q 713 711 718 700 m 318 696 q 301 704 308 704 q 283 697 294 704 q 265 684 271 690 q 264 664 260 678 q 273 643 267 649 q 296 636 279 638 q 315 641 310 635 q 326 660 321 647 q 331 679 332 672 q 318 696 329 686 m 446 397 l 603 397 l 524 656 l 446 397 m 728 601 q 710 606 717 606 q 696 596 703 606 q 690 580 689 586 q 699 564 692 574 q 712 545 707 551 q 731 543 717 539 q 747 555 744 547 q 749 578 749 563 q 744 593 749 589 q 728 601 739 597 m 372 536 q 356 553 364 550 q 332 551 347 556 q 313 542 317 549 q 308 519 310 535 q 313 503 307 507 q 329 494 318 499 q 353 481 344 488 q 374 486 361 474 q 384 510 386 500 q 372 536 382 519 m 703 500 q 689 499 693 504 q 678 486 685 493 q 669 476 671 479 q 671 464 667 472 q 692 451 678 450 q 703 457 701 453 q 707 471 706 461 q 710 488 708 482 q 703 500 713 494 m 799 474 l 785 468 l 778 457 l 790 449 l 800 458 l 799 474 m 789 394 q 783 413 785 406 q 769 421 781 419 q 754 415 757 422 q 747 397 751 408 q 753 374 742 383 q 769 356 764 364 q 788 356 775 349 q 796 372 800 364 q 789 394 792 381 m 700 419 l 688 410 l 689 397 l 703 393 l 707 406 l 700 419 m 853 379 q 835 381 842 388 q 824 372 828 376 q 824 361 821 368 q 831 353 826 353 q 844 353 836 353 q 860 353 854 353 q 867 361 865 353 q 865 372 869 369 q 853 379 860 375 m 394 329 q 386 346 390 342 q 369 350 382 350 q 344 348 353 349 q 331 332 335 347 q 328 304 325 314 q 347 283 331 294 q 368 283 361 275 q 388 300 375 290 q 397 313 396 307 q 394 329 399 319 m 600 332 q 578 331 588 339 q 575 310 569 322 q 581 304 578 304 q 592 304 585 304 q 606 314 604 306 q 600 332 608 328 m 696 319 q 685 327 689 324 q 676 326 682 331 q 671 317 669 321 q 675 304 672 313 q 689 292 679 292 q 698 295 696 292 q 703 306 700 299 q 696 319 704 313 m 490 299 l 483 311 l 467 306 l 469 286 l 488 281 l 490 299 m 274 282 q 259 298 264 292 q 242 299 254 304 q 226 285 229 292 q 225 263 224 278 q 231 240 228 247 q 250 229 235 233 q 276 228 267 226 q 294 246 286 231 q 293 265 303 260 q 274 282 283 271 m 789 263 q 782 277 785 272 q 769 282 779 282 q 756 276 758 281 q 750 261 753 271 q 751 249 749 253 q 761 240 754 244 q 774 233 769 235 q 788 236 779 231 q 794 249 794 243 q 789 263 793 254 m 583 257 l 576 269 l 567 260 l 567 250 l 579 244 l 583 257 m 354 232 q 338 238 344 240 q 321 229 332 236 q 312 218 313 224 q 314 203 311 213 q 333 188 317 189 q 350 188 344 188 q 360 199 356 189 q 364 217 364 211 q 354 232 364 224 m 869 183 q 848 186 856 188 q 833 172 840 185 q 818 148 824 157 q 825 125 813 139 q 847 113 836 110 q 874 122 857 115 q 901 133 892 129 q 910 157 911 138 q 897 177 908 175 q 869 183 886 179 m 257 131 q 237 149 249 150 q 204 147 225 149 q 169 145 182 146 q 150 122 156 144 q 153 90 144 100 q 181 67 161 79 q 217 47 204 53 q 250 60 231 42 q 269 91 271 76 q 257 131 267 106 m 243 1042 q 221 1064 221 1042 q 228 1082 221 1075 l 383 1251 q 435 1278 408 1278 l 615 1278 q 667 1251 642 1278 l 822 1082 q 829 1064 829 1075 q 807 1042 829 1042 l 708 1042 q 681 1043 694 1042 q 653 1051 668 1044 l 525 1110 l 397 1051 q 369 1043 383 1044 q 342 1042 356 1042 l 243 1042 m 501 1190 q 487 1222 500 1217 q 449 1236 474 1228 q 415 1238 426 1242 q 392 1217 404 1235 q 380 1185 379 1197 q 394 1156 381 1174 q 419 1136 408 1139 q 451 1140 431 1133 q 490 1157 476 1150 q 501 1190 503 1164 m 621 1208 q 606 1216 613 1218 q 588 1210 599 1214 q 571 1201 576 1206 q 567 1186 565 1197 q 574 1173 568 1175 q 592 1168 581 1171 q 610 1163 603 1165 q 624 1171 617 1161 q 630 1190 631 1182 q 621 1208 629 1197 m 706 1125 q 681 1126 694 1135 q 669 1104 667 1119 q 676 1097 671 1097 q 689 1096 681 1097 q 703 1092 697 1094 q 711 1099 708 1090 q 706 1125 718 1113 m 774 1104 q 763 1110 767 1107 q 753 1107 758 1114 q 753 1083 744 1097 q 775 1075 761 1071 q 785 1081 783 1076 q 788 1093 788 1085 q 783 1101 788 1100 q 774 1104 779 1103 z "},"Ä":{"ha":1049,"x_min":0,"x_max":1049,"o":"m 31 0 q 9 9 18 0 q 0 31 0 18 q 1 40 0 36 l 311 926 q 331 957 315 942 q 374 972 346 972 l 675 972 q 718 957 703 972 q 738 926 733 942 l 1047 40 q 1049 31 1049 36 q 1040 9 1049 18 q 1018 0 1031 0 l 761 0 q 723 12 735 0 q 707 35 711 24 l 674 126 l 375 126 l 342 35 q 326 12 338 24 q 288 0 315 0 l 31 0 m 451 883 q 438 884 443 885 q 429 876 433 883 q 435 850 424 861 q 449 840 443 843 q 464 843 454 838 q 474 853 474 847 q 472 871 474 860 q 466 881 471 879 q 451 883 461 882 m 599 846 q 583 864 592 861 q 560 865 575 867 q 531 862 542 864 q 517 842 521 860 q 515 810 511 821 q 538 789 519 800 q 567 778 556 778 q 596 793 579 779 q 608 817 610 806 q 599 846 606 828 m 353 836 q 338 841 344 843 q 324 832 332 839 q 317 808 311 824 q 322 792 319 797 q 336 786 325 786 q 354 790 349 786 q 364 804 360 793 q 365 823 368 817 q 353 836 363 829 m 490 768 q 483 764 483 768 q 479 753 482 760 q 475 744 476 747 q 478 736 474 740 q 497 735 486 728 q 506 751 508 740 q 490 768 501 767 m 713 711 q 703 723 708 721 q 688 724 699 725 q 669 721 676 722 q 660 708 663 719 q 664 692 658 696 q 679 682 669 688 q 695 674 689 676 q 710 679 701 672 q 718 694 718 688 q 713 711 718 700 m 318 696 q 301 704 308 704 q 283 697 294 704 q 265 684 271 690 q 264 664 260 678 q 273 643 267 649 q 296 636 279 638 q 315 641 310 635 q 326 660 321 647 q 331 679 332 672 q 318 696 329 686 m 446 397 l 603 397 l 524 656 l 446 397 m 728 601 q 710 606 717 606 q 696 596 703 606 q 690 580 689 586 q 699 564 692 574 q 712 545 707 551 q 731 543 717 539 q 747 555 744 547 q 749 578 749 563 q 744 593 749 589 q 728 601 739 597 m 372 536 q 356 553 364 550 q 332 551 347 556 q 313 542 317 549 q 308 519 310 535 q 313 503 307 507 q 329 494 318 499 q 353 481 344 488 q 374 486 361 474 q 384 510 386 500 q 372 536 382 519 m 703 500 q 689 499 693 504 q 678 486 685 493 q 669 476 671 479 q 671 464 667 472 q 692 451 678 450 q 703 457 701 453 q 707 471 706 461 q 710 488 708 482 q 703 500 713 494 m 799 474 l 785 468 l 778 457 l 790 449 l 800 458 l 799 474 m 789 394 q 783 413 785 406 q 769 421 781 419 q 754 415 757 422 q 747 397 751 408 q 753 374 742 383 q 769 356 764 364 q 788 356 775 349 q 796 372 800 364 q 789 394 792 381 m 700 419 l 688 410 l 689 397 l 703 393 l 707 406 l 700 419 m 853 379 q 835 381 842 388 q 824 372 828 376 q 824 361 821 368 q 831 353 826 353 q 844 353 836 353 q 860 353 854 353 q 867 361 865 353 q 865 372 869 369 q 853 379 860 375 m 394 329 q 386 346 390 342 q 369 350 382 350 q 344 348 353 349 q 331 332 335 347 q 328 304 325 314 q 347 283 331 294 q 368 283 361 275 q 388 300 375 290 q 397 313 396 307 q 394 329 399 319 m 600 332 q 578 331 588 339 q 575 310 569 322 q 581 304 578 304 q 592 304 585 304 q 606 314 604 306 q 600 332 608 328 m 696 319 q 685 327 689 324 q 676 326 682 331 q 671 317 669 321 q 675 304 672 313 q 689 292 679 292 q 698 295 696 292 q 703 306 700 299 q 696 319 704 313 m 490 299 l 483 311 l 467 306 l 469 286 l 488 281 l 490 299 m 274 282 q 259 298 264 292 q 242 299 254 304 q 226 285 229 292 q 225 263 224 278 q 231 240 228 247 q 250 229 235 233 q 276 228 267 226 q 294 246 286 231 q 293 265 303 260 q 274 282 283 271 m 789 263 q 782 277 785 272 q 769 282 779 282 q 756 276 758 281 q 750 261 753 271 q 751 249 749 253 q 761 240 754 244 q 774 233 769 235 q 788 236 779 231 q 794 249 794 243 q 789 263 793 254 m 583 257 l 576 269 l 567 260 l 567 250 l 579 244 l 583 257 m 354 232 q 338 238 344 240 q 321 229 332 236 q 312 218 313 224 q 314 203 311 213 q 333 188 317 189 q 350 188 344 188 q 360 199 356 189 q 364 217 364 211 q 354 232 364 224 m 869 183 q 848 186 856 188 q 833 172 840 185 q 818 148 824 157 q 825 125 813 139 q 847 113 836 110 q 874 122 857 115 q 901 133 892 129 q 910 157 911 138 q 897 177 908 175 q 869 183 886 179 m 257 131 q 237 149 249 150 q 204 147 225 149 q 169 145 182 146 q 150 122 156 144 q 153 90 144 100 q 181 67 161 79 q 217 47 204 53 q 250 60 231 42 q 269 91 271 76 q 257 131 267 106 m 625 1042 q 602 1051 611 1042 q 593 1074 593 1060 l 593 1246 q 602 1269 593 1260 q 625 1278 611 1278 l 797 1278 q 820 1269 811 1278 q 829 1246 829 1260 l 829 1074 q 820 1051 829 1060 q 797 1042 811 1042 l 625 1042 m 251 1042 q 228 1051 238 1042 q 219 1074 219 1060 l 219 1246 q 228 1269 219 1260 q 251 1278 238 1278 l 424 1278 q 447 1269 438 1278 q 456 1246 456 1260 l 456 1074 q 447 1051 456 1060 q 424 1042 438 1042 l 251 1042 m 794 1253 l 778 1261 l 774 1242 l 786 1228 l 806 1238 l 794 1253 m 319 1233 q 283 1233 294 1239 q 257 1207 271 1228 q 252 1176 246 1186 q 274 1149 258 1165 q 296 1135 286 1135 q 322 1142 306 1135 q 341 1157 338 1149 q 343 1182 344 1165 q 340 1216 340 1203 q 319 1233 340 1229 m 638 1104 l 624 1114 l 610 1100 l 624 1088 l 643 1086 l 638 1104 m 718 1092 q 699 1097 710 1101 q 686 1079 686 1092 q 701 1064 686 1068 q 718 1072 711 1061 q 718 1092 725 1083 z "},"À":{"ha":1049,"x_min":0,"x_max":1049,"o":"m 31 0 q 9 9 18 0 q 0 31 0 18 q 1 40 0 36 l 311 926 q 331 957 315 942 q 374 972 346 972 l 675 972 q 718 957 703 972 q 738 926 733 942 l 1047 40 q 1049 31 1049 36 q 1040 9 1049 18 q 1018 0 1031 0 l 761 0 q 723 12 735 0 q 707 35 711 24 l 674 126 l 375 126 l 342 35 q 326 12 338 24 q 288 0 315 0 l 31 0 m 451 883 q 438 884 443 885 q 429 876 433 883 q 435 850 424 861 q 449 840 443 843 q 464 843 454 838 q 474 853 474 847 q 472 871 474 860 q 466 881 471 879 q 451 883 461 882 m 599 846 q 583 864 592 861 q 560 865 575 867 q 531 862 542 864 q 517 842 521 860 q 515 810 511 821 q 538 789 519 800 q 567 778 556 778 q 596 793 579 779 q 608 817 610 806 q 599 846 606 828 m 353 836 q 338 841 344 843 q 324 832 332 839 q 317 808 311 824 q 322 792 319 797 q 336 786 325 786 q 354 790 349 786 q 364 804 360 793 q 365 823 368 817 q 353 836 363 829 m 490 768 q 483 764 483 768 q 479 753 482 760 q 475 744 476 747 q 478 736 474 740 q 497 735 486 728 q 506 751 508 740 q 490 768 501 767 m 713 711 q 703 723 708 721 q 688 724 699 725 q 669 721 676 722 q 660 708 663 719 q 664 692 658 696 q 679 682 669 688 q 695 674 689 676 q 710 679 701 672 q 718 694 718 688 q 713 711 718 700 m 318 696 q 301 704 308 704 q 283 697 294 704 q 265 684 271 690 q 264 664 260 678 q 273 643 267 649 q 296 636 279 638 q 315 641 310 635 q 326 660 321 647 q 331 679 332 672 q 318 696 329 686 m 446 397 l 603 397 l 524 656 l 446 397 m 728 601 q 710 606 717 606 q 696 596 703 606 q 690 580 689 586 q 699 564 692 574 q 712 545 707 551 q 731 543 717 539 q 747 555 744 547 q 749 578 749 563 q 744 593 749 589 q 728 601 739 597 m 372 536 q 356 553 364 550 q 332 551 347 556 q 313 542 317 549 q 308 519 310 535 q 313 503 307 507 q 329 494 318 499 q 353 481 344 488 q 374 486 361 474 q 384 510 386 500 q 372 536 382 519 m 703 500 q 689 499 693 504 q 678 486 685 493 q 669 476 671 479 q 671 464 667 472 q 692 451 678 450 q 703 457 701 453 q 707 471 706 461 q 710 488 708 482 q 703 500 713 494 m 799 474 l 785 468 l 778 457 l 790 449 l 800 458 l 799 474 m 789 394 q 783 413 785 406 q 769 421 781 419 q 754 415 757 422 q 747 397 751 408 q 753 374 742 383 q 769 356 764 364 q 788 356 775 349 q 796 372 800 364 q 789 394 792 381 m 700 419 l 688 410 l 689 397 l 703 393 l 707 406 l 700 419 m 853 379 q 835 381 842 388 q 824 372 828 376 q 824 361 821 368 q 831 353 826 353 q 844 353 836 353 q 860 353 854 353 q 867 361 865 353 q 865 372 869 369 q 853 379 860 375 m 394 329 q 386 346 390 342 q 369 350 382 350 q 344 348 353 349 q 331 332 335 347 q 328 304 325 314 q 347 283 331 294 q 368 283 361 275 q 388 300 375 290 q 397 313 396 307 q 394 329 399 319 m 600 332 q 578 331 588 339 q 575 310 569 322 q 581 304 578 304 q 592 304 585 304 q 606 314 604 306 q 600 332 608 328 m 696 319 q 685 327 689 324 q 676 326 682 331 q 671 317 669 321 q 675 304 672 313 q 689 292 679 292 q 698 295 696 292 q 703 306 700 299 q 696 319 704 313 m 490 299 l 483 311 l 467 306 l 469 286 l 488 281 l 490 299 m 274 282 q 259 298 264 292 q 242 299 254 304 q 226 285 229 292 q 225 263 224 278 q 231 240 228 247 q 250 229 235 233 q 276 228 267 226 q 294 246 286 231 q 293 265 303 260 q 274 282 283 271 m 789 263 q 782 277 785 272 q 769 282 779 282 q 756 276 758 281 q 750 261 753 271 q 751 249 749 253 q 761 240 754 244 q 774 233 769 235 q 788 236 779 231 q 794 249 794 243 q 789 263 793 254 m 583 257 l 576 269 l 567 260 l 567 250 l 579 244 l 583 257 m 354 232 q 338 238 344 240 q 321 229 332 236 q 312 218 313 224 q 314 203 311 213 q 333 188 317 189 q 350 188 344 188 q 360 199 356 189 q 364 217 364 211 q 354 232 364 224 m 869 183 q 848 186 856 188 q 833 172 840 185 q 818 148 824 157 q 825 125 813 139 q 847 113 836 110 q 874 122 857 115 q 901 133 892 129 q 910 157 911 138 q 897 177 908 175 q 869 183 886 179 m 257 131 q 237 149 249 150 q 204 147 225 149 q 169 145 182 146 q 150 122 156 144 q 153 90 144 100 q 181 67 161 79 q 217 47 204 53 q 250 60 231 42 q 269 91 271 76 q 257 131 267 106 m 449 1042 q 414 1049 426 1042 q 390 1065 401 1056 l 186 1233 q 179 1250 179 1240 q 206 1278 179 1278 l 478 1278 q 503 1274 493 1278 q 529 1251 514 1269 l 668 1082 q 675 1064 675 1075 q 653 1042 675 1042 l 449 1042 m 465 1256 q 445 1265 453 1264 q 425 1257 438 1265 q 414 1241 414 1249 q 418 1221 414 1233 q 428 1208 422 1210 q 446 1207 435 1207 q 467 1206 458 1207 q 479 1218 475 1206 q 480 1239 483 1232 q 465 1256 476 1246 m 532 1211 q 521 1218 525 1217 q 510 1214 517 1219 q 505 1206 503 1210 q 508 1194 507 1201 q 512 1182 511 1186 q 521 1178 513 1178 q 530 1181 528 1178 q 535 1192 532 1185 q 532 1211 540 1206 z "},"Ā":{"ha":1049,"x_min":0,"x_max":1049,"o":"m 31 0 q 9 9 18 0 q 0 31 0 18 q 1 40 0 36 l 311 926 q 331 957 315 942 q 374 972 346 972 l 675 972 q 718 957 703 972 q 738 926 733 942 l 1047 40 q 1049 31 1049 36 q 1040 9 1049 18 q 1018 0 1031 0 l 761 0 q 723 12 735 0 q 707 35 711 24 l 674 126 l 375 126 l 342 35 q 326 12 338 24 q 288 0 315 0 l 31 0 m 451 883 q 438 884 443 885 q 429 876 433 883 q 435 850 424 861 q 449 840 443 843 q 464 843 454 838 q 474 853 474 847 q 472 871 474 860 q 466 881 471 879 q 451 883 461 882 m 599 846 q 583 864 592 861 q 560 865 575 867 q 531 862 542 864 q 517 842 521 860 q 515 810 511 821 q 538 789 519 800 q 567 778 556 778 q 596 793 579 779 q 608 817 610 806 q 599 846 606 828 m 353 836 q 338 841 344 843 q 324 832 332 839 q 317 808 311 824 q 322 792 319 797 q 336 786 325 786 q 354 790 349 786 q 364 804 360 793 q 365 823 368 817 q 353 836 363 829 m 490 768 q 483 764 483 768 q 479 753 482 760 q 475 744 476 747 q 478 736 474 740 q 497 735 486 728 q 506 751 508 740 q 490 768 501 767 m 713 711 q 703 723 708 721 q 688 724 699 725 q 669 721 676 722 q 660 708 663 719 q 664 692 658 696 q 679 682 669 688 q 695 674 689 676 q 710 679 701 672 q 718 694 718 688 q 713 711 718 700 m 318 696 q 301 704 308 704 q 283 697 294 704 q 265 684 271 690 q 264 664 260 678 q 273 643 267 649 q 296 636 279 638 q 315 641 310 635 q 326 660 321 647 q 331 679 332 672 q 318 696 329 686 m 446 397 l 603 397 l 524 656 l 446 397 m 728 601 q 710 606 717 606 q 696 596 703 606 q 690 580 689 586 q 699 564 692 574 q 712 545 707 551 q 731 543 717 539 q 747 555 744 547 q 749 578 749 563 q 744 593 749 589 q 728 601 739 597 m 372 536 q 356 553 364 550 q 332 551 347 556 q 313 542 317 549 q 308 519 310 535 q 313 503 307 507 q 329 494 318 499 q 353 481 344 488 q 374 486 361 474 q 384 510 386 500 q 372 536 382 519 m 703 500 q 689 499 693 504 q 678 486 685 493 q 669 476 671 479 q 671 464 667 472 q 692 451 678 450 q 703 457 701 453 q 707 471 706 461 q 710 488 708 482 q 703 500 713 494 m 799 474 l 785 468 l 778 457 l 790 449 l 800 458 l 799 474 m 789 394 q 783 413 785 406 q 769 421 781 419 q 754 415 757 422 q 747 397 751 408 q 753 374 742 383 q 769 356 764 364 q 788 356 775 349 q 796 372 800 364 q 789 394 792 381 m 700 419 l 688 410 l 689 397 l 703 393 l 707 406 l 700 419 m 853 379 q 835 381 842 388 q 824 372 828 376 q 824 361 821 368 q 831 353 826 353 q 844 353 836 353 q 860 353 854 353 q 867 361 865 353 q 865 372 869 369 q 853 379 860 375 m 394 329 q 386 346 390 342 q 369 350 382 350 q 344 348 353 349 q 331 332 335 347 q 328 304 325 314 q 347 283 331 294 q 368 283 361 275 q 388 300 375 290 q 397 313 396 307 q 394 329 399 319 m 600 332 q 578 331 588 339 q 575 310 569 322 q 581 304 578 304 q 592 304 585 304 q 606 314 604 306 q 600 332 608 328 m 696 319 q 685 327 689 324 q 676 326 682 331 q 671 317 669 321 q 675 304 672 313 q 689 292 679 292 q 698 295 696 292 q 703 306 700 299 q 696 319 704 313 m 490 299 l 483 311 l 467 306 l 469 286 l 488 281 l 490 299 m 274 282 q 259 298 264 292 q 242 299 254 304 q 226 285 229 292 q 225 263 224 278 q 231 240 228 247 q 250 229 235 233 q 276 228 267 226 q 294 246 286 231 q 293 265 303 260 q 274 282 283 271 m 789 263 q 782 277 785 272 q 769 282 779 282 q 756 276 758 281 q 750 261 753 271 q 751 249 749 253 q 761 240 754 244 q 774 233 769 235 q 788 236 779 231 q 794 249 794 243 q 789 263 793 254 m 583 257 l 576 269 l 567 260 l 567 250 l 579 244 l 583 257 m 354 232 q 338 238 344 240 q 321 229 332 236 q 312 218 313 224 q 314 203 311 213 q 333 188 317 189 q 350 188 344 188 q 360 199 356 189 q 364 217 364 211 q 354 232 364 224 m 869 183 q 848 186 856 188 q 833 172 840 185 q 818 148 824 157 q 825 125 813 139 q 847 113 836 110 q 874 122 857 115 q 901 133 892 129 q 910 157 911 138 q 897 177 908 175 q 869 183 886 179 m 257 131 q 237 149 249 150 q 204 147 225 149 q 169 145 182 146 q 150 122 156 144 q 153 90 144 100 q 181 67 161 79 q 217 47 204 53 q 250 60 231 42 q 269 91 271 76 q 257 131 267 106 m 263 1042 q 240 1051 249 1042 q 231 1074 231 1060 l 231 1218 q 240 1241 231 1232 q 263 1250 249 1250 l 786 1250 q 809 1241 800 1250 q 818 1218 818 1232 l 818 1074 q 809 1051 818 1060 q 786 1042 800 1042 l 263 1042 m 582 1213 l 572 1228 l 557 1218 l 557 1200 l 576 1196 l 582 1213 m 756 1190 l 740 1193 l 743 1178 l 753 1167 l 761 1181 l 756 1190 m 518 1161 l 506 1154 l 503 1139 l 519 1132 l 524 1147 l 518 1161 m 281 1151 l 265 1150 l 263 1136 l 274 1132 l 285 1138 l 281 1151 m 799 1114 l 782 1107 l 788 1099 l 800 1101 l 799 1114 m 614 1100 q 600 1110 611 1110 q 588 1100 592 1110 q 593 1086 585 1092 q 602 1079 599 1082 q 611 1081 606 1076 q 617 1089 618 1085 q 614 1100 617 1093 z "},"Ą":{"ha":1049,"x_min":0,"x_max":1049,"o":"m 978 -306 q 842 -274 894 -306 q 764 -187 789 -242 q 739 -68 739 -133 q 741 -32 739 -49 q 746 0 743 -15 q 719 14 728 3 q 707 35 710 25 l 674 126 l 375 126 l 342 35 q 326 12 338 24 q 288 0 315 0 l 31 0 q 9 9 18 0 q 0 31 0 18 q 1 40 0 36 l 311 926 q 331 957 315 942 q 374 972 346 972 l 675 972 q 718 957 703 972 q 738 926 733 942 l 1047 40 q 1049 31 1049 36 q 1040 9 1049 18 q 1018 0 1031 0 l 975 0 q 927 -24 940 -1 q 914 -68 914 -47 q 928 -113 914 -90 q 983 -136 943 -136 l 997 -136 q 1024 -147 1013 -136 q 1035 -174 1035 -158 l 1035 -268 q 1024 -294 1035 -283 q 997 -306 1013 -306 l 978 -306 m 418 893 q 390 907 410 910 q 373 901 378 904 q 365 885 368 897 q 366 865 364 872 q 381 853 368 858 q 396 851 390 846 q 410 865 401 856 q 420 878 418 872 q 418 893 422 883 m 572 833 l 561 836 l 556 828 l 558 817 l 568 824 l 572 833 m 438 803 q 417 813 432 814 q 408 808 410 811 q 406 797 407 804 q 402 783 404 789 q 408 774 400 778 q 435 778 422 767 q 441 790 442 785 q 438 803 440 794 m 488 731 q 463 724 474 736 q 459 714 457 718 q 465 703 461 710 q 481 697 469 696 q 492 708 490 700 q 494 722 493 717 q 488 731 494 726 m 674 725 q 654 715 658 726 q 649 701 650 707 q 656 689 647 696 q 670 678 664 681 q 688 683 676 676 q 697 696 697 689 q 696 714 697 703 q 688 723 693 722 q 674 725 683 724 m 313 713 l 301 707 l 296 696 l 315 700 l 313 713 m 654 646 q 649 658 651 654 q 638 664 646 663 q 626 661 628 665 q 619 649 624 657 q 614 635 615 640 q 619 624 613 631 q 647 621 632 613 q 655 631 654 626 q 654 646 656 636 m 446 397 l 603 397 l 524 656 l 446 397 m 619 597 l 604 586 l 596 569 l 617 560 l 631 578 l 619 597 m 338 471 q 333 490 333 482 q 321 499 333 499 q 303 492 307 499 q 294 474 299 486 q 291 453 290 460 q 304 438 292 446 q 319 437 314 431 q 333 451 324 443 q 338 471 343 458 m 697 479 q 683 479 688 482 q 672 469 678 476 q 660 455 664 460 q 663 440 657 450 q 675 433 668 431 q 692 438 682 435 q 705 442 700 440 q 710 454 710 444 q 708 469 710 464 q 697 479 707 475 m 778 399 q 770 414 772 408 q 757 418 768 419 q 747 410 747 417 q 744 393 746 403 q 753 375 742 379 q 767 367 761 369 q 779 371 772 364 q 784 383 786 378 q 778 399 782 389 m 285 393 q 253 410 265 404 q 225 399 242 415 q 207 369 207 382 q 218 333 207 356 q 239 303 229 311 q 274 299 249 296 q 301 315 296 303 q 310 349 307 326 q 308 376 314 368 q 285 393 301 385 m 693 351 q 678 363 690 361 q 664 353 668 364 q 668 338 660 344 q 683 335 676 331 q 693 351 694 342 m 472 338 q 470 350 472 346 q 460 357 468 354 q 447 356 451 358 q 439 346 443 353 q 433 333 435 338 q 438 322 432 329 q 448 315 443 315 q 461 318 453 315 q 472 338 474 322 m 614 322 l 597 321 l 600 307 l 610 303 l 617 310 l 614 322 m 688 300 q 667 296 672 306 q 653 272 663 286 q 634 251 642 258 q 636 231 626 243 q 658 211 649 214 q 688 215 668 208 q 706 230 704 221 q 708 257 708 239 q 707 285 708 275 q 688 300 706 294 m 888 300 l 875 294 l 876 279 l 893 278 l 894 290 l 888 300 m 450 269 q 434 268 439 271 q 424 254 429 265 q 418 238 418 244 q 426 224 418 232 q 440 217 433 215 q 456 225 446 219 q 470 233 465 229 q 474 247 475 236 q 467 263 472 258 q 450 269 463 267 m 585 264 q 568 269 575 272 q 549 257 561 265 q 540 231 535 249 q 544 207 543 215 q 561 197 546 199 q 581 203 576 196 q 592 225 586 210 q 597 247 597 239 q 585 264 597 254 m 214 242 q 181 249 193 251 q 154 229 169 246 q 140 200 140 213 q 151 168 140 188 q 174 140 164 149 q 207 138 185 132 q 235 155 231 143 q 242 190 239 167 q 239 223 243 213 q 214 242 235 233 m 806 168 q 781 166 789 169 q 765 146 772 163 q 747 111 754 124 q 757 82 739 99 q 789 69 775 64 q 825 86 803 74 q 858 108 847 99 q 863 142 868 117 q 844 165 858 164 q 806 168 829 165 m 982 94 q 965 98 971 103 q 946 86 958 93 q 934 74 938 79 q 935 57 931 68 q 943 38 939 44 q 961 32 947 32 q 975 40 974 32 q 981 58 976 47 q 989 79 985 72 q 982 94 993 86 m 93 67 l 82 78 l 74 65 l 78 53 l 92 53 l 93 67 m 813 -14 q 794 -10 803 -4 q 784 -17 788 -14 q 782 -28 781 -19 q 788 -35 783 -36 q 801 -36 793 -35 q 812 -36 808 -36 q 818 -31 815 -36 q 813 -14 822 -22 m 854 -115 q 842 -112 847 -110 q 829 -119 838 -114 q 817 -128 821 -125 q 815 -142 813 -132 q 838 -160 819 -160 q 851 -156 849 -160 q 857 -142 854 -151 q 862 -126 861 -132 q 854 -115 863 -121 z "},"Å":{"ha":1049,"x_min":0,"x_max":1049,"o":"m 31 0 q 9 9 18 0 q 0 31 0 18 q 1 40 0 36 l 311 926 q 331 957 315 942 q 374 972 346 972 l 675 972 q 718 957 703 972 q 738 926 733 942 l 1047 40 q 1049 31 1049 36 q 1040 9 1049 18 q 1018 0 1031 0 l 761 0 q 723 12 735 0 q 707 35 711 24 l 674 126 l 375 126 l 342 35 q 326 12 338 24 q 288 0 315 0 l 31 0 m 451 883 q 438 884 443 885 q 429 876 433 883 q 435 850 424 861 q 449 840 443 843 q 464 843 454 838 q 474 853 474 847 q 472 871 474 860 q 466 881 471 879 q 451 883 461 882 m 599 846 q 583 864 592 861 q 560 865 575 867 q 531 862 542 864 q 517 842 521 860 q 515 810 511 821 q 538 789 519 800 q 567 778 556 778 q 596 793 579 779 q 608 817 610 806 q 599 846 606 828 m 353 836 q 338 841 344 843 q 324 832 332 839 q 317 808 311 824 q 322 792 319 797 q 336 786 325 786 q 354 790 349 786 q 364 804 360 793 q 365 823 368 817 q 353 836 363 829 m 490 768 q 483 764 483 768 q 479 753 482 760 q 475 744 476 747 q 478 736 474 740 q 497 735 486 728 q 506 751 508 740 q 490 768 501 767 m 713 711 q 703 723 708 721 q 688 724 699 725 q 669 721 676 722 q 660 708 663 719 q 664 692 658 696 q 679 682 669 688 q 695 674 689 676 q 710 679 701 672 q 718 694 718 688 q 713 711 718 700 m 318 696 q 301 704 308 704 q 283 697 294 704 q 265 684 271 690 q 264 664 260 678 q 273 643 267 649 q 296 636 279 638 q 315 641 310 635 q 326 660 321 647 q 331 679 332 672 q 318 696 329 686 m 446 397 l 603 397 l 524 656 l 446 397 m 728 601 q 710 606 717 606 q 696 596 703 606 q 690 580 689 586 q 699 564 692 574 q 712 545 707 551 q 731 543 717 539 q 747 555 744 547 q 749 578 749 563 q 744 593 749 589 q 728 601 739 597 m 372 536 q 356 553 364 550 q 332 551 347 556 q 313 542 317 549 q 308 519 310 535 q 313 503 307 507 q 329 494 318 499 q 353 481 344 488 q 374 486 361 474 q 384 510 386 500 q 372 536 382 519 m 703 500 q 689 499 693 504 q 678 486 685 493 q 669 476 671 479 q 671 464 667 472 q 692 451 678 450 q 703 457 701 453 q 707 471 706 461 q 710 488 708 482 q 703 500 713 494 m 799 474 l 785 468 l 778 457 l 790 449 l 800 458 l 799 474 m 789 394 q 783 413 785 406 q 769 421 781 419 q 754 415 757 422 q 747 397 751 408 q 753 374 742 383 q 769 356 764 364 q 788 356 775 349 q 796 372 800 364 q 789 394 792 381 m 700 419 l 688 410 l 689 397 l 703 393 l 707 406 l 700 419 m 853 379 q 835 381 842 388 q 824 372 828 376 q 824 361 821 368 q 831 353 826 353 q 844 353 836 353 q 860 353 854 353 q 867 361 865 353 q 865 372 869 369 q 853 379 860 375 m 394 329 q 386 346 390 342 q 369 350 382 350 q 344 348 353 349 q 331 332 335 347 q 328 304 325 314 q 347 283 331 294 q 368 283 361 275 q 388 300 375 290 q 397 313 396 307 q 394 329 399 319 m 600 332 q 578 331 588 339 q 575 310 569 322 q 581 304 578 304 q 592 304 585 304 q 606 314 604 306 q 600 332 608 328 m 696 319 q 685 327 689 324 q 676 326 682 331 q 671 317 669 321 q 675 304 672 313 q 689 292 679 292 q 698 295 696 292 q 703 306 700 299 q 696 319 704 313 m 490 299 l 483 311 l 467 306 l 469 286 l 488 281 l 490 299 m 274 282 q 259 298 264 292 q 242 299 254 304 q 226 285 229 292 q 225 263 224 278 q 231 240 228 247 q 250 229 235 233 q 276 228 267 226 q 294 246 286 231 q 293 265 303 260 q 274 282 283 271 m 789 263 q 782 277 785 272 q 769 282 779 282 q 756 276 758 281 q 750 261 753 271 q 751 249 749 253 q 761 240 754 244 q 774 233 769 235 q 788 236 779 231 q 794 249 794 243 q 789 263 793 254 m 583 257 l 576 269 l 567 260 l 567 250 l 579 244 l 583 257 m 354 232 q 338 238 344 240 q 321 229 332 236 q 312 218 313 224 q 314 203 311 213 q 333 188 317 189 q 350 188 344 188 q 360 199 356 189 q 364 217 364 211 q 354 232 364 224 m 869 183 q 848 186 856 188 q 833 172 840 185 q 818 148 824 157 q 825 125 813 139 q 847 113 836 110 q 874 122 857 115 q 901 133 892 129 q 910 157 911 138 q 897 177 908 175 q 869 183 886 179 m 257 131 q 237 149 249 150 q 204 147 225 149 q 169 145 182 146 q 150 122 156 144 q 153 90 144 100 q 181 67 161 79 q 217 47 204 53 q 250 60 231 42 q 269 91 271 76 q 257 131 267 106 m 525 1028 q 427 1065 468 1028 q 386 1160 386 1103 q 427 1254 386 1217 q 525 1292 468 1292 q 623 1254 582 1292 q 664 1160 664 1217 q 623 1065 664 1103 q 525 1028 582 1028 m 582 1243 l 569 1249 l 560 1242 l 560 1226 l 579 1225 l 582 1243 m 525 1118 q 555 1130 543 1118 q 567 1160 567 1142 q 555 1190 567 1178 q 525 1201 543 1201 q 495 1190 507 1201 q 483 1160 483 1178 q 495 1130 483 1142 q 525 1118 507 1118 m 590 1092 q 575 1089 581 1096 q 571 1072 567 1081 q 578 1060 575 1064 q 589 1058 581 1057 q 599 1065 597 1061 q 603 1078 601 1068 q 600 1087 603 1085 q 590 1092 597 1089 z "},"Ã":{"ha":1049,"x_min":0,"x_max":1049,"o":"m 31 0 q 9 9 18 0 q 0 31 0 18 q 1 40 0 36 l 311 926 q 331 957 315 942 q 374 972 346 972 l 675 972 q 718 957 703 972 q 738 926 733 942 l 1047 40 q 1049 31 1049 36 q 1040 9 1049 18 q 1018 0 1031 0 l 761 0 q 723 12 735 0 q 707 35 711 24 l 674 126 l 375 126 l 342 35 q 326 12 338 24 q 288 0 315 0 l 31 0 m 451 883 q 438 884 443 885 q 429 876 433 883 q 435 850 424 861 q 449 840 443 843 q 464 843 454 838 q 474 853 474 847 q 472 871 474 860 q 466 881 471 879 q 451 883 461 882 m 599 846 q 583 864 592 861 q 560 865 575 867 q 531 862 542 864 q 517 842 521 860 q 515 810 511 821 q 538 789 519 800 q 567 778 556 778 q 596 793 579 779 q 608 817 610 806 q 599 846 606 828 m 353 836 q 338 841 344 843 q 324 832 332 839 q 317 808 311 824 q 322 792 319 797 q 336 786 325 786 q 354 790 349 786 q 364 804 360 793 q 365 823 368 817 q 353 836 363 829 m 490 768 q 483 764 483 768 q 479 753 482 760 q 475 744 476 747 q 478 736 474 740 q 497 735 486 728 q 506 751 508 740 q 490 768 501 767 m 713 711 q 703 723 708 721 q 688 724 699 725 q 669 721 676 722 q 660 708 663 719 q 664 692 658 696 q 679 682 669 688 q 695 674 689 676 q 710 679 701 672 q 718 694 718 688 q 713 711 718 700 m 318 696 q 301 704 308 704 q 283 697 294 704 q 265 684 271 690 q 264 664 260 678 q 273 643 267 649 q 296 636 279 638 q 315 641 310 635 q 326 660 321 647 q 331 679 332 672 q 318 696 329 686 m 446 397 l 603 397 l 524 656 l 446 397 m 728 601 q 710 606 717 606 q 696 596 703 606 q 690 580 689 586 q 699 564 692 574 q 712 545 707 551 q 731 543 717 539 q 747 555 744 547 q 749 578 749 563 q 744 593 749 589 q 728 601 739 597 m 372 536 q 356 553 364 550 q 332 551 347 556 q 313 542 317 549 q 308 519 310 535 q 313 503 307 507 q 329 494 318 499 q 353 481 344 488 q 374 486 361 474 q 384 510 386 500 q 372 536 382 519 m 703 500 q 689 499 693 504 q 678 486 685 493 q 669 476 671 479 q 671 464 667 472 q 692 451 678 450 q 703 457 701 453 q 707 471 706 461 q 710 488 708 482 q 703 500 713 494 m 799 474 l 785 468 l 778 457 l 790 449 l 800 458 l 799 474 m 789 394 q 783 413 785 406 q 769 421 781 419 q 754 415 757 422 q 747 397 751 408 q 753 374 742 383 q 769 356 764 364 q 788 356 775 349 q 796 372 800 364 q 789 394 792 381 m 700 419 l 688 410 l 689 397 l 703 393 l 707 406 l 700 419 m 853 379 q 835 381 842 388 q 824 372 828 376 q 824 361 821 368 q 831 353 826 353 q 844 353 836 353 q 860 353 854 353 q 867 361 865 353 q 865 372 869 369 q 853 379 860 375 m 394 329 q 386 346 390 342 q 369 350 382 350 q 344 348 353 349 q 331 332 335 347 q 328 304 325 314 q 347 283 331 294 q 368 283 361 275 q 388 300 375 290 q 397 313 396 307 q 394 329 399 319 m 600 332 q 578 331 588 339 q 575 310 569 322 q 581 304 578 304 q 592 304 585 304 q 606 314 604 306 q 600 332 608 328 m 696 319 q 685 327 689 324 q 676 326 682 331 q 671 317 669 321 q 675 304 672 313 q 689 292 679 292 q 698 295 696 292 q 703 306 700 299 q 696 319 704 313 m 490 299 l 483 311 l 467 306 l 469 286 l 488 281 l 490 299 m 274 282 q 259 298 264 292 q 242 299 254 304 q 226 285 229 292 q 225 263 224 278 q 231 240 228 247 q 250 229 235 233 q 276 228 267 226 q 294 246 286 231 q 293 265 303 260 q 274 282 283 271 m 789 263 q 782 277 785 272 q 769 282 779 282 q 756 276 758 281 q 750 261 753 271 q 751 249 749 253 q 761 240 754 244 q 774 233 769 235 q 788 236 779 231 q 794 249 794 243 q 789 263 793 254 m 583 257 l 576 269 l 567 260 l 567 250 l 579 244 l 583 257 m 354 232 q 338 238 344 240 q 321 229 332 236 q 312 218 313 224 q 314 203 311 213 q 333 188 317 189 q 350 188 344 188 q 360 199 356 189 q 364 217 364 211 q 354 232 364 224 m 869 183 q 848 186 856 188 q 833 172 840 185 q 818 148 824 157 q 825 125 813 139 q 847 113 836 110 q 874 122 857 115 q 901 133 892 129 q 910 157 911 138 q 897 177 908 175 q 869 183 886 179 m 257 131 q 237 149 249 150 q 204 147 225 149 q 169 145 182 146 q 150 122 156 144 q 153 90 144 100 q 181 67 161 79 q 217 47 204 53 q 250 60 231 42 q 269 91 271 76 q 257 131 267 106 m 618 1035 q 550 1047 576 1035 q 503 1072 524 1060 q 454 1085 482 1085 q 424 1074 433 1085 q 407 1053 414 1064 q 385 1042 400 1042 l 268 1042 q 250 1049 258 1042 q 242 1067 242 1057 q 250 1127 242 1090 q 279 1200 258 1164 q 337 1260 300 1236 q 431 1285 374 1285 q 499 1272 472 1285 q 547 1247 525 1260 q 594 1235 568 1235 q 624 1246 615 1235 q 641 1267 633 1257 q 664 1278 649 1278 l 781 1278 q 800 1270 793 1278 q 807 1251 807 1263 q 799 1192 807 1228 q 769 1119 790 1156 q 712 1059 749 1083 q 618 1035 675 1035 m 676 1244 q 656 1246 668 1254 q 649 1239 649 1243 q 650 1228 649 1235 q 653 1217 651 1221 q 663 1213 656 1214 q 675 1213 671 1211 q 683 1222 679 1214 q 676 1244 689 1235 m 450 1217 q 432 1225 439 1226 q 413 1217 425 1224 q 399 1203 401 1210 q 401 1186 397 1197 q 408 1167 404 1172 q 425 1160 413 1161 q 442 1165 438 1158 q 451 1182 446 1171 q 458 1201 456 1194 q 450 1217 460 1208 m 599 1161 q 578 1163 585 1167 q 563 1147 572 1158 q 550 1127 554 1135 q 554 1107 546 1119 q 571 1099 563 1096 q 593 1106 579 1101 q 612 1112 606 1108 q 618 1128 618 1115 q 615 1150 618 1143 q 599 1161 613 1157 m 708 1142 q 697 1149 701 1146 q 686 1147 693 1153 q 679 1124 674 1140 q 697 1107 683 1108 q 707 1112 706 1107 q 711 1124 708 1117 q 708 1142 715 1135 z "},"Æ":{"ha":1396,"x_min":6,"x_max":1344,"o":"m 36 0 q 15 9 24 0 q 6 31 6 18 q 7 40 6 36 q 163 483 85 263 q 317 926 240 704 q 336 957 321 942 q 379 972 351 972 l 1296 972 q 1322 961 1311 972 q 1333 935 1333 950 l 1333 739 q 1322 713 1333 724 q 1296 701 1311 701 l 921 701 l 921 614 l 1265 614 q 1292 603 1281 614 q 1303 576 1303 592 l 1303 396 q 1292 369 1303 381 q 1265 358 1281 358 l 921 358 l 921 271 l 1307 271 q 1333 260 1322 271 q 1344 233 1344 249 l 1344 38 q 1333 11 1344 22 q 1307 0 1322 0 l 625 0 q 599 11 610 0 q 588 38 588 22 l 588 126 l 381 126 q 364 81 372 104 q 347 35 356 58 q 332 12 343 24 q 293 0 321 0 l 36 0 m 1236 894 q 1219 921 1225 911 q 1193 924 1213 931 q 1165 908 1172 918 q 1158 876 1158 899 q 1167 849 1158 856 q 1194 835 1175 842 q 1216 837 1210 829 q 1232 857 1222 844 q 1242 876 1240 869 q 1236 894 1244 883 m 611 872 q 592 906 603 897 q 556 914 582 914 q 525 903 532 914 q 511 868 518 892 q 507 836 504 847 q 528 813 510 825 q 558 799 546 799 q 588 813 569 800 q 613 839 607 828 q 611 872 618 850 m 1007 907 q 977 906 986 915 q 953 878 968 896 q 942 856 942 865 q 953 832 943 846 q 970 809 963 815 q 996 807 978 803 q 1035 817 1021 813 q 1051 847 1050 821 q 1043 885 1053 875 q 1007 907 1033 896 m 861 851 q 842 858 854 861 q 829 853 833 856 q 825 843 825 851 q 827 827 825 832 q 838 819 829 822 q 849 821 846 817 q 858 832 853 825 q 861 851 867 843 m 354 807 q 336 817 343 813 q 321 813 329 821 q 316 797 311 803 q 325 779 321 790 q 333 767 329 771 q 346 765 336 764 q 365 783 361 768 q 354 807 368 799 m 699 789 q 674 793 683 796 q 654 776 665 790 q 644 757 643 765 q 654 735 646 749 q 669 717 663 721 q 692 718 676 714 q 706 728 704 721 q 710 749 708 736 q 712 773 711 764 q 699 789 713 782 m 800 785 q 788 780 790 786 q 781 765 786 774 q 773 753 776 757 q 776 742 769 749 q 804 738 788 729 q 819 761 821 744 q 815 777 818 772 q 800 785 811 782 m 463 750 q 446 772 463 768 q 419 764 429 778 q 417 752 414 756 q 426 740 421 749 q 435 730 432 733 q 446 729 438 726 q 463 750 463 735 m 1228 756 l 1214 758 l 1201 750 l 1213 739 l 1224 742 l 1228 756 m 451 397 l 588 397 l 588 701 l 543 701 l 451 397 m 450 669 q 429 658 436 671 q 418 641 422 647 q 422 625 414 635 q 440 614 432 615 q 461 618 447 613 q 476 632 474 625 q 476 653 478 639 q 468 665 475 664 q 450 669 461 667 m 353 644 q 321 660 335 663 q 286 646 307 658 q 257 624 264 635 q 256 589 250 613 q 267 547 261 561 q 303 528 274 532 q 335 541 329 525 q 351 581 340 557 q 366 615 361 603 q 353 644 371 628 m 675 607 q 656 608 663 611 q 643 593 650 604 q 634 573 636 581 q 640 554 632 565 q 659 541 651 542 q 682 546 667 540 q 701 558 696 551 q 706 581 707 565 q 697 600 704 596 q 675 607 690 604 m 435 589 q 415 589 424 596 q 412 581 410 585 q 417 571 414 578 q 428 563 419 563 q 439 572 436 563 q 440 582 440 578 q 435 589 440 586 m 835 571 l 821 565 l 825 547 l 840 550 l 847 563 l 835 571 m 1153 535 q 1140 547 1146 543 q 1125 546 1135 550 q 1108 535 1113 540 q 1104 517 1103 531 q 1110 499 1106 504 q 1128 492 1115 494 q 1160 504 1149 486 q 1163 519 1165 514 q 1153 535 1160 525 m 942 510 q 940 527 942 521 q 926 538 939 533 q 910 538 915 542 q 897 525 904 535 q 884 507 889 514 q 888 488 879 500 q 906 471 897 474 q 931 472 914 468 q 943 487 944 478 q 942 510 942 496 m 1042 451 q 1021 471 1038 469 q 1010 466 1011 472 q 1006 451 1010 460 q 1001 441 1003 444 q 1006 432 1000 438 q 1018 423 1014 426 q 1031 424 1022 419 q 1042 451 1044 432 m 763 460 q 749 463 754 465 q 738 453 744 460 q 732 432 726 444 q 750 419 738 419 q 768 433 764 421 q 770 449 769 443 q 763 460 771 454 m 285 451 q 268 456 274 456 q 254 447 263 456 q 253 414 242 431 q 266 399 260 403 q 285 400 272 396 q 301 408 297 403 q 306 428 304 414 q 301 443 306 439 q 285 451 296 447 m 836 417 q 819 431 831 432 q 806 428 810 431 q 799 417 801 425 q 800 403 797 407 q 811 394 803 400 q 820 393 817 390 q 829 400 824 396 q 836 417 840 408 m 351 364 q 343 374 347 372 q 329 374 339 375 q 317 370 321 372 q 310 360 313 368 q 308 342 308 349 q 317 329 307 335 q 334 326 328 322 q 349 338 340 329 q 356 350 357 344 q 351 364 356 356 m 733 263 q 717 320 728 301 q 665 344 706 339 q 632 340 642 349 q 616 313 622 331 q 599 275 610 296 q 583 235 586 250 q 601 200 581 219 q 641 168 625 176 q 688 175 657 160 q 729 208 719 192 q 733 263 739 225 m 838 319 q 819 315 824 319 q 808 299 814 311 q 806 279 804 286 q 817 264 807 272 q 833 260 826 257 q 849 269 839 263 q 868 280 860 276 q 872 297 876 283 q 860 315 868 313 q 838 319 853 318 m 444 292 l 424 297 l 418 279 l 428 269 l 447 271 l 444 292 m 214 286 q 195 294 204 300 q 169 282 186 288 q 153 260 153 276 q 156 243 153 249 q 169 235 160 238 q 191 230 183 231 q 206 240 199 229 q 220 263 217 254 q 214 286 224 272 m 396 235 q 377 241 385 242 q 360 232 369 240 q 352 215 350 222 q 360 197 354 208 q 369 188 364 189 q 385 189 375 188 q 400 192 394 190 q 408 204 406 193 q 408 223 410 217 q 396 235 407 229 m 1082 235 l 1069 236 l 1071 224 l 1079 218 l 1088 225 l 1082 235 m 1147 228 q 1134 234 1139 232 q 1124 229 1129 236 q 1118 216 1117 221 q 1124 203 1119 211 q 1133 196 1129 196 q 1146 197 1138 196 q 1160 202 1154 200 q 1165 213 1165 204 q 1160 224 1165 222 q 1147 228 1156 225 m 1218 226 q 1203 229 1208 231 q 1192 221 1199 228 q 1189 196 1182 210 q 1197 184 1193 188 q 1211 182 1201 181 q 1231 201 1228 185 q 1218 226 1233 219 m 824 179 q 801 190 817 192 q 785 188 792 189 q 776 176 779 186 q 781 163 775 165 q 796 156 786 160 q 811 146 806 150 q 824 150 817 142 q 830 163 832 157 q 824 179 828 169 m 1135 154 l 1118 149 l 1118 132 l 1135 125 l 1142 140 l 1135 154 m 1018 121 q 1001 140 1010 136 q 976 140 993 144 q 952 131 958 138 q 943 106 946 124 q 942 72 942 83 q 963 50 942 60 q 995 46 983 42 q 1022 67 1007 50 q 1033 92 1036 82 q 1018 121 1029 103 m 756 122 l 746 125 l 736 117 l 749 111 l 763 111 l 756 122 m 1260 63 l 1244 69 l 1238 56 l 1244 46 l 1257 49 l 1260 63 z "},"Ǽ":{"ha":1396,"x_min":6,"x_max":1344,"o":"m 36 0 q 15 9 24 0 q 6 31 6 18 q 7 40 6 36 q 163 483 85 263 q 317 926 240 704 q 336 957 321 942 q 379 972 351 972 l 1296 972 q 1322 961 1311 972 q 1333 935 1333 950 l 1333 739 q 1322 713 1333 724 q 1296 701 1311 701 l 921 701 l 921 614 l 1265 614 q 1292 603 1281 614 q 1303 576 1303 592 l 1303 396 q 1292 369 1303 381 q 1265 358 1281 358 l 921 358 l 921 271 l 1307 271 q 1333 260 1322 271 q 1344 233 1344 249 l 1344 38 q 1333 11 1344 22 q 1307 0 1322 0 l 625 0 q 599 11 610 0 q 588 38 588 22 l 588 126 l 381 126 q 364 81 372 104 q 347 35 356 58 q 332 12 343 24 q 293 0 321 0 l 36 0 m 1236 894 q 1219 921 1225 911 q 1193 924 1213 931 q 1165 908 1172 918 q 1158 876 1158 899 q 1167 849 1158 856 q 1194 835 1175 842 q 1216 837 1210 829 q 1232 857 1222 844 q 1242 876 1240 869 q 1236 894 1244 883 m 611 872 q 592 906 603 897 q 556 914 582 914 q 525 903 532 914 q 511 868 518 892 q 507 836 504 847 q 528 813 510 825 q 558 799 546 799 q 588 813 569 800 q 613 839 607 828 q 611 872 618 850 m 1007 907 q 977 906 986 915 q 953 878 968 896 q 942 856 942 865 q 953 832 943 846 q 970 809 963 815 q 996 807 978 803 q 1035 817 1021 813 q 1051 847 1050 821 q 1043 885 1053 875 q 1007 907 1033 896 m 861 851 q 842 858 854 861 q 829 853 833 856 q 825 843 825 851 q 827 827 825 832 q 838 819 829 822 q 849 821 846 817 q 858 832 853 825 q 861 851 867 843 m 354 807 q 336 817 343 813 q 321 813 329 821 q 316 797 311 803 q 325 779 321 790 q 333 767 329 771 q 346 765 336 764 q 365 783 361 768 q 354 807 368 799 m 699 789 q 674 793 683 796 q 654 776 665 790 q 644 757 643 765 q 654 735 646 749 q 669 717 663 721 q 692 718 676 714 q 706 728 704 721 q 710 749 708 736 q 712 773 711 764 q 699 789 713 782 m 800 785 q 788 780 790 786 q 781 765 786 774 q 773 753 776 757 q 776 742 769 749 q 804 738 788 729 q 819 761 821 744 q 815 777 818 772 q 800 785 811 782 m 463 750 q 446 772 463 768 q 419 764 429 778 q 417 752 414 756 q 426 740 421 749 q 435 730 432 733 q 446 729 438 726 q 463 750 463 735 m 1228 756 l 1214 758 l 1201 750 l 1213 739 l 1224 742 l 1228 756 m 451 397 l 588 397 l 588 701 l 543 701 l 451 397 m 450 669 q 429 658 436 671 q 418 641 422 647 q 422 625 414 635 q 440 614 432 615 q 461 618 447 613 q 476 632 474 625 q 476 653 478 639 q 468 665 475 664 q 450 669 461 667 m 353 644 q 321 660 335 663 q 286 646 307 658 q 257 624 264 635 q 256 589 250 613 q 267 547 261 561 q 303 528 274 532 q 335 541 329 525 q 351 581 340 557 q 366 615 361 603 q 353 644 371 628 m 675 607 q 656 608 663 611 q 643 593 650 604 q 634 573 636 581 q 640 554 632 565 q 659 541 651 542 q 682 546 667 540 q 701 558 696 551 q 706 581 707 565 q 697 600 704 596 q 675 607 690 604 m 435 589 q 415 589 424 596 q 412 581 410 585 q 417 571 414 578 q 428 563 419 563 q 439 572 436 563 q 440 582 440 578 q 435 589 440 586 m 835 571 l 821 565 l 825 547 l 840 550 l 847 563 l 835 571 m 1153 535 q 1140 547 1146 543 q 1125 546 1135 550 q 1108 535 1113 540 q 1104 517 1103 531 q 1110 499 1106 504 q 1128 492 1115 494 q 1160 504 1149 486 q 1163 519 1165 514 q 1153 535 1160 525 m 942 510 q 940 527 942 521 q 926 538 939 533 q 910 538 915 542 q 897 525 904 535 q 884 507 889 514 q 888 488 879 500 q 906 471 897 474 q 931 472 914 468 q 943 487 944 478 q 942 510 942 496 m 1042 451 q 1021 471 1038 469 q 1010 466 1011 472 q 1006 451 1010 460 q 1001 441 1003 444 q 1006 432 1000 438 q 1018 423 1014 426 q 1031 424 1022 419 q 1042 451 1044 432 m 763 460 q 749 463 754 465 q 738 453 744 460 q 732 432 726 444 q 750 419 738 419 q 768 433 764 421 q 770 449 769 443 q 763 460 771 454 m 285 451 q 268 456 274 456 q 254 447 263 456 q 253 414 242 431 q 266 399 260 403 q 285 400 272 396 q 301 408 297 403 q 306 428 304 414 q 301 443 306 439 q 285 451 296 447 m 836 417 q 819 431 831 432 q 806 428 810 431 q 799 417 801 425 q 800 403 797 407 q 811 394 803 400 q 820 393 817 390 q 829 400 824 396 q 836 417 840 408 m 351 364 q 343 374 347 372 q 329 374 339 375 q 317 370 321 372 q 310 360 313 368 q 308 342 308 349 q 317 329 307 335 q 334 326 328 322 q 349 338 340 329 q 356 350 357 344 q 351 364 356 356 m 733 263 q 717 320 728 301 q 665 344 706 339 q 632 340 642 349 q 616 313 622 331 q 599 275 610 296 q 583 235 586 250 q 601 200 581 219 q 641 168 625 176 q 688 175 657 160 q 729 208 719 192 q 733 263 739 225 m 838 319 q 819 315 824 319 q 808 299 814 311 q 806 279 804 286 q 817 264 807 272 q 833 260 826 257 q 849 269 839 263 q 868 280 860 276 q 872 297 876 283 q 860 315 868 313 q 838 319 853 318 m 444 292 l 424 297 l 418 279 l 428 269 l 447 271 l 444 292 m 214 286 q 195 294 204 300 q 169 282 186 288 q 153 260 153 276 q 156 243 153 249 q 169 235 160 238 q 191 230 183 231 q 206 240 199 229 q 220 263 217 254 q 214 286 224 272 m 396 235 q 377 241 385 242 q 360 232 369 240 q 352 215 350 222 q 360 197 354 208 q 369 188 364 189 q 385 189 375 188 q 400 192 394 190 q 408 204 406 193 q 408 223 410 217 q 396 235 407 229 m 1082 235 l 1069 236 l 1071 224 l 1079 218 l 1088 225 l 1082 235 m 1147 228 q 1134 234 1139 232 q 1124 229 1129 236 q 1118 216 1117 221 q 1124 203 1119 211 q 1133 196 1129 196 q 1146 197 1138 196 q 1160 202 1154 200 q 1165 213 1165 204 q 1160 224 1165 222 q 1147 228 1156 225 m 1218 226 q 1203 229 1208 231 q 1192 221 1199 228 q 1189 196 1182 210 q 1197 184 1193 188 q 1211 182 1201 181 q 1231 201 1228 185 q 1218 226 1233 219 m 824 179 q 801 190 817 192 q 785 188 792 189 q 776 176 779 186 q 781 163 775 165 q 796 156 786 160 q 811 146 806 150 q 824 150 817 142 q 830 163 832 157 q 824 179 828 169 m 1135 154 l 1118 149 l 1118 132 l 1135 125 l 1142 140 l 1135 154 m 1018 121 q 1001 140 1010 136 q 976 140 993 144 q 952 131 958 138 q 943 106 946 124 q 942 72 942 83 q 963 50 942 60 q 995 46 983 42 q 1022 67 1007 50 q 1033 92 1036 82 q 1018 121 1029 103 m 756 122 l 746 125 l 736 117 l 749 111 l 763 111 l 756 122 m 1260 63 l 1244 69 l 1238 56 l 1244 46 l 1257 49 l 1260 63 m 569 1042 q 547 1064 547 1042 q 554 1082 547 1075 l 693 1251 q 719 1274 708 1269 q 744 1278 729 1278 l 1017 1278 q 1043 1250 1043 1278 q 1036 1233 1043 1240 l 832 1065 q 808 1049 821 1056 q 774 1042 796 1042 l 569 1042 m 813 1264 l 796 1263 l 790 1247 l 804 1242 l 815 1249 l 813 1264 m 903 1190 l 888 1201 l 874 1188 l 881 1171 l 899 1174 l 903 1190 m 822 1114 q 817 1124 819 1121 q 808 1128 815 1128 q 794 1126 799 1128 q 788 1114 789 1124 q 789 1103 785 1107 q 800 1096 793 1100 q 813 1085 808 1090 q 825 1086 818 1081 q 830 1099 833 1093 q 822 1114 826 1104 z "},"B":{"ha":1019,"x_min":76,"x_max":981,"o":"m 114 0 q 88 11 99 0 q 76 38 76 22 l 76 935 q 88 961 76 950 q 114 972 99 972 l 575 972 q 867 899 774 972 q 960 681 960 826 q 941 601 960 636 q 897 542 922 565 q 849 507 871 518 q 941 430 901 485 q 981 306 981 375 q 879 75 981 150 q 589 0 778 0 l 114 0 m 439 928 l 424 922 l 428 913 l 438 917 l 439 928 m 301 911 q 286 919 293 921 q 268 914 279 918 q 253 888 251 906 q 272 865 254 869 q 294 860 286 863 q 310 871 303 858 q 315 892 318 885 q 301 911 313 900 m 718 914 q 704 917 710 921 q 690 907 699 913 q 681 897 683 901 q 682 885 679 893 q 688 869 685 875 q 701 863 690 863 q 719 867 714 863 q 728 883 724 871 q 718 914 735 903 m 640 881 q 641 903 640 894 q 629 915 642 911 q 608 915 615 919 q 593 899 601 911 q 589 883 586 889 q 599 867 592 876 q 610 853 606 857 q 626 853 615 849 q 639 863 638 857 q 640 881 640 869 m 789 888 q 785 901 786 896 q 776 906 785 906 q 764 901 767 904 q 758 888 761 897 q 768 867 756 875 q 792 868 781 858 q 794 876 797 872 q 789 888 792 881 m 493 893 l 479 899 l 469 886 l 481 875 l 492 881 l 493 893 m 538 863 q 521 850 526 864 q 525 831 515 838 q 535 824 531 825 q 547 826 540 822 q 557 850 560 835 q 550 860 554 858 q 538 863 546 863 m 392 824 q 375 842 382 836 q 353 842 368 847 q 326 828 335 835 q 318 803 318 822 q 329 779 319 783 q 357 769 339 775 q 376 771 371 765 q 390 789 382 776 q 399 807 397 800 q 392 824 400 814 m 756 828 q 738 835 744 832 q 725 829 732 839 q 723 815 718 821 q 735 800 728 810 q 744 785 740 790 q 758 782 747 779 q 776 792 772 786 q 779 811 779 797 q 773 824 779 822 q 756 828 767 825 m 846 779 q 822 767 831 782 q 814 749 817 756 q 819 735 811 743 q 835 724 828 725 q 854 729 842 724 q 863 740 864 733 q 860 758 861 747 q 857 772 858 767 q 846 779 856 776 m 644 768 l 629 768 l 631 750 l 644 747 l 660 758 l 644 768 m 424 607 l 540 607 q 584 627 571 607 q 597 669 597 647 q 584 713 597 692 q 540 733 571 733 l 424 733 l 424 607 m 306 681 q 285 715 296 707 q 246 722 274 722 q 206 715 218 722 q 185 681 193 707 q 187 644 178 656 q 218 619 196 633 q 247 608 236 607 q 276 622 258 608 q 304 648 296 638 q 306 681 313 658 m 765 621 q 743 636 760 636 q 725 619 729 636 q 718 600 721 607 q 726 586 715 593 q 745 578 738 578 q 765 588 753 579 q 772 603 775 596 q 765 621 769 610 m 669 610 q 657 613 663 615 q 643 606 651 611 q 633 585 631 597 q 638 569 636 574 q 651 563 640 564 q 667 565 663 561 q 675 581 671 569 q 678 596 679 590 q 669 610 678 601 m 283 550 l 268 558 l 254 556 l 254 539 l 272 533 l 283 550 m 582 533 q 564 553 581 549 q 547 556 553 554 q 535 547 540 557 q 533 533 529 538 q 544 519 538 528 q 556 508 551 511 q 569 508 560 506 q 581 518 579 513 q 582 533 583 524 m 765 531 l 756 543 l 740 538 l 746 522 l 758 518 l 765 531 m 169 489 q 165 510 165 501 q 150 518 164 518 q 135 510 136 518 q 131 489 135 501 q 122 467 126 475 q 128 451 117 460 q 147 448 140 443 q 165 461 154 453 q 174 472 174 467 q 169 489 174 478 m 406 471 q 390 488 396 482 q 368 488 383 493 q 355 474 354 483 q 356 450 356 465 q 354 423 356 433 q 369 407 353 413 q 388 414 385 403 q 401 438 392 425 q 411 455 408 449 q 406 471 414 461 m 272 454 l 257 442 l 263 426 l 281 421 l 281 439 l 272 454 m 618 428 l 599 425 l 603 406 l 618 401 l 625 414 l 618 428 m 717 396 q 708 414 714 410 q 690 419 703 418 q 675 414 678 421 q 668 397 672 407 q 675 374 663 383 q 687 365 682 368 q 701 368 692 363 q 715 379 711 374 q 717 396 719 385 m 238 404 l 222 401 l 226 386 l 240 386 l 244 396 l 238 404 m 821 393 l 807 392 l 808 379 l 819 371 l 831 382 l 821 393 m 424 239 l 553 239 q 602 262 588 239 q 617 307 617 285 q 601 353 617 332 q 553 375 585 375 l 424 375 l 424 239 m 740 315 q 724 315 729 318 q 714 303 719 313 q 717 276 706 289 q 742 268 728 263 q 756 292 757 274 q 752 308 754 303 q 740 315 750 314 m 315 285 q 295 287 303 289 q 281 274 288 285 q 272 253 272 261 q 281 235 272 246 q 297 225 289 225 q 317 229 304 225 q 332 239 328 233 q 336 257 336 244 q 332 276 336 269 q 315 285 328 282 m 811 269 l 801 271 l 799 263 l 804 253 l 814 260 l 811 269 m 871 271 l 853 267 l 851 247 l 868 247 l 882 257 l 871 271 m 207 261 q 169 268 183 267 q 144 249 156 269 q 133 213 131 226 q 154 179 136 199 q 184 160 171 161 q 219 168 197 158 q 253 189 243 179 q 260 225 263 199 q 244 253 257 249 q 207 261 231 257 m 819 197 l 807 203 l 799 196 l 803 186 l 815 183 l 819 197 m 579 154 q 548 185 560 175 q 511 183 536 196 q 481 154 485 169 q 482 110 476 139 q 495 67 486 81 q 533 50 504 54 q 585 49 567 44 q 618 82 603 53 q 617 122 632 110 q 579 154 601 133 m 879 147 l 871 154 l 863 143 l 871 135 l 883 135 l 879 147 m 785 146 q 754 144 768 156 q 742 131 746 136 q 744 114 739 125 q 755 102 749 103 q 772 103 761 101 q 789 106 783 104 q 796 118 794 108 q 796 135 799 129 q 785 146 793 140 m 343 151 l 325 146 l 321 128 l 339 125 l 350 135 l 343 151 m 236 128 q 215 131 225 138 q 206 110 203 122 q 224 94 210 96 q 242 107 236 93 q 236 128 247 119 m 429 108 l 417 101 l 418 92 l 426 83 l 438 94 l 429 108 m 328 90 l 315 86 l 313 75 l 324 64 l 331 78 l 328 90 z "},"C":{"ha":1018,"x_min":50,"x_max":985,"o":"m 517 -14 q 281 25 383 -14 q 117 147 178 64 q 51 363 57 231 q 50 485 50 419 q 51 610 50 550 q 119 822 57 739 q 284 946 181 906 q 517 986 388 986 q 688 966 606 986 q 838 903 771 946 q 944 792 904 860 q 985 631 983 725 q 976 609 985 618 q 954 600 967 600 l 671 600 q 638 609 649 600 q 619 640 628 618 q 578 700 604 685 q 515 715 551 715 q 442 691 469 715 q 413 603 415 667 q 413 369 408 489 q 442 281 415 306 q 515 257 469 257 q 578 274 551 257 q 619 332 606 290 q 638 364 626 356 q 671 372 649 372 l 954 372 q 976 363 967 372 q 985 342 985 354 q 944 180 983 247 q 838 69 904 113 q 688 6 771 26 q 517 -14 606 -14 m 606 908 q 581 917 590 915 q 560 907 571 919 q 542 881 546 892 q 549 853 538 871 q 570 828 560 833 q 601 829 581 824 q 635 841 625 833 q 649 872 646 849 q 638 897 650 893 q 606 908 625 900 m 383 849 q 378 892 379 875 q 350 913 376 908 q 305 910 319 918 q 276 874 290 901 q 265 830 261 846 q 290 793 268 814 q 324 776 310 772 q 364 792 339 779 q 385 815 383 803 q 383 849 386 826 m 744 890 q 735 904 740 901 q 718 906 729 907 q 707 899 708 904 q 703 885 706 894 q 699 869 701 875 q 706 858 697 864 q 722 851 715 851 q 738 858 729 850 q 748 873 747 867 q 744 890 749 879 m 800 881 q 785 878 790 882 q 776 867 781 875 q 769 849 771 856 q 775 835 767 843 q 788 833 782 828 q 803 842 793 838 q 817 848 811 846 q 821 860 822 850 q 800 881 818 876 m 496 872 l 482 881 l 472 871 l 475 858 l 488 861 l 496 872 m 872 806 l 861 799 l 865 788 l 876 785 l 882 797 l 872 806 m 683 776 l 665 772 l 668 756 l 682 750 l 690 763 l 683 776 m 799 772 q 783 774 789 774 q 774 764 778 774 q 767 748 768 754 q 775 732 767 742 q 788 728 782 725 q 804 736 794 732 q 817 744 813 740 q 819 756 821 747 q 813 768 818 765 q 799 772 808 771 m 233 769 l 215 771 l 213 750 l 229 749 l 242 757 l 233 769 m 876 708 l 865 721 l 846 714 l 850 693 l 868 694 l 876 708 m 363 682 l 351 678 l 354 665 l 367 661 l 374 675 l 363 682 m 911 674 l 894 675 l 889 660 l 900 650 l 910 660 l 911 674 m 206 661 q 192 671 201 672 q 181 658 183 669 q 178 647 179 651 q 183 640 178 643 q 197 635 192 636 q 207 639 201 633 q 212 649 214 644 q 206 661 210 653 m 693 664 l 682 669 l 679 657 l 685 644 l 697 653 l 693 664 m 286 633 q 268 634 275 633 q 257 624 261 635 q 256 606 253 611 q 269 592 260 600 q 283 588 278 585 q 297 599 289 592 q 304 619 308 606 q 286 633 300 633 m 135 582 q 126 599 129 593 q 110 603 122 604 q 93 596 97 601 q 86 578 89 590 q 90 563 85 567 q 104 554 94 560 q 119 547 114 549 q 133 551 125 544 q 140 565 142 560 q 135 582 139 571 m 325 504 q 292 508 304 507 q 271 492 281 510 q 260 458 260 471 q 278 428 261 446 q 308 408 294 411 q 343 417 321 406 q 367 438 364 426 q 368 474 371 450 q 355 497 365 493 q 325 504 344 500 m 215 450 q 194 462 203 461 q 171 453 185 463 q 151 435 156 443 q 150 410 146 428 q 161 378 156 389 q 189 367 167 368 q 219 374 211 365 q 235 404 226 383 q 235 431 242 422 q 215 450 229 439 m 142 297 q 126 297 135 303 q 119 290 122 293 q 119 282 117 288 q 135 272 122 272 q 149 283 144 272 q 142 297 150 292 m 693 246 q 678 270 685 264 q 653 275 671 276 q 624 266 632 272 q 611 240 615 260 q 609 208 606 219 q 632 186 613 197 q 660 180 650 175 q 686 199 671 185 q 699 220 699 211 q 693 246 700 229 m 299 236 q 283 233 288 236 q 275 218 279 229 q 270 199 271 206 q 279 185 269 192 q 299 173 292 175 q 319 179 307 171 q 335 196 333 188 q 332 219 336 204 q 320 235 328 233 q 299 236 313 236 m 828 200 l 824 219 l 801 211 l 804 189 l 822 189 l 828 200 m 461 196 q 450 201 454 199 q 440 197 446 204 q 440 174 431 186 q 449 169 444 167 q 460 172 453 171 q 470 176 467 175 q 474 185 474 178 q 471 192 474 190 q 461 196 468 194 m 535 154 q 510 153 521 163 q 506 142 504 147 q 511 129 507 138 q 526 121 515 119 q 540 133 538 122 q 542 146 542 142 q 535 154 542 150 m 713 158 q 691 153 697 160 q 679 133 685 147 q 680 117 674 122 q 696 104 686 113 q 708 96 703 97 q 724 100 714 94 q 740 112 735 107 q 742 129 746 117 q 733 151 739 144 q 713 158 728 157 m 799 142 q 790 149 793 146 q 781 147 786 151 q 778 126 772 140 q 793 118 781 118 q 806 119 801 118 q 811 126 810 119 q 810 135 814 133 q 799 142 806 138 m 428 82 q 403 76 413 88 q 401 65 399 69 q 407 53 403 61 q 426 44 415 40 q 440 63 440 47 q 428 82 440 78 m 654 71 q 638 81 647 82 q 622 76 628 78 q 615 65 617 75 q 618 49 614 54 q 632 40 622 44 q 649 37 643 36 q 661 46 654 38 q 664 58 668 53 q 654 71 660 63 z "},"Ć":{"ha":1018,"x_min":50,"x_max":985,"o":"m 517 -14 q 281 25 383 -14 q 117 147 178 64 q 51 363 57 231 q 50 485 50 419 q 51 610 50 550 q 119 822 57 739 q 284 946 181 906 q 517 986 388 986 q 688 966 606 986 q 838 903 771 946 q 944 792 904 860 q 985 631 983 725 q 976 609 985 618 q 954 600 967 600 l 671 600 q 638 609 649 600 q 619 640 628 618 q 578 700 604 685 q 515 715 551 715 q 442 691 469 715 q 413 603 415 667 q 413 369 408 489 q 442 281 415 306 q 515 257 469 257 q 578 274 551 257 q 619 332 606 290 q 638 364 626 356 q 671 372 649 372 l 954 372 q 976 363 967 372 q 985 342 985 354 q 944 180 983 247 q 838 69 904 113 q 688 6 771 26 q 517 -14 606 -14 m 606 908 q 581 917 590 915 q 560 907 571 919 q 542 881 546 892 q 549 853 538 871 q 570 828 560 833 q 601 829 581 824 q 635 841 625 833 q 649 872 646 849 q 638 897 650 893 q 606 908 625 900 m 383 849 q 378 892 379 875 q 350 913 376 908 q 305 910 319 918 q 276 874 290 901 q 265 830 261 846 q 290 793 268 814 q 324 776 310 772 q 364 792 339 779 q 385 815 383 803 q 383 849 386 826 m 744 890 q 735 904 740 901 q 718 906 729 907 q 707 899 708 904 q 703 885 706 894 q 699 869 701 875 q 706 858 697 864 q 722 851 715 851 q 738 858 729 850 q 748 873 747 867 q 744 890 749 879 m 800 881 q 785 878 790 882 q 776 867 781 875 q 769 849 771 856 q 775 835 767 843 q 788 833 782 828 q 803 842 793 838 q 817 848 811 846 q 821 860 822 850 q 800 881 818 876 m 496 872 l 482 881 l 472 871 l 475 858 l 488 861 l 496 872 m 872 806 l 861 799 l 865 788 l 876 785 l 882 797 l 872 806 m 683 776 l 665 772 l 668 756 l 682 750 l 690 763 l 683 776 m 799 772 q 783 774 789 774 q 774 764 778 774 q 767 748 768 754 q 775 732 767 742 q 788 728 782 725 q 804 736 794 732 q 817 744 813 740 q 819 756 821 747 q 813 768 818 765 q 799 772 808 771 m 233 769 l 215 771 l 213 750 l 229 749 l 242 757 l 233 769 m 876 708 l 865 721 l 846 714 l 850 693 l 868 694 l 876 708 m 363 682 l 351 678 l 354 665 l 367 661 l 374 675 l 363 682 m 911 674 l 894 675 l 889 660 l 900 650 l 910 660 l 911 674 m 206 661 q 192 671 201 672 q 181 658 183 669 q 178 647 179 651 q 183 640 178 643 q 197 635 192 636 q 207 639 201 633 q 212 649 214 644 q 206 661 210 653 m 693 664 l 682 669 l 679 657 l 685 644 l 697 653 l 693 664 m 286 633 q 268 634 275 633 q 257 624 261 635 q 256 606 253 611 q 269 592 260 600 q 283 588 278 585 q 297 599 289 592 q 304 619 308 606 q 286 633 300 633 m 135 582 q 126 599 129 593 q 110 603 122 604 q 93 596 97 601 q 86 578 89 590 q 90 563 85 567 q 104 554 94 560 q 119 547 114 549 q 133 551 125 544 q 140 565 142 560 q 135 582 139 571 m 325 504 q 292 508 304 507 q 271 492 281 510 q 260 458 260 471 q 278 428 261 446 q 308 408 294 411 q 343 417 321 406 q 367 438 364 426 q 368 474 371 450 q 355 497 365 493 q 325 504 344 500 m 215 450 q 194 462 203 461 q 171 453 185 463 q 151 435 156 443 q 150 410 146 428 q 161 378 156 389 q 189 367 167 368 q 219 374 211 365 q 235 404 226 383 q 235 431 242 422 q 215 450 229 439 m 142 297 q 126 297 135 303 q 119 290 122 293 q 119 282 117 288 q 135 272 122 272 q 149 283 144 272 q 142 297 150 292 m 693 246 q 678 270 685 264 q 653 275 671 276 q 624 266 632 272 q 611 240 615 260 q 609 208 606 219 q 632 186 613 197 q 660 180 650 175 q 686 199 671 185 q 699 220 699 211 q 693 246 700 229 m 299 236 q 283 233 288 236 q 275 218 279 229 q 270 199 271 206 q 279 185 269 192 q 299 173 292 175 q 319 179 307 171 q 335 196 333 188 q 332 219 336 204 q 320 235 328 233 q 299 236 313 236 m 828 200 l 824 219 l 801 211 l 804 189 l 822 189 l 828 200 m 461 196 q 450 201 454 199 q 440 197 446 204 q 440 174 431 186 q 449 169 444 167 q 460 172 453 171 q 470 176 467 175 q 474 185 474 178 q 471 192 474 190 q 461 196 468 194 m 535 154 q 510 153 521 163 q 506 142 504 147 q 511 129 507 138 q 526 121 515 119 q 540 133 538 122 q 542 146 542 142 q 535 154 542 150 m 713 158 q 691 153 697 160 q 679 133 685 147 q 680 117 674 122 q 696 104 686 113 q 708 96 703 97 q 724 100 714 94 q 740 112 735 107 q 742 129 746 117 q 733 151 739 144 q 713 158 728 157 m 799 142 q 790 149 793 146 q 781 147 786 151 q 778 126 772 140 q 793 118 781 118 q 806 119 801 118 q 811 126 810 119 q 810 135 814 133 q 799 142 806 138 m 428 82 q 403 76 413 88 q 401 65 399 69 q 407 53 403 61 q 426 44 415 40 q 440 63 440 47 q 428 82 440 78 m 654 71 q 638 81 647 82 q 622 76 628 78 q 615 65 617 75 q 618 49 614 54 q 632 40 622 44 q 649 37 643 36 q 661 46 654 38 q 664 58 668 53 q 654 71 660 63 m 381 1042 q 358 1064 358 1042 q 365 1082 358 1075 l 504 1251 q 530 1274 519 1269 q 556 1278 540 1278 l 828 1278 q 854 1250 854 1278 q 847 1233 854 1240 l 643 1065 q 619 1049 632 1056 q 585 1042 607 1042 l 381 1042 m 624 1264 l 607 1263 l 601 1247 l 615 1242 l 626 1249 l 624 1264 m 714 1190 l 699 1201 l 685 1188 l 692 1171 l 710 1174 l 714 1190 m 633 1114 q 628 1124 631 1121 q 619 1128 626 1128 q 605 1126 610 1128 q 599 1114 600 1124 q 600 1103 596 1107 q 611 1096 604 1100 q 624 1085 619 1090 q 636 1086 629 1081 q 641 1099 644 1093 q 633 1114 638 1104 z "},"Č":{"ha":1018,"x_min":50,"x_max":985,"o":"m 517 -14 q 281 25 383 -14 q 117 147 178 64 q 51 363 57 231 q 50 485 50 419 q 51 610 50 550 q 119 822 57 739 q 284 946 181 906 q 517 986 388 986 q 688 966 606 986 q 838 903 771 946 q 944 792 904 860 q 985 631 983 725 q 976 609 985 618 q 954 600 967 600 l 671 600 q 638 609 649 600 q 619 640 628 618 q 578 700 604 685 q 515 715 551 715 q 442 691 469 715 q 413 603 415 667 q 413 369 408 489 q 442 281 415 306 q 515 257 469 257 q 578 274 551 257 q 619 332 606 290 q 638 364 626 356 q 671 372 649 372 l 954 372 q 976 363 967 372 q 985 342 985 354 q 944 180 983 247 q 838 69 904 113 q 688 6 771 26 q 517 -14 606 -14 m 606 908 q 581 917 590 915 q 560 907 571 919 q 542 881 546 892 q 549 853 538 871 q 570 828 560 833 q 601 829 581 824 q 635 841 625 833 q 649 872 646 849 q 638 897 650 893 q 606 908 625 900 m 383 849 q 378 892 379 875 q 350 913 376 908 q 305 910 319 918 q 276 874 290 901 q 265 830 261 846 q 290 793 268 814 q 324 776 310 772 q 364 792 339 779 q 385 815 383 803 q 383 849 386 826 m 744 890 q 735 904 740 901 q 718 906 729 907 q 707 899 708 904 q 703 885 706 894 q 699 869 701 875 q 706 858 697 864 q 722 851 715 851 q 738 858 729 850 q 748 873 747 867 q 744 890 749 879 m 800 881 q 785 878 790 882 q 776 867 781 875 q 769 849 771 856 q 775 835 767 843 q 788 833 782 828 q 803 842 793 838 q 817 848 811 846 q 821 860 822 850 q 800 881 818 876 m 496 872 l 482 881 l 472 871 l 475 858 l 488 861 l 496 872 m 872 806 l 861 799 l 865 788 l 876 785 l 882 797 l 872 806 m 683 776 l 665 772 l 668 756 l 682 750 l 690 763 l 683 776 m 799 772 q 783 774 789 774 q 774 764 778 774 q 767 748 768 754 q 775 732 767 742 q 788 728 782 725 q 804 736 794 732 q 817 744 813 740 q 819 756 821 747 q 813 768 818 765 q 799 772 808 771 m 233 769 l 215 771 l 213 750 l 229 749 l 242 757 l 233 769 m 876 708 l 865 721 l 846 714 l 850 693 l 868 694 l 876 708 m 363 682 l 351 678 l 354 665 l 367 661 l 374 675 l 363 682 m 911 674 l 894 675 l 889 660 l 900 650 l 910 660 l 911 674 m 206 661 q 192 671 201 672 q 181 658 183 669 q 178 647 179 651 q 183 640 178 643 q 197 635 192 636 q 207 639 201 633 q 212 649 214 644 q 206 661 210 653 m 693 664 l 682 669 l 679 657 l 685 644 l 697 653 l 693 664 m 286 633 q 268 634 275 633 q 257 624 261 635 q 256 606 253 611 q 269 592 260 600 q 283 588 278 585 q 297 599 289 592 q 304 619 308 606 q 286 633 300 633 m 135 582 q 126 599 129 593 q 110 603 122 604 q 93 596 97 601 q 86 578 89 590 q 90 563 85 567 q 104 554 94 560 q 119 547 114 549 q 133 551 125 544 q 140 565 142 560 q 135 582 139 571 m 325 504 q 292 508 304 507 q 271 492 281 510 q 260 458 260 471 q 278 428 261 446 q 308 408 294 411 q 343 417 321 406 q 367 438 364 426 q 368 474 371 450 q 355 497 365 493 q 325 504 344 500 m 215 450 q 194 462 203 461 q 171 453 185 463 q 151 435 156 443 q 150 410 146 428 q 161 378 156 389 q 189 367 167 368 q 219 374 211 365 q 235 404 226 383 q 235 431 242 422 q 215 450 229 439 m 142 297 q 126 297 135 303 q 119 290 122 293 q 119 282 117 288 q 135 272 122 272 q 149 283 144 272 q 142 297 150 292 m 693 246 q 678 270 685 264 q 653 275 671 276 q 624 266 632 272 q 611 240 615 260 q 609 208 606 219 q 632 186 613 197 q 660 180 650 175 q 686 199 671 185 q 699 220 699 211 q 693 246 700 229 m 299 236 q 283 233 288 236 q 275 218 279 229 q 270 199 271 206 q 279 185 269 192 q 299 173 292 175 q 319 179 307 171 q 335 196 333 188 q 332 219 336 204 q 320 235 328 233 q 299 236 313 236 m 828 200 l 824 219 l 801 211 l 804 189 l 822 189 l 828 200 m 461 196 q 450 201 454 199 q 440 197 446 204 q 440 174 431 186 q 449 169 444 167 q 460 172 453 171 q 470 176 467 175 q 474 185 474 178 q 471 192 474 190 q 461 196 468 194 m 535 154 q 510 153 521 163 q 506 142 504 147 q 511 129 507 138 q 526 121 515 119 q 540 133 538 122 q 542 146 542 142 q 535 154 542 150 m 713 158 q 691 153 697 160 q 679 133 685 147 q 680 117 674 122 q 696 104 686 113 q 708 96 703 97 q 724 100 714 94 q 740 112 735 107 q 742 129 746 117 q 733 151 739 144 q 713 158 728 157 m 799 142 q 790 149 793 146 q 781 147 786 151 q 778 126 772 140 q 793 118 781 118 q 806 119 801 118 q 811 126 810 119 q 810 135 814 133 q 799 142 806 138 m 428 82 q 403 76 413 88 q 401 65 399 69 q 407 53 403 61 q 426 44 415 40 q 440 63 440 47 q 428 82 440 78 m 654 71 q 638 81 647 82 q 622 76 628 78 q 615 65 617 75 q 618 49 614 54 q 632 40 622 44 q 649 37 643 36 q 661 46 654 38 q 664 58 668 53 q 654 71 660 63 m 419 1042 q 368 1068 393 1042 l 213 1238 q 206 1256 206 1244 q 228 1278 206 1278 l 326 1278 q 354 1276 340 1278 q 382 1268 368 1275 l 510 1210 l 638 1268 q 666 1276 653 1275 q 693 1278 679 1278 l 792 1278 q 814 1256 814 1278 q 807 1238 814 1244 l 651 1068 q 600 1042 626 1042 l 419 1042 m 328 1226 l 315 1239 l 300 1224 l 310 1204 l 331 1210 l 328 1226 m 642 1231 q 622 1223 626 1232 q 611 1200 618 1214 q 599 1176 604 1185 q 606 1156 593 1167 q 627 1147 618 1143 q 651 1158 636 1150 q 674 1172 667 1167 q 679 1194 682 1178 q 668 1221 675 1214 q 642 1231 661 1228 m 424 1207 q 399 1208 410 1217 q 392 1183 386 1200 q 411 1168 396 1168 q 432 1183 428 1168 q 424 1207 436 1197 m 526 1185 q 513 1183 518 1185 q 506 1172 508 1181 q 501 1156 501 1163 q 510 1143 501 1150 q 522 1142 518 1138 q 535 1153 526 1147 q 543 1171 547 1161 q 526 1185 539 1185 m 496 1090 q 488 1101 494 1101 q 471 1104 482 1101 q 451 1097 457 1107 q 444 1083 446 1089 q 450 1071 443 1078 q 463 1063 457 1063 q 476 1068 468 1064 q 492 1077 486 1074 q 496 1090 497 1081 z "},"Ç":{"ha":1018,"x_min":50,"x_max":985,"o":"m 508 -306 q 442 -294 472 -306 q 399 -265 411 -282 q 401 -235 386 -249 l 431 -210 q 451 -201 443 -199 q 472 -208 460 -203 q 508 -214 485 -214 q 538 -203 528 -214 q 547 -181 547 -193 q 538 -158 547 -168 q 508 -147 529 -147 q 469 -154 490 -147 q 433 -147 447 -161 l 404 -118 q 393 -100 394 -108 q 401 -72 392 -92 l 429 -8 q 236 45 319 3 q 105 166 153 88 q 51 363 57 244 q 50 485 50 419 q 51 610 50 550 q 119 822 57 739 q 284 946 181 906 q 517 986 388 986 q 688 966 606 986 q 838 903 771 946 q 944 792 904 860 q 985 631 983 725 q 976 609 985 618 q 954 600 967 600 l 671 600 q 638 609 649 600 q 619 640 628 618 q 578 700 604 685 q 515 715 551 715 q 442 691 469 715 q 413 603 415 667 q 413 369 408 489 q 442 281 415 306 q 515 257 469 257 q 578 274 551 257 q 619 332 606 290 q 638 364 626 356 q 671 372 649 372 l 954 372 q 976 363 967 372 q 985 342 985 354 q 944 180 983 247 q 838 69 904 113 q 688 6 771 26 q 517 -14 606 -14 l 492 -62 q 515 -58 500 -60 q 533 -56 529 -56 q 616 -90 586 -56 q 646 -181 646 -125 q 608 -271 646 -236 q 508 -306 571 -306 m 472 865 q 426 869 443 865 q 399 847 408 874 q 397 802 389 817 q 431 769 406 788 q 463 763 451 754 q 496 786 475 771 q 535 810 519 801 q 543 844 551 818 q 517 868 535 871 q 472 865 500 865 m 829 858 q 820 865 824 863 q 811 864 817 868 q 806 856 806 860 q 808 846 807 853 q 811 831 811 838 q 819 825 811 825 q 843 840 836 824 q 841 850 846 847 q 829 858 836 853 m 249 846 q 235 853 240 851 q 221 847 229 854 q 213 834 213 840 q 217 818 213 828 q 239 806 222 804 q 260 821 256 807 q 249 846 263 836 m 808 800 q 796 813 801 810 q 779 811 790 815 q 768 802 768 808 q 768 785 768 796 q 767 765 768 772 q 778 754 767 758 q 799 752 792 750 q 814 765 806 754 q 819 783 822 776 q 808 800 817 789 m 176 813 l 161 810 l 160 799 l 168 793 l 179 799 l 176 813 m 660 803 q 646 800 651 807 q 640 785 638 792 q 657 776 646 775 q 669 789 668 778 q 660 803 671 797 m 624 749 l 610 750 l 608 736 l 619 728 l 626 739 l 624 749 m 722 735 l 707 735 l 699 724 l 711 715 l 726 718 l 722 735 m 858 719 l 847 713 l 849 699 l 861 700 l 865 708 l 858 719 m 674 708 q 660 706 664 711 q 650 693 657 701 q 648 684 646 688 q 654 675 650 681 q 669 671 660 667 q 681 674 676 672 q 685 683 685 676 q 684 700 685 694 q 674 708 683 706 m 339 688 q 314 701 324 697 q 290 692 304 704 q 270 669 274 679 q 275 639 267 658 q 292 611 282 618 q 324 606 301 604 q 354 615 346 607 q 368 644 363 624 q 364 671 372 664 q 339 688 356 678 m 188 644 q 176 662 186 661 q 149 667 165 663 q 129 670 136 671 q 117 658 122 669 q 112 641 110 647 q 121 625 114 635 q 137 603 132 613 q 158 599 142 593 q 183 615 176 606 q 188 644 189 624 m 178 546 q 151 556 161 556 q 125 542 140 556 q 101 515 108 526 q 103 483 93 504 q 126 449 115 458 q 165 442 138 439 q 189 461 189 446 q 194 501 189 476 q 195 528 197 518 q 178 546 193 538 m 347 526 q 343 537 347 535 q 331 542 339 539 q 323 540 325 543 q 317 531 321 536 q 310 522 313 525 q 311 513 307 518 q 319 509 315 507 q 331 514 324 511 q 342 517 338 517 q 347 526 347 518 m 317 446 q 301 465 308 460 q 279 467 294 471 q 249 459 260 463 q 235 435 238 456 q 242 406 233 414 q 269 389 250 397 q 292 388 285 382 q 311 408 300 394 q 322 426 321 418 q 317 446 324 433 m 217 392 q 209 408 214 404 q 193 414 204 411 q 165 400 174 417 q 159 382 160 389 q 167 365 158 375 q 181 363 175 358 q 197 371 188 367 q 213 379 207 376 q 217 392 218 382 m 863 315 l 850 321 l 835 314 l 844 301 l 858 299 l 863 315 m 336 275 q 309 286 319 282 q 288 276 299 290 q 276 251 274 261 q 288 224 278 240 q 306 208 297 208 q 332 211 315 207 q 347 221 344 214 q 351 242 350 228 q 351 263 353 256 q 336 275 349 269 m 769 268 q 726 253 735 272 q 703 204 718 235 q 678 153 688 172 q 694 110 669 133 q 744 84 724 83 q 800 104 765 85 q 824 138 828 119 q 813 189 819 157 q 805 243 807 222 q 769 268 803 264 m 206 214 q 193 226 199 224 q 175 224 188 228 q 160 217 164 221 q 154 200 156 213 q 154 178 153 186 q 168 165 156 171 q 187 166 182 160 q 201 182 192 172 q 210 197 208 192 q 206 214 211 203 m 460 190 l 446 192 l 449 178 l 458 171 l 464 181 l 460 190 m 376 153 q 364 171 375 168 q 344 161 353 174 q 346 140 338 150 q 356 131 351 133 q 368 132 360 129 q 376 140 375 135 q 376 153 376 144 m 497 158 l 482 153 l 486 138 l 500 129 l 506 146 l 497 158 m 638 131 q 621 151 636 149 q 610 149 613 154 q 603 138 607 144 q 597 126 599 131 q 600 117 596 122 q 624 110 610 104 q 638 131 639 117 m 231 124 l 217 115 l 217 100 l 232 93 l 243 108 l 231 124 m 546 111 q 521 111 529 115 q 503 93 513 107 q 502 74 496 81 q 518 57 508 68 q 531 42 526 47 q 549 43 536 38 q 568 54 563 49 q 572 75 574 60 q 567 99 571 92 q 546 111 563 107 m 454 85 q 439 103 454 99 q 428 103 432 106 q 421 93 425 100 q 419 74 413 82 q 439 69 426 64 q 451 74 447 72 q 454 85 454 76 m 676 72 q 672 85 674 81 q 660 90 669 89 q 638 76 644 92 q 639 66 635 69 q 649 57 643 63 q 667 54 660 49 q 676 72 679 61 z "},"Ĉ":{"ha":1018,"x_min":50,"x_max":985,"o":"m 517 -14 q 281 25 383 -14 q 117 147 178 64 q 51 363 57 231 q 50 485 50 419 q 51 610 50 550 q 119 822 57 739 q 284 946 181 906 q 517 986 388 986 q 688 966 606 986 q 838 903 771 946 q 944 792 904 860 q 985 631 983 725 q 976 609 985 618 q 954 600 967 600 l 671 600 q 638 609 649 600 q 619 640 628 618 q 578 700 604 685 q 515 715 551 715 q 442 691 469 715 q 413 603 415 667 q 413 369 408 489 q 442 281 415 306 q 515 257 469 257 q 578 274 551 257 q 619 332 606 290 q 638 364 626 356 q 671 372 649 372 l 954 372 q 976 363 967 372 q 985 342 985 354 q 944 180 983 247 q 838 69 904 113 q 688 6 771 26 q 517 -14 606 -14 m 606 908 q 581 917 590 915 q 560 907 571 919 q 542 881 546 892 q 549 853 538 871 q 570 828 560 833 q 601 829 581 824 q 635 841 625 833 q 649 872 646 849 q 638 897 650 893 q 606 908 625 900 m 383 849 q 378 892 379 875 q 350 913 376 908 q 305 910 319 918 q 276 874 290 901 q 265 830 261 846 q 290 793 268 814 q 324 776 310 772 q 364 792 339 779 q 385 815 383 803 q 383 849 386 826 m 744 890 q 735 904 740 901 q 718 906 729 907 q 707 899 708 904 q 703 885 706 894 q 699 869 701 875 q 706 858 697 864 q 722 851 715 851 q 738 858 729 850 q 748 873 747 867 q 744 890 749 879 m 800 881 q 785 878 790 882 q 776 867 781 875 q 769 849 771 856 q 775 835 767 843 q 788 833 782 828 q 803 842 793 838 q 817 848 811 846 q 821 860 822 850 q 800 881 818 876 m 496 872 l 482 881 l 472 871 l 475 858 l 488 861 l 496 872 m 872 806 l 861 799 l 865 788 l 876 785 l 882 797 l 872 806 m 683 776 l 665 772 l 668 756 l 682 750 l 690 763 l 683 776 m 799 772 q 783 774 789 774 q 774 764 778 774 q 767 748 768 754 q 775 732 767 742 q 788 728 782 725 q 804 736 794 732 q 817 744 813 740 q 819 756 821 747 q 813 768 818 765 q 799 772 808 771 m 233 769 l 215 771 l 213 750 l 229 749 l 242 757 l 233 769 m 876 708 l 865 721 l 846 714 l 850 693 l 868 694 l 876 708 m 363 682 l 351 678 l 354 665 l 367 661 l 374 675 l 363 682 m 911 674 l 894 675 l 889 660 l 900 650 l 910 660 l 911 674 m 206 661 q 192 671 201 672 q 181 658 183 669 q 178 647 179 651 q 183 640 178 643 q 197 635 192 636 q 207 639 201 633 q 212 649 214 644 q 206 661 210 653 m 693 664 l 682 669 l 679 657 l 685 644 l 697 653 l 693 664 m 286 633 q 268 634 275 633 q 257 624 261 635 q 256 606 253 611 q 269 592 260 600 q 283 588 278 585 q 297 599 289 592 q 304 619 308 606 q 286 633 300 633 m 135 582 q 126 599 129 593 q 110 603 122 604 q 93 596 97 601 q 86 578 89 590 q 90 563 85 567 q 104 554 94 560 q 119 547 114 549 q 133 551 125 544 q 140 565 142 560 q 135 582 139 571 m 325 504 q 292 508 304 507 q 271 492 281 510 q 260 458 260 471 q 278 428 261 446 q 308 408 294 411 q 343 417 321 406 q 367 438 364 426 q 368 474 371 450 q 355 497 365 493 q 325 504 344 500 m 215 450 q 194 462 203 461 q 171 453 185 463 q 151 435 156 443 q 150 410 146 428 q 161 378 156 389 q 189 367 167 368 q 219 374 211 365 q 235 404 226 383 q 235 431 242 422 q 215 450 229 439 m 142 297 q 126 297 135 303 q 119 290 122 293 q 119 282 117 288 q 135 272 122 272 q 149 283 144 272 q 142 297 150 292 m 693 246 q 678 270 685 264 q 653 275 671 276 q 624 266 632 272 q 611 240 615 260 q 609 208 606 219 q 632 186 613 197 q 660 180 650 175 q 686 199 671 185 q 699 220 699 211 q 693 246 700 229 m 299 236 q 283 233 288 236 q 275 218 279 229 q 270 199 271 206 q 279 185 269 192 q 299 173 292 175 q 319 179 307 171 q 335 196 333 188 q 332 219 336 204 q 320 235 328 233 q 299 236 313 236 m 828 200 l 824 219 l 801 211 l 804 189 l 822 189 l 828 200 m 461 196 q 450 201 454 199 q 440 197 446 204 q 440 174 431 186 q 449 169 444 167 q 460 172 453 171 q 470 176 467 175 q 474 185 474 178 q 471 192 474 190 q 461 196 468 194 m 535 154 q 510 153 521 163 q 506 142 504 147 q 511 129 507 138 q 526 121 515 119 q 540 133 538 122 q 542 146 542 142 q 535 154 542 150 m 713 158 q 691 153 697 160 q 679 133 685 147 q 680 117 674 122 q 696 104 686 113 q 708 96 703 97 q 724 100 714 94 q 740 112 735 107 q 742 129 746 117 q 733 151 739 144 q 713 158 728 157 m 799 142 q 790 149 793 146 q 781 147 786 151 q 778 126 772 140 q 793 118 781 118 q 806 119 801 118 q 811 126 810 119 q 810 135 814 133 q 799 142 806 138 m 428 82 q 403 76 413 88 q 401 65 399 69 q 407 53 403 61 q 426 44 415 40 q 440 63 440 47 q 428 82 440 78 m 654 71 q 638 81 647 82 q 622 76 628 78 q 615 65 617 75 q 618 49 614 54 q 632 40 622 44 q 649 37 643 36 q 661 46 654 38 q 664 58 668 53 q 654 71 660 63 m 228 1042 q 206 1064 206 1042 q 213 1082 206 1075 l 368 1251 q 419 1278 393 1278 l 600 1278 q 651 1251 626 1278 l 807 1082 q 814 1064 814 1075 q 792 1042 814 1042 l 693 1042 q 666 1043 679 1042 q 638 1051 653 1044 l 510 1110 l 382 1051 q 354 1043 368 1044 q 326 1042 340 1042 l 228 1042 m 486 1190 q 472 1222 485 1217 q 433 1236 458 1228 q 400 1238 411 1242 q 376 1217 389 1235 q 365 1185 364 1197 q 379 1156 365 1174 q 404 1136 393 1139 q 436 1140 415 1133 q 474 1157 461 1150 q 486 1190 488 1164 m 606 1208 q 590 1216 597 1218 q 572 1210 583 1214 q 556 1201 561 1206 q 551 1186 550 1197 q 559 1173 553 1175 q 576 1168 565 1171 q 594 1163 588 1165 q 608 1171 601 1161 q 615 1190 615 1182 q 606 1208 614 1197 m 690 1125 q 665 1126 679 1135 q 654 1104 651 1119 q 660 1097 656 1097 q 674 1096 665 1097 q 688 1092 682 1094 q 696 1099 693 1090 q 690 1125 703 1113 m 758 1104 q 747 1110 751 1107 q 738 1107 743 1114 q 738 1083 729 1097 q 760 1075 746 1071 q 770 1081 768 1076 q 772 1093 772 1085 q 768 1101 772 1100 q 758 1104 764 1103 z "},"Ċ":{"ha":1018,"x_min":50,"x_max":985,"o":"m 517 -14 q 281 25 383 -14 q 117 147 178 64 q 51 363 57 231 q 50 485 50 419 q 51 610 50 550 q 119 822 57 739 q 284 946 181 906 q 517 986 388 986 q 688 966 606 986 q 838 903 771 946 q 944 792 904 860 q 985 631 983 725 q 976 609 985 618 q 954 600 967 600 l 671 600 q 638 609 649 600 q 619 640 628 618 q 578 700 604 685 q 515 715 551 715 q 442 691 469 715 q 413 603 415 667 q 413 369 408 489 q 442 281 415 306 q 515 257 469 257 q 578 274 551 257 q 619 332 606 290 q 638 364 626 356 q 671 372 649 372 l 954 372 q 976 363 967 372 q 985 342 985 354 q 944 180 983 247 q 838 69 904 113 q 688 6 771 26 q 517 -14 606 -14 m 606 908 q 581 917 590 915 q 560 907 571 919 q 542 881 546 892 q 549 853 538 871 q 570 828 560 833 q 601 829 581 824 q 635 841 625 833 q 649 872 646 849 q 638 897 650 893 q 606 908 625 900 m 383 849 q 378 892 379 875 q 350 913 376 908 q 305 910 319 918 q 276 874 290 901 q 265 830 261 846 q 290 793 268 814 q 324 776 310 772 q 364 792 339 779 q 385 815 383 803 q 383 849 386 826 m 744 890 q 735 904 740 901 q 718 906 729 907 q 707 899 708 904 q 703 885 706 894 q 699 869 701 875 q 706 858 697 864 q 722 851 715 851 q 738 858 729 850 q 748 873 747 867 q 744 890 749 879 m 800 881 q 785 878 790 882 q 776 867 781 875 q 769 849 771 856 q 775 835 767 843 q 788 833 782 828 q 803 842 793 838 q 817 848 811 846 q 821 860 822 850 q 800 881 818 876 m 496 872 l 482 881 l 472 871 l 475 858 l 488 861 l 496 872 m 872 806 l 861 799 l 865 788 l 876 785 l 882 797 l 872 806 m 683 776 l 665 772 l 668 756 l 682 750 l 690 763 l 683 776 m 799 772 q 783 774 789 774 q 774 764 778 774 q 767 748 768 754 q 775 732 767 742 q 788 728 782 725 q 804 736 794 732 q 817 744 813 740 q 819 756 821 747 q 813 768 818 765 q 799 772 808 771 m 233 769 l 215 771 l 213 750 l 229 749 l 242 757 l 233 769 m 876 708 l 865 721 l 846 714 l 850 693 l 868 694 l 876 708 m 363 682 l 351 678 l 354 665 l 367 661 l 374 675 l 363 682 m 911 674 l 894 675 l 889 660 l 900 650 l 910 660 l 911 674 m 206 661 q 192 671 201 672 q 181 658 183 669 q 178 647 179 651 q 183 640 178 643 q 197 635 192 636 q 207 639 201 633 q 212 649 214 644 q 206 661 210 653 m 693 664 l 682 669 l 679 657 l 685 644 l 697 653 l 693 664 m 286 633 q 268 634 275 633 q 257 624 261 635 q 256 606 253 611 q 269 592 260 600 q 283 588 278 585 q 297 599 289 592 q 304 619 308 606 q 286 633 300 633 m 135 582 q 126 599 129 593 q 110 603 122 604 q 93 596 97 601 q 86 578 89 590 q 90 563 85 567 q 104 554 94 560 q 119 547 114 549 q 133 551 125 544 q 140 565 142 560 q 135 582 139 571 m 325 504 q 292 508 304 507 q 271 492 281 510 q 260 458 260 471 q 278 428 261 446 q 308 408 294 411 q 343 417 321 406 q 367 438 364 426 q 368 474 371 450 q 355 497 365 493 q 325 504 344 500 m 215 450 q 194 462 203 461 q 171 453 185 463 q 151 435 156 443 q 150 410 146 428 q 161 378 156 389 q 189 367 167 368 q 219 374 211 365 q 235 404 226 383 q 235 431 242 422 q 215 450 229 439 m 142 297 q 126 297 135 303 q 119 290 122 293 q 119 282 117 288 q 135 272 122 272 q 149 283 144 272 q 142 297 150 292 m 693 246 q 678 270 685 264 q 653 275 671 276 q 624 266 632 272 q 611 240 615 260 q 609 208 606 219 q 632 186 613 197 q 660 180 650 175 q 686 199 671 185 q 699 220 699 211 q 693 246 700 229 m 299 236 q 283 233 288 236 q 275 218 279 229 q 270 199 271 206 q 279 185 269 192 q 299 173 292 175 q 319 179 307 171 q 335 196 333 188 q 332 219 336 204 q 320 235 328 233 q 299 236 313 236 m 828 200 l 824 219 l 801 211 l 804 189 l 822 189 l 828 200 m 461 196 q 450 201 454 199 q 440 197 446 204 q 440 174 431 186 q 449 169 444 167 q 460 172 453 171 q 470 176 467 175 q 474 185 474 178 q 471 192 474 190 q 461 196 468 194 m 535 154 q 510 153 521 163 q 506 142 504 147 q 511 129 507 138 q 526 121 515 119 q 540 133 538 122 q 542 146 542 142 q 535 154 542 150 m 713 158 q 691 153 697 160 q 679 133 685 147 q 680 117 674 122 q 696 104 686 113 q 708 96 703 97 q 724 100 714 94 q 740 112 735 107 q 742 129 746 117 q 733 151 739 144 q 713 158 728 157 m 799 142 q 790 149 793 146 q 781 147 786 151 q 778 126 772 140 q 793 118 781 118 q 806 119 801 118 q 811 126 810 119 q 810 135 814 133 q 799 142 806 138 m 428 82 q 403 76 413 88 q 401 65 399 69 q 407 53 403 61 q 426 44 415 40 q 440 63 440 47 q 428 82 440 78 m 654 71 q 638 81 647 82 q 622 76 628 78 q 615 65 617 75 q 618 49 614 54 q 632 40 622 44 q 649 37 643 36 q 661 46 654 38 q 664 58 668 53 q 654 71 660 63 m 415 1042 q 392 1051 401 1042 q 383 1074 383 1060 l 383 1263 q 392 1285 383 1276 q 415 1294 401 1294 l 604 1294 q 627 1285 618 1294 q 636 1263 636 1276 l 636 1074 q 627 1051 636 1060 q 604 1042 618 1042 l 415 1042 m 551 1192 l 543 1200 l 531 1196 l 536 1185 l 549 1178 l 551 1192 m 504 1182 l 483 1185 l 481 1164 l 497 1153 l 511 1165 l 504 1182 m 592 1163 q 567 1160 576 1171 q 560 1149 560 1154 q 565 1136 561 1144 q 573 1122 569 1126 q 586 1118 576 1117 q 596 1126 596 1119 q 597 1142 596 1132 q 599 1155 599 1150 q 592 1163 599 1160 z "},"D":{"ha":1028,"x_min":76,"x_max":981,"o":"m 114 0 q 88 11 99 0 q 76 38 76 22 l 76 935 q 88 961 76 950 q 114 972 99 972 l 514 972 q 747 928 644 972 q 912 800 850 885 q 978 590 974 715 q 981 485 981 531 q 978 383 981 440 q 914 167 972 253 q 755 41 856 82 q 521 0 654 0 l 114 0 m 429 836 q 419 889 428 872 q 375 917 410 906 q 345 915 354 922 q 330 892 336 907 q 313 860 324 878 q 292 826 299 839 q 300 793 285 813 q 330 775 315 772 q 368 786 344 778 q 413 801 396 796 q 429 836 431 807 m 681 897 q 663 906 675 908 q 651 890 653 903 q 649 874 651 881 q 657 864 647 868 q 671 865 667 861 q 682 876 675 868 q 681 897 689 885 m 553 829 q 530 831 538 835 q 513 814 522 826 q 493 789 500 799 q 497 763 486 779 q 519 752 508 747 q 550 763 531 757 q 583 769 569 768 q 597 792 597 771 q 585 818 597 814 q 553 829 574 822 m 224 818 l 211 817 l 215 806 l 224 801 l 232 810 l 224 818 m 731 796 q 726 804 731 803 q 714 808 721 806 q 701 812 706 810 q 692 807 696 814 q 690 796 686 800 q 697 785 693 792 q 706 776 703 779 q 717 775 710 772 q 731 796 731 781 m 204 786 q 192 794 199 796 q 175 788 186 792 q 160 782 165 785 q 156 769 156 779 q 172 746 156 751 q 187 746 182 743 q 197 757 192 749 q 208 771 204 765 q 204 786 211 776 m 676 744 q 660 756 667 754 q 642 751 653 758 q 617 739 625 744 q 611 717 608 733 q 622 691 615 697 q 649 681 629 685 q 674 684 667 678 q 690 706 682 690 q 692 726 697 719 q 676 744 688 733 m 867 726 q 832 748 846 742 q 797 738 818 754 q 778 708 776 722 q 788 668 779 693 q 803 629 796 642 q 839 617 811 617 q 873 630 865 617 q 888 669 881 643 q 890 703 894 692 q 867 726 886 714 m 424 271 l 514 271 q 591 298 560 271 q 625 383 622 325 q 628 488 628 443 q 625 590 628 533 q 588 675 622 649 q 507 701 554 701 l 424 701 l 424 271 m 725 660 l 714 665 l 708 654 l 715 646 l 728 649 l 725 660 m 308 568 q 298 622 304 603 q 257 647 292 640 q 192 651 215 656 q 149 610 169 647 q 141 554 129 574 q 182 504 153 535 q 217 465 203 482 q 247 444 231 449 q 290 451 263 439 q 322 480 318 464 q 318 517 325 496 q 308 568 311 539 m 713 599 q 699 603 704 603 q 688 597 694 604 q 683 585 682 590 q 690 572 685 581 q 699 558 696 564 q 711 556 701 553 q 722 564 722 557 q 722 581 721 571 q 713 599 724 594 m 904 561 q 872 574 885 578 q 836 557 858 569 q 815 535 818 546 q 818 504 813 524 q 826 456 825 475 q 856 435 826 438 q 898 446 888 432 q 921 489 908 460 q 928 528 932 514 q 904 561 925 543 m 721 506 q 717 520 721 517 q 703 526 713 524 q 688 530 693 531 q 675 521 682 529 q 676 492 665 507 q 688 484 682 483 q 701 488 693 485 q 716 493 711 490 q 721 506 721 496 m 739 418 q 697 430 713 424 q 668 414 682 436 q 658 372 654 388 q 683 335 663 357 q 717 312 703 314 q 757 321 732 310 q 777 346 779 332 q 772 385 775 360 q 763 409 769 403 q 739 418 756 415 m 881 388 q 865 399 878 399 q 852 398 857 399 q 844 389 847 397 q 844 376 842 381 q 854 367 846 372 q 864 363 860 361 q 874 369 868 365 q 881 388 885 376 m 139 378 l 132 388 l 119 378 l 125 364 l 140 365 l 139 378 m 928 347 l 918 349 l 913 338 l 925 331 l 931 340 l 928 347 m 239 326 q 219 335 226 335 q 200 328 211 336 q 183 309 186 317 q 185 286 179 301 q 197 264 190 269 q 222 258 204 258 q 242 267 239 258 q 250 292 246 276 q 252 312 254 304 q 239 326 250 319 m 785 242 q 761 249 771 256 q 733 233 751 242 q 706 221 717 225 q 697 199 694 217 q 709 167 701 176 q 739 156 717 158 q 763 162 757 151 q 776 190 768 172 q 792 217 786 207 q 785 242 797 228 m 383 211 q 379 224 383 221 q 364 231 375 228 q 347 235 353 235 q 333 226 340 236 q 326 208 325 215 q 335 190 326 201 q 350 175 343 179 q 371 176 357 171 q 383 189 383 181 q 383 211 383 197 m 576 206 q 553 196 561 210 q 543 180 546 186 q 547 164 540 174 q 560 159 554 156 q 578 167 567 163 q 590 172 586 169 q 593 185 593 175 q 576 206 592 201 m 189 189 q 169 192 176 196 q 151 181 163 189 q 136 164 140 171 q 138 143 132 157 q 152 126 144 129 q 175 125 160 124 q 187 134 186 126 q 190 154 188 142 q 196 174 193 167 q 189 189 199 182 m 278 185 l 265 183 l 263 172 l 274 168 l 281 175 l 278 185 m 438 176 q 415 171 419 181 q 401 146 410 161 q 392 125 393 133 q 400 106 390 117 q 418 94 410 94 q 440 101 426 94 q 462 114 456 108 q 467 135 468 119 q 460 163 464 154 q 438 176 457 172 m 283 88 q 260 81 269 93 q 258 57 250 69 q 282 49 267 46 q 294 67 293 53 q 293 81 294 76 q 283 88 292 85 m 613 79 q 596 74 604 83 q 588 65 590 68 q 590 56 586 61 q 608 46 596 43 q 625 61 624 49 q 613 79 626 72 z "},"Ð":{"ha":1064,"x_min":19,"x_max":1013,"o":"m 147 0 q 121 11 132 0 q 110 38 110 22 l 110 381 l 57 381 q 31 392 42 381 q 19 418 19 403 l 19 558 q 31 585 19 574 q 57 596 42 596 l 110 596 l 110 935 q 121 961 110 950 q 147 972 132 972 l 547 972 q 783 928 678 972 q 950 800 888 885 q 1013 590 1013 715 l 1013 383 q 952 167 1013 253 q 787 41 892 82 q 549 0 682 0 l 147 0 m 553 925 l 538 929 l 522 919 l 535 906 l 554 906 l 553 925 m 313 914 q 301 920 307 922 q 288 917 296 918 q 274 903 275 914 q 272 889 272 894 q 281 879 272 883 q 292 881 289 876 q 300 892 294 886 q 312 902 307 899 q 313 914 317 906 m 625 886 q 607 899 614 896 q 588 893 600 901 q 576 878 576 886 q 579 858 575 871 q 586 843 581 846 q 603 839 592 840 q 622 839 615 838 q 633 851 629 840 q 637 871 639 864 q 625 886 635 878 m 782 853 l 765 860 l 756 842 l 769 825 l 789 833 l 782 853 m 513 813 q 500 836 513 833 q 468 846 488 839 q 442 852 451 851 q 421 839 432 853 q 401 808 407 819 q 410 778 396 797 q 435 766 422 761 q 468 778 447 771 q 500 788 488 785 q 513 813 513 792 m 282 788 q 245 786 257 793 q 219 757 233 779 q 210 726 207 738 q 228 696 214 714 q 257 663 246 675 q 293 661 268 650 q 324 688 321 672 q 325 732 326 703 q 315 769 324 758 q 282 788 307 781 m 640 783 q 628 783 632 786 q 619 772 625 779 q 617 751 611 761 q 625 747 621 746 q 635 749 629 747 q 646 752 642 751 q 650 760 650 753 q 649 774 650 769 q 640 783 649 779 m 876 743 q 853 756 861 750 q 833 750 844 761 q 828 731 822 739 q 842 708 835 722 q 868 696 849 693 q 884 701 879 697 q 892 715 889 704 q 890 732 893 726 q 876 743 886 738 m 457 271 l 547 271 q 622 298 593 271 q 651 383 651 325 l 651 590 q 623 675 651 649 q 547 701 594 701 l 457 701 l 457 596 l 535 596 q 561 585 550 596 q 572 558 572 574 l 572 418 q 561 392 572 403 q 535 381 550 381 l 457 381 l 457 271 m 826 656 q 817 666 824 665 q 801 667 811 667 q 781 668 789 667 q 769 657 774 669 q 768 637 765 644 q 782 621 771 629 q 799 619 793 614 q 814 631 804 624 q 826 641 822 636 q 826 656 829 646 m 957 578 q 942 610 950 601 q 908 621 933 619 q 866 619 881 622 q 840 589 851 615 q 847 558 832 565 q 882 535 863 551 q 908 513 899 521 q 936 517 918 504 q 960 542 957 529 q 957 578 963 554 m 296 589 q 286 601 290 597 q 272 604 282 606 q 260 596 263 601 q 257 581 258 590 q 255 561 256 568 q 265 550 254 554 q 288 542 279 543 q 307 551 296 540 q 310 569 317 563 q 296 589 303 576 m 768 542 q 753 549 760 549 q 739 543 747 550 q 731 531 731 536 q 736 515 732 525 q 757 501 742 500 q 774 503 768 501 q 782 515 779 504 q 781 531 785 526 q 768 542 778 536 m 493 543 q 478 544 483 547 q 464 533 472 540 q 449 519 454 524 q 449 501 443 514 q 463 488 456 490 q 483 488 469 486 q 504 494 497 490 q 514 511 511 497 q 510 531 515 525 q 493 543 506 536 m 121 535 l 110 528 l 101 517 l 115 508 l 122 521 l 121 535 m 757 464 q 736 473 744 474 q 714 463 728 472 q 695 445 700 453 q 694 421 690 438 q 709 403 700 406 q 735 401 718 401 q 759 403 750 401 q 774 419 768 404 q 775 444 779 436 q 757 464 771 453 m 314 429 q 313 453 313 444 q 300 465 314 463 q 278 464 285 469 q 263 444 272 458 q 257 426 256 433 q 267 408 258 418 q 282 396 275 397 q 301 400 289 394 q 314 410 313 404 q 314 429 315 417 m 840 424 q 821 428 828 428 q 806 418 814 429 q 800 402 797 408 q 810 385 803 396 q 838 375 819 369 q 856 381 850 378 q 864 397 863 383 q 858 414 864 410 q 840 424 853 418 m 336 351 q 314 360 322 360 q 294 350 306 360 q 286 333 283 340 q 294 313 289 325 q 303 302 297 303 q 319 303 310 301 q 335 306 329 304 q 343 317 340 307 q 347 337 346 329 q 336 351 347 344 m 906 286 q 872 321 886 311 q 829 321 858 331 q 791 294 799 310 q 785 244 783 278 q 798 206 786 215 q 839 188 810 196 q 886 177 868 178 q 921 203 904 176 q 932 245 939 229 q 906 286 925 261 m 394 317 l 381 310 l 386 296 l 400 293 l 407 307 l 394 317 m 217 307 q 206 303 208 307 q 200 289 203 299 q 206 272 196 279 q 218 259 214 265 q 231 258 222 253 q 238 270 240 264 q 232 288 235 276 q 228 301 229 296 q 217 307 226 307 m 513 215 q 494 222 504 226 q 486 204 485 218 q 499 192 488 194 q 509 190 506 190 q 517 196 513 190 q 513 215 522 206 m 233 207 q 218 214 224 213 q 204 207 213 215 q 199 175 190 193 q 210 165 204 165 q 226 167 217 165 q 245 170 239 169 q 254 183 251 171 q 250 198 256 194 q 233 207 244 201 m 422 139 q 414 174 419 163 q 386 190 408 186 q 352 188 363 196 q 331 158 342 179 q 315 124 318 138 q 329 93 313 111 q 358 79 344 76 q 392 92 371 82 q 417 109 411 100 q 422 139 424 118 m 540 113 q 519 124 528 124 q 496 115 510 124 q 477 99 482 107 q 476 74 472 92 q 487 48 481 56 q 511 39 493 40 q 540 42 531 38 q 557 65 550 47 q 560 92 565 83 q 540 113 556 100 m 731 86 q 724 96 729 94 q 710 100 718 97 q 689 93 694 103 q 684 81 685 86 q 689 69 683 76 q 699 63 694 63 q 713 68 704 64 q 726 74 721 72 q 731 86 732 76 z "},"Ď":{"ha":1028,"x_min":76,"x_max":981,"o":"m 114 0 q 88 11 99 0 q 76 38 76 22 l 76 935 q 88 961 76 950 q 114 972 99 972 l 514 972 q 747 928 644 972 q 912 800 850 885 q 978 590 974 715 q 981 485 981 531 q 978 383 981 440 q 914 167 972 253 q 755 41 856 82 q 521 0 654 0 l 114 0 m 429 836 q 419 889 428 872 q 375 917 410 906 q 345 915 354 922 q 330 892 336 907 q 313 860 324 878 q 292 826 299 839 q 300 793 285 813 q 330 775 315 772 q 368 786 344 778 q 413 801 396 796 q 429 836 431 807 m 681 897 q 663 906 675 908 q 651 890 653 903 q 649 874 651 881 q 657 864 647 868 q 671 865 667 861 q 682 876 675 868 q 681 897 689 885 m 553 829 q 530 831 538 835 q 513 814 522 826 q 493 789 500 799 q 497 763 486 779 q 519 752 508 747 q 550 763 531 757 q 583 769 569 768 q 597 792 597 771 q 585 818 597 814 q 553 829 574 822 m 224 818 l 211 817 l 215 806 l 224 801 l 232 810 l 224 818 m 731 796 q 726 804 731 803 q 714 808 721 806 q 701 812 706 810 q 692 807 696 814 q 690 796 686 800 q 697 785 693 792 q 706 776 703 779 q 717 775 710 772 q 731 796 731 781 m 204 786 q 192 794 199 796 q 175 788 186 792 q 160 782 165 785 q 156 769 156 779 q 172 746 156 751 q 187 746 182 743 q 197 757 192 749 q 208 771 204 765 q 204 786 211 776 m 676 744 q 660 756 667 754 q 642 751 653 758 q 617 739 625 744 q 611 717 608 733 q 622 691 615 697 q 649 681 629 685 q 674 684 667 678 q 690 706 682 690 q 692 726 697 719 q 676 744 688 733 m 867 726 q 832 748 846 742 q 797 738 818 754 q 778 708 776 722 q 788 668 779 693 q 803 629 796 642 q 839 617 811 617 q 873 630 865 617 q 888 669 881 643 q 890 703 894 692 q 867 726 886 714 m 424 271 l 514 271 q 591 298 560 271 q 625 383 622 325 q 628 488 628 443 q 625 590 628 533 q 588 675 622 649 q 507 701 554 701 l 424 701 l 424 271 m 725 660 l 714 665 l 708 654 l 715 646 l 728 649 l 725 660 m 308 568 q 298 622 304 603 q 257 647 292 640 q 192 651 215 656 q 149 610 169 647 q 141 554 129 574 q 182 504 153 535 q 217 465 203 482 q 247 444 231 449 q 290 451 263 439 q 322 480 318 464 q 318 517 325 496 q 308 568 311 539 m 713 599 q 699 603 704 603 q 688 597 694 604 q 683 585 682 590 q 690 572 685 581 q 699 558 696 564 q 711 556 701 553 q 722 564 722 557 q 722 581 721 571 q 713 599 724 594 m 904 561 q 872 574 885 578 q 836 557 858 569 q 815 535 818 546 q 818 504 813 524 q 826 456 825 475 q 856 435 826 438 q 898 446 888 432 q 921 489 908 460 q 928 528 932 514 q 904 561 925 543 m 721 506 q 717 520 721 517 q 703 526 713 524 q 688 530 693 531 q 675 521 682 529 q 676 492 665 507 q 688 484 682 483 q 701 488 693 485 q 716 493 711 490 q 721 506 721 496 m 739 418 q 697 430 713 424 q 668 414 682 436 q 658 372 654 388 q 683 335 663 357 q 717 312 703 314 q 757 321 732 310 q 777 346 779 332 q 772 385 775 360 q 763 409 769 403 q 739 418 756 415 m 881 388 q 865 399 878 399 q 852 398 857 399 q 844 389 847 397 q 844 376 842 381 q 854 367 846 372 q 864 363 860 361 q 874 369 868 365 q 881 388 885 376 m 139 378 l 132 388 l 119 378 l 125 364 l 140 365 l 139 378 m 928 347 l 918 349 l 913 338 l 925 331 l 931 340 l 928 347 m 239 326 q 219 335 226 335 q 200 328 211 336 q 183 309 186 317 q 185 286 179 301 q 197 264 190 269 q 222 258 204 258 q 242 267 239 258 q 250 292 246 276 q 252 312 254 304 q 239 326 250 319 m 785 242 q 761 249 771 256 q 733 233 751 242 q 706 221 717 225 q 697 199 694 217 q 709 167 701 176 q 739 156 717 158 q 763 162 757 151 q 776 190 768 172 q 792 217 786 207 q 785 242 797 228 m 383 211 q 379 224 383 221 q 364 231 375 228 q 347 235 353 235 q 333 226 340 236 q 326 208 325 215 q 335 190 326 201 q 350 175 343 179 q 371 176 357 171 q 383 189 383 181 q 383 211 383 197 m 576 206 q 553 196 561 210 q 543 180 546 186 q 547 164 540 174 q 560 159 554 156 q 578 167 567 163 q 590 172 586 169 q 593 185 593 175 q 576 206 592 201 m 189 189 q 169 192 176 196 q 151 181 163 189 q 136 164 140 171 q 138 143 132 157 q 152 126 144 129 q 175 125 160 124 q 187 134 186 126 q 190 154 188 142 q 196 174 193 167 q 189 189 199 182 m 278 185 l 265 183 l 263 172 l 274 168 l 281 175 l 278 185 m 438 176 q 415 171 419 181 q 401 146 410 161 q 392 125 393 133 q 400 106 390 117 q 418 94 410 94 q 440 101 426 94 q 462 114 456 108 q 467 135 468 119 q 460 163 464 154 q 438 176 457 172 m 283 88 q 260 81 269 93 q 258 57 250 69 q 282 49 267 46 q 294 67 293 53 q 293 81 294 76 q 283 88 292 85 m 613 79 q 596 74 604 83 q 588 65 590 68 q 590 56 586 61 q 608 46 596 43 q 625 61 624 49 q 613 79 626 72 m 415 1042 q 364 1068 389 1042 l 208 1238 q 201 1256 201 1244 q 224 1278 201 1278 l 322 1278 q 350 1276 336 1278 q 378 1268 364 1275 l 506 1210 l 633 1268 q 662 1276 649 1275 q 689 1278 675 1278 l 788 1278 q 810 1256 810 1278 q 803 1238 810 1244 l 647 1068 q 596 1042 622 1042 l 415 1042 m 324 1226 l 311 1239 l 296 1224 l 306 1204 l 326 1210 l 324 1226 m 638 1231 q 618 1223 622 1232 q 607 1200 614 1214 q 594 1176 600 1185 q 601 1156 589 1167 q 623 1147 614 1143 q 647 1158 632 1150 q 670 1172 663 1167 q 675 1194 678 1178 q 664 1221 671 1214 q 638 1231 657 1228 m 419 1207 q 394 1208 406 1217 q 388 1183 382 1200 q 407 1168 392 1168 q 428 1183 424 1168 q 419 1207 432 1197 m 522 1185 q 509 1183 514 1185 q 501 1172 504 1181 q 497 1156 497 1163 q 506 1143 497 1150 q 518 1142 514 1138 q 531 1153 522 1147 q 539 1171 543 1161 q 522 1185 535 1185 m 492 1090 q 484 1101 490 1101 q 467 1104 478 1101 q 447 1097 453 1107 q 440 1083 442 1089 q 446 1071 439 1078 q 458 1063 453 1063 q 472 1068 464 1064 q 488 1077 482 1074 q 492 1090 493 1081 z "},"Đ":{"ha":1061,"x_min":19,"x_max":1014,"o":"m 147 0 q 121 11 132 0 q 110 38 110 22 l 110 382 l 57 382 q 31 393 42 382 q 19 419 19 404 l 19 560 q 31 586 19 575 q 57 597 42 597 l 110 597 l 110 935 q 121 961 110 950 q 147 972 132 972 l 547 972 q 781 928 678 972 q 945 800 883 885 q 1011 590 1007 715 q 1014 485 1014 531 q 1011 383 1014 440 q 946 167 1006 253 q 784 41 886 82 q 549 0 682 0 l 147 0 m 738 892 q 703 879 708 897 q 685 835 697 861 q 665 804 675 817 q 652 780 654 792 q 665 754 650 768 q 706 737 689 731 q 753 758 724 743 q 776 783 775 769 q 774 821 776 797 q 767 869 768 851 q 738 892 767 888 m 588 857 q 585 867 586 864 q 576 872 583 871 q 562 873 567 874 q 554 864 557 872 q 557 838 546 849 q 585 832 571 824 q 591 842 593 836 q 588 857 589 847 m 325 814 q 309 849 318 839 q 275 860 300 858 q 238 852 249 861 q 218 818 228 843 q 207 776 208 792 q 229 743 206 760 q 263 735 250 726 q 300 758 276 743 q 325 781 318 771 q 325 814 332 792 m 157 858 l 147 851 l 147 842 l 157 840 l 165 849 l 157 858 m 440 840 q 431 838 433 840 q 426 828 429 835 q 420 815 422 819 q 425 806 418 811 q 435 802 431 800 q 447 810 439 804 q 458 817 454 814 q 461 828 463 819 q 454 838 458 836 q 440 840 450 839 m 849 774 l 844 783 l 835 778 l 836 769 l 846 764 l 849 774 m 457 271 l 547 271 q 624 298 593 271 q 658 383 656 325 q 661 488 661 443 q 658 590 661 533 q 625 675 656 649 q 547 701 594 701 l 457 701 l 457 597 l 535 597 q 561 586 550 597 q 572 560 572 575 l 572 419 q 561 393 572 404 q 535 382 550 382 l 457 382 l 457 271 m 939 683 q 926 689 931 690 q 911 682 921 688 q 901 663 899 676 q 906 649 903 653 q 918 643 908 644 q 929 646 926 642 q 936 658 932 650 q 942 672 940 667 q 939 683 944 676 m 696 688 l 683 686 l 679 675 l 689 663 l 699 675 l 696 688 m 190 667 q 168 676 182 681 q 151 657 151 672 q 156 646 151 647 q 168 642 160 644 q 183 634 178 638 q 196 639 189 631 q 200 653 203 647 q 190 667 197 658 m 353 660 q 324 667 335 664 q 304 654 314 669 q 301 629 294 638 q 319 607 307 621 q 338 593 329 594 q 360 597 346 592 q 376 610 374 603 q 378 632 379 617 q 372 651 376 646 q 353 660 367 657 m 242 649 l 228 646 l 221 636 l 231 624 l 240 635 l 242 649 m 813 644 l 804 642 l 800 632 l 811 631 l 819 636 l 813 644 m 747 581 l 736 594 l 719 588 l 725 572 l 739 567 l 747 581 m 901 581 q 887 577 890 583 q 876 561 883 571 q 869 547 871 551 q 872 533 867 542 q 886 520 881 524 q 904 521 892 517 q 913 533 915 525 q 911 551 911 540 q 912 570 911 563 q 901 581 913 578 m 251 536 q 233 536 239 542 q 218 522 228 531 q 208 510 211 515 q 211 496 206 506 q 219 478 215 483 q 236 474 224 472 q 261 478 253 475 q 272 497 269 482 q 271 521 276 514 q 251 536 265 528 m 396 528 q 363 527 374 538 q 335 499 351 517 q 315 471 319 482 q 321 440 310 460 q 344 409 333 418 q 381 406 354 400 q 406 424 404 410 q 411 461 408 438 q 417 501 414 486 q 396 528 419 517 m 158 490 q 151 495 156 496 q 140 493 147 494 q 128 482 129 490 q 136 465 126 469 q 149 462 144 463 q 158 467 153 461 q 163 478 164 474 q 158 490 163 482 m 750 476 q 728 471 736 482 q 721 458 722 463 q 725 444 719 453 q 735 440 731 438 q 749 444 740 442 q 758 458 758 447 q 758 470 758 465 q 750 476 757 475 m 71 474 l 56 467 l 60 447 l 81 447 l 86 465 l 71 474 m 901 401 q 864 423 878 413 q 832 414 850 433 q 811 376 811 392 q 826 333 811 360 q 853 312 839 310 q 893 319 868 314 q 934 327 919 324 q 953 357 949 331 q 940 387 956 382 q 901 401 925 392 m 313 363 l 303 360 l 300 344 l 315 344 l 321 356 l 313 363 m 765 338 q 750 348 757 347 q 732 343 743 349 q 715 333 719 338 q 711 315 710 328 q 720 303 713 303 q 739 300 728 303 q 756 297 750 299 q 768 304 763 294 q 765 338 779 322 m 319 294 q 257 297 279 301 q 215 257 235 293 q 204 199 196 219 q 242 149 213 179 q 286 124 267 122 q 338 142 306 125 q 380 172 369 157 q 385 221 390 186 q 368 273 381 258 q 319 294 356 288 m 815 261 q 801 271 807 268 q 786 267 794 274 q 775 253 776 260 q 778 235 774 247 q 787 226 781 225 q 803 228 793 228 q 815 228 811 228 q 822 236 819 229 q 815 261 828 253 m 638 206 q 628 226 632 219 q 608 232 624 233 q 589 224 593 231 q 582 201 585 217 q 580 179 578 186 q 596 164 582 172 q 613 164 607 158 q 628 178 618 169 q 640 190 636 185 q 638 206 643 196 m 535 224 q 515 225 521 232 q 499 208 508 218 q 491 196 490 201 q 496 182 492 190 q 504 169 500 172 q 518 167 508 165 q 540 169 532 168 q 550 183 547 171 q 551 208 553 200 q 535 224 549 217 m 735 208 q 701 203 715 218 q 693 187 693 193 q 699 169 693 181 q 726 156 708 153 q 739 164 738 158 q 742 179 740 169 q 744 197 743 190 q 735 208 744 203 m 674 126 l 661 135 l 653 125 l 656 115 l 665 115 l 674 126 m 531 103 q 508 117 517 111 q 488 113 500 122 q 476 92 475 101 q 485 67 478 82 q 497 53 489 54 q 517 54 504 53 q 534 58 529 56 q 542 72 539 61 q 531 103 547 92 z "},"E":{"ha":926,"x_min":76,"x_max":875,"o":"m 114 0 q 88 11 99 0 q 76 38 76 22 l 76 935 q 88 961 76 950 q 114 972 99 972 l 826 972 q 853 961 842 972 q 864 935 864 950 l 864 739 q 853 713 864 724 q 826 701 842 701 l 410 701 l 410 614 l 796 614 q 822 603 811 614 q 833 576 833 592 l 833 396 q 822 369 833 381 q 796 358 811 358 l 410 358 l 410 271 l 838 271 q 864 260 853 271 q 875 233 875 249 l 875 38 q 864 11 875 22 q 838 0 853 0 l 114 0 m 581 913 q 567 921 575 924 q 549 917 560 918 q 528 917 536 915 q 518 906 519 918 q 521 889 515 893 q 539 878 526 885 q 556 869 550 872 q 572 874 563 865 q 585 891 583 883 q 581 913 586 899 m 188 904 q 170 916 178 914 q 150 913 163 918 q 124 899 133 904 q 115 876 114 894 q 129 857 118 858 q 158 851 140 856 q 183 849 174 849 q 199 863 192 849 q 203 884 207 876 q 188 904 199 892 m 738 899 q 720 906 728 908 q 700 897 713 904 q 678 887 686 890 q 672 868 671 883 q 683 851 675 853 q 707 847 692 850 q 730 843 721 844 q 746 856 739 842 q 751 878 753 869 q 738 899 749 886 m 492 883 q 490 897 492 893 q 479 903 488 901 q 465 905 469 906 q 454 897 460 904 q 456 869 446 883 q 466 863 461 863 q 479 867 471 864 q 492 883 492 871 m 408 885 l 400 892 l 393 885 l 393 874 l 406 872 l 408 885 m 797 871 l 785 876 l 774 872 l 776 858 l 790 858 l 797 871 m 346 857 q 323 856 329 863 q 307 835 317 849 q 293 813 297 821 q 299 792 289 806 q 319 774 310 778 q 344 776 328 771 q 363 791 361 782 q 364 817 364 800 q 363 843 364 833 q 346 857 361 853 m 235 839 l 226 832 l 229 822 l 242 818 l 244 832 l 235 839 m 546 811 q 536 813 540 815 q 526 804 532 810 q 517 798 521 800 q 515 789 513 796 q 521 776 518 781 q 533 772 524 772 q 553 788 547 772 q 546 811 558 801 m 713 779 q 703 778 706 782 q 696 768 701 774 q 690 759 692 763 q 692 750 688 756 q 710 746 697 743 q 722 750 717 749 q 726 758 726 751 q 713 779 728 774 m 204 729 q 190 741 194 736 q 175 739 185 746 q 161 725 164 732 q 163 706 158 718 q 172 691 165 693 q 190 689 178 689 q 211 690 204 689 q 224 703 218 690 q 221 718 228 714 q 204 729 214 722 m 289 718 l 276 711 l 275 703 l 283 693 l 290 704 l 289 718 m 189 629 q 167 628 174 633 q 150 611 160 624 q 141 591 142 599 q 150 572 140 583 q 166 555 158 560 q 189 554 174 550 q 203 568 203 560 q 204 592 204 576 q 203 615 204 607 q 189 629 203 624 m 410 536 q 381 544 392 546 q 356 531 371 543 q 336 505 340 515 q 340 475 332 494 q 359 442 350 453 q 393 433 368 431 q 424 448 418 436 q 436 485 431 460 q 434 515 440 506 q 410 536 428 525 m 536 532 q 514 536 528 542 q 503 530 506 533 q 500 518 500 526 q 517 499 501 503 q 526 501 524 497 q 533 511 529 504 q 539 522 538 518 q 536 532 540 526 m 232 492 q 220 499 225 497 q 208 494 215 500 q 196 484 199 489 q 196 468 193 479 q 204 455 199 458 q 221 451 210 451 q 235 456 231 451 q 242 469 239 460 q 242 482 244 478 q 232 492 240 486 m 583 486 l 571 494 l 558 489 l 563 474 l 576 474 l 583 486 m 140 486 l 122 483 l 125 464 l 142 461 l 154 474 l 140 486 m 524 446 q 512 456 515 451 q 500 456 508 461 q 489 426 483 444 q 497 417 490 417 q 513 417 503 417 q 527 417 522 417 q 535 425 532 417 q 534 437 538 433 q 524 446 531 440 m 238 422 l 231 418 l 228 407 l 240 404 l 246 414 l 238 422 m 282 369 q 267 385 272 378 q 251 385 263 392 q 244 372 240 379 q 250 351 247 364 q 255 336 253 342 q 267 329 257 331 q 285 331 279 328 q 294 344 290 333 q 294 358 299 354 q 282 369 289 363 m 176 369 q 159 371 165 371 q 149 360 153 371 q 154 328 140 342 q 171 317 164 319 q 189 322 178 315 q 197 335 199 328 q 193 353 194 342 q 176 369 190 368 m 178 265 q 178 280 178 274 q 168 288 178 286 q 158 285 160 290 q 151 271 156 279 q 151 256 146 263 q 160 247 157 250 q 169 247 163 244 q 178 265 179 251 m 267 206 q 263 226 267 219 q 247 236 260 232 q 219 243 229 242 q 200 229 210 244 q 198 208 190 215 q 215 188 206 200 q 231 171 225 176 q 250 171 236 165 q 265 183 264 175 q 267 206 267 190 m 633 224 q 606 222 614 231 q 586 197 597 214 q 570 170 575 181 q 576 144 565 160 q 600 131 589 128 q 629 140 611 135 q 649 153 644 146 q 653 175 653 160 q 652 207 653 196 q 633 224 651 218 m 350 178 l 331 183 l 328 164 l 339 156 l 349 163 l 350 178 m 811 143 q 806 158 808 153 q 793 164 803 164 q 774 161 781 164 q 764 147 768 158 q 765 133 760 138 q 779 121 769 128 q 795 106 789 113 q 813 107 801 100 q 819 123 824 115 q 811 143 815 131 m 426 150 l 413 151 l 411 138 l 422 131 l 429 140 l 426 150 m 488 63 l 476 63 l 475 53 l 485 47 l 492 54 l 488 63 z "},"É":{"ha":926,"x_min":76,"x_max":875,"o":"m 114 0 q 88 11 99 0 q 76 38 76 22 l 76 935 q 88 961 76 950 q 114 972 99 972 l 826 972 q 853 961 842 972 q 864 935 864 950 l 864 739 q 853 713 864 724 q 826 701 842 701 l 410 701 l 410 614 l 796 614 q 822 603 811 614 q 833 576 833 592 l 833 396 q 822 369 833 381 q 796 358 811 358 l 410 358 l 410 271 l 838 271 q 864 260 853 271 q 875 233 875 249 l 875 38 q 864 11 875 22 q 838 0 853 0 l 114 0 m 581 913 q 567 921 575 924 q 549 917 560 918 q 528 917 536 915 q 518 906 519 918 q 521 889 515 893 q 539 878 526 885 q 556 869 550 872 q 572 874 563 865 q 585 891 583 883 q 581 913 586 899 m 188 904 q 170 916 178 914 q 150 913 163 918 q 124 899 133 904 q 115 876 114 894 q 129 857 118 858 q 158 851 140 856 q 183 849 174 849 q 199 863 192 849 q 203 884 207 876 q 188 904 199 892 m 738 899 q 720 906 728 908 q 700 897 713 904 q 678 887 686 890 q 672 868 671 883 q 683 851 675 853 q 707 847 692 850 q 730 843 721 844 q 746 856 739 842 q 751 878 753 869 q 738 899 749 886 m 492 883 q 490 897 492 893 q 479 903 488 901 q 465 905 469 906 q 454 897 460 904 q 456 869 446 883 q 466 863 461 863 q 479 867 471 864 q 492 883 492 871 m 408 885 l 400 892 l 393 885 l 393 874 l 406 872 l 408 885 m 797 871 l 785 876 l 774 872 l 776 858 l 790 858 l 797 871 m 346 857 q 323 856 329 863 q 307 835 317 849 q 293 813 297 821 q 299 792 289 806 q 319 774 310 778 q 344 776 328 771 q 363 791 361 782 q 364 817 364 800 q 363 843 364 833 q 346 857 361 853 m 235 839 l 226 832 l 229 822 l 242 818 l 244 832 l 235 839 m 546 811 q 536 813 540 815 q 526 804 532 810 q 517 798 521 800 q 515 789 513 796 q 521 776 518 781 q 533 772 524 772 q 553 788 547 772 q 546 811 558 801 m 713 779 q 703 778 706 782 q 696 768 701 774 q 690 759 692 763 q 692 750 688 756 q 710 746 697 743 q 722 750 717 749 q 726 758 726 751 q 713 779 728 774 m 204 729 q 190 741 194 736 q 175 739 185 746 q 161 725 164 732 q 163 706 158 718 q 172 691 165 693 q 190 689 178 689 q 211 690 204 689 q 224 703 218 690 q 221 718 228 714 q 204 729 214 722 m 289 718 l 276 711 l 275 703 l 283 693 l 290 704 l 289 718 m 189 629 q 167 628 174 633 q 150 611 160 624 q 141 591 142 599 q 150 572 140 583 q 166 555 158 560 q 189 554 174 550 q 203 568 203 560 q 204 592 204 576 q 203 615 204 607 q 189 629 203 624 m 410 536 q 381 544 392 546 q 356 531 371 543 q 336 505 340 515 q 340 475 332 494 q 359 442 350 453 q 393 433 368 431 q 424 448 418 436 q 436 485 431 460 q 434 515 440 506 q 410 536 428 525 m 536 532 q 514 536 528 542 q 503 530 506 533 q 500 518 500 526 q 517 499 501 503 q 526 501 524 497 q 533 511 529 504 q 539 522 538 518 q 536 532 540 526 m 232 492 q 220 499 225 497 q 208 494 215 500 q 196 484 199 489 q 196 468 193 479 q 204 455 199 458 q 221 451 210 451 q 235 456 231 451 q 242 469 239 460 q 242 482 244 478 q 232 492 240 486 m 583 486 l 571 494 l 558 489 l 563 474 l 576 474 l 583 486 m 140 486 l 122 483 l 125 464 l 142 461 l 154 474 l 140 486 m 524 446 q 512 456 515 451 q 500 456 508 461 q 489 426 483 444 q 497 417 490 417 q 513 417 503 417 q 527 417 522 417 q 535 425 532 417 q 534 437 538 433 q 524 446 531 440 m 238 422 l 231 418 l 228 407 l 240 404 l 246 414 l 238 422 m 282 369 q 267 385 272 378 q 251 385 263 392 q 244 372 240 379 q 250 351 247 364 q 255 336 253 342 q 267 329 257 331 q 285 331 279 328 q 294 344 290 333 q 294 358 299 354 q 282 369 289 363 m 176 369 q 159 371 165 371 q 149 360 153 371 q 154 328 140 342 q 171 317 164 319 q 189 322 178 315 q 197 335 199 328 q 193 353 194 342 q 176 369 190 368 m 178 265 q 178 280 178 274 q 168 288 178 286 q 158 285 160 290 q 151 271 156 279 q 151 256 146 263 q 160 247 157 250 q 169 247 163 244 q 178 265 179 251 m 267 206 q 263 226 267 219 q 247 236 260 232 q 219 243 229 242 q 200 229 210 244 q 198 208 190 215 q 215 188 206 200 q 231 171 225 176 q 250 171 236 165 q 265 183 264 175 q 267 206 267 190 m 633 224 q 606 222 614 231 q 586 197 597 214 q 570 170 575 181 q 576 144 565 160 q 600 131 589 128 q 629 140 611 135 q 649 153 644 146 q 653 175 653 160 q 652 207 653 196 q 633 224 651 218 m 350 178 l 331 183 l 328 164 l 339 156 l 349 163 l 350 178 m 811 143 q 806 158 808 153 q 793 164 803 164 q 774 161 781 164 q 764 147 768 158 q 765 133 760 138 q 779 121 769 128 q 795 106 789 113 q 813 107 801 100 q 819 123 824 115 q 811 143 815 131 m 426 150 l 413 151 l 411 138 l 422 131 l 429 140 l 426 150 m 488 63 l 476 63 l 475 53 l 485 47 l 492 54 l 488 63 m 335 1042 q 313 1064 313 1042 q 319 1082 313 1075 l 458 1251 q 484 1274 474 1269 q 510 1278 494 1278 l 782 1278 q 808 1250 808 1278 q 801 1233 808 1240 l 597 1065 q 574 1049 586 1056 q 539 1042 561 1042 l 335 1042 m 578 1264 l 561 1263 l 556 1247 l 569 1242 l 581 1249 l 578 1264 m 668 1190 l 653 1201 l 639 1188 l 646 1171 l 664 1174 l 668 1190 m 588 1114 q 583 1124 585 1121 q 574 1128 581 1128 q 559 1126 564 1128 q 553 1114 554 1124 q 554 1103 550 1107 q 565 1096 558 1100 q 578 1085 574 1090 q 590 1086 583 1081 q 595 1099 599 1093 q 588 1114 592 1104 z "},"Ĕ":{"ha":926,"x_min":76,"x_max":875,"o":"m 114 0 q 88 11 99 0 q 76 38 76 22 l 76 935 q 88 961 76 950 q 114 972 99 972 l 826 972 q 853 961 842 972 q 864 935 864 950 l 864 739 q 853 713 864 724 q 826 701 842 701 l 410 701 l 410 614 l 796 614 q 822 603 811 614 q 833 576 833 592 l 833 396 q 822 369 833 381 q 796 358 811 358 l 410 358 l 410 271 l 838 271 q 864 260 853 271 q 875 233 875 249 l 875 38 q 864 11 875 22 q 838 0 853 0 l 114 0 m 581 913 q 567 921 575 924 q 549 917 560 918 q 528 917 536 915 q 518 906 519 918 q 521 889 515 893 q 539 878 526 885 q 556 869 550 872 q 572 874 563 865 q 585 891 583 883 q 581 913 586 899 m 188 904 q 170 916 178 914 q 150 913 163 918 q 124 899 133 904 q 115 876 114 894 q 129 857 118 858 q 158 851 140 856 q 183 849 174 849 q 199 863 192 849 q 203 884 207 876 q 188 904 199 892 m 738 899 q 720 906 728 908 q 700 897 713 904 q 678 887 686 890 q 672 868 671 883 q 683 851 675 853 q 707 847 692 850 q 730 843 721 844 q 746 856 739 842 q 751 878 753 869 q 738 899 749 886 m 492 883 q 490 897 492 893 q 479 903 488 901 q 465 905 469 906 q 454 897 460 904 q 456 869 446 883 q 466 863 461 863 q 479 867 471 864 q 492 883 492 871 m 408 885 l 400 892 l 393 885 l 393 874 l 406 872 l 408 885 m 797 871 l 785 876 l 774 872 l 776 858 l 790 858 l 797 871 m 346 857 q 323 856 329 863 q 307 835 317 849 q 293 813 297 821 q 299 792 289 806 q 319 774 310 778 q 344 776 328 771 q 363 791 361 782 q 364 817 364 800 q 363 843 364 833 q 346 857 361 853 m 235 839 l 226 832 l 229 822 l 242 818 l 244 832 l 235 839 m 546 811 q 536 813 540 815 q 526 804 532 810 q 517 798 521 800 q 515 789 513 796 q 521 776 518 781 q 533 772 524 772 q 553 788 547 772 q 546 811 558 801 m 713 779 q 703 778 706 782 q 696 768 701 774 q 690 759 692 763 q 692 750 688 756 q 710 746 697 743 q 722 750 717 749 q 726 758 726 751 q 713 779 728 774 m 204 729 q 190 741 194 736 q 175 739 185 746 q 161 725 164 732 q 163 706 158 718 q 172 691 165 693 q 190 689 178 689 q 211 690 204 689 q 224 703 218 690 q 221 718 228 714 q 204 729 214 722 m 289 718 l 276 711 l 275 703 l 283 693 l 290 704 l 289 718 m 189 629 q 167 628 174 633 q 150 611 160 624 q 141 591 142 599 q 150 572 140 583 q 166 555 158 560 q 189 554 174 550 q 203 568 203 560 q 204 592 204 576 q 203 615 204 607 q 189 629 203 624 m 410 536 q 381 544 392 546 q 356 531 371 543 q 336 505 340 515 q 340 475 332 494 q 359 442 350 453 q 393 433 368 431 q 424 448 418 436 q 436 485 431 460 q 434 515 440 506 q 410 536 428 525 m 536 532 q 514 536 528 542 q 503 530 506 533 q 500 518 500 526 q 517 499 501 503 q 526 501 524 497 q 533 511 529 504 q 539 522 538 518 q 536 532 540 526 m 232 492 q 220 499 225 497 q 208 494 215 500 q 196 484 199 489 q 196 468 193 479 q 204 455 199 458 q 221 451 210 451 q 235 456 231 451 q 242 469 239 460 q 242 482 244 478 q 232 492 240 486 m 583 486 l 571 494 l 558 489 l 563 474 l 576 474 l 583 486 m 140 486 l 122 483 l 125 464 l 142 461 l 154 474 l 140 486 m 524 446 q 512 456 515 451 q 500 456 508 461 q 489 426 483 444 q 497 417 490 417 q 513 417 503 417 q 527 417 522 417 q 535 425 532 417 q 534 437 538 433 q 524 446 531 440 m 238 422 l 231 418 l 228 407 l 240 404 l 246 414 l 238 422 m 282 369 q 267 385 272 378 q 251 385 263 392 q 244 372 240 379 q 250 351 247 364 q 255 336 253 342 q 267 329 257 331 q 285 331 279 328 q 294 344 290 333 q 294 358 299 354 q 282 369 289 363 m 176 369 q 159 371 165 371 q 149 360 153 371 q 154 328 140 342 q 171 317 164 319 q 189 322 178 315 q 197 335 199 328 q 193 353 194 342 q 176 369 190 368 m 178 265 q 178 280 178 274 q 168 288 178 286 q 158 285 160 290 q 151 271 156 279 q 151 256 146 263 q 160 247 157 250 q 169 247 163 244 q 178 265 179 251 m 267 206 q 263 226 267 219 q 247 236 260 232 q 219 243 229 242 q 200 229 210 244 q 198 208 190 215 q 215 188 206 200 q 231 171 225 176 q 250 171 236 165 q 265 183 264 175 q 267 206 267 190 m 633 224 q 606 222 614 231 q 586 197 597 214 q 570 170 575 181 q 576 144 565 160 q 600 131 589 128 q 629 140 611 135 q 649 153 644 146 q 653 175 653 160 q 652 207 653 196 q 633 224 651 218 m 350 178 l 331 183 l 328 164 l 339 156 l 349 163 l 350 178 m 811 143 q 806 158 808 153 q 793 164 803 164 q 774 161 781 164 q 764 147 768 158 q 765 133 760 138 q 779 121 769 128 q 795 106 789 113 q 813 107 801 100 q 819 123 824 115 q 811 143 815 131 m 426 150 l 413 151 l 411 138 l 422 131 l 429 140 l 426 150 m 488 63 l 476 63 l 475 53 l 485 47 l 492 54 l 488 63 m 464 1035 q 278 1097 339 1035 q 218 1251 218 1158 q 225 1270 218 1263 q 244 1278 232 1278 l 382 1278 q 401 1270 394 1278 q 408 1251 408 1263 q 419 1198 408 1221 q 464 1175 431 1175 q 508 1198 497 1175 q 519 1251 519 1221 q 526 1270 519 1263 q 546 1278 533 1278 l 683 1278 q 703 1270 696 1278 q 710 1251 710 1263 q 649 1097 710 1158 q 464 1035 589 1035 m 599 1201 q 565 1210 578 1215 q 533 1190 553 1206 q 517 1165 517 1176 q 525 1135 518 1154 q 540 1106 533 1115 q 568 1097 547 1096 q 597 1108 590 1099 q 608 1139 603 1118 q 616 1175 614 1161 q 599 1201 618 1189 m 317 1192 l 304 1185 l 307 1171 l 322 1165 l 325 1181 l 317 1192 m 272 1186 l 256 1190 l 254 1172 l 267 1167 l 283 1171 l 272 1186 z "},"Ě":{"ha":926,"x_min":76,"x_max":875,"o":"m 114 0 q 88 11 99 0 q 76 38 76 22 l 76 935 q 88 961 76 950 q 114 972 99 972 l 826 972 q 853 961 842 972 q 864 935 864 950 l 864 739 q 853 713 864 724 q 826 701 842 701 l 410 701 l 410 614 l 796 614 q 822 603 811 614 q 833 576 833 592 l 833 396 q 822 369 833 381 q 796 358 811 358 l 410 358 l 410 271 l 838 271 q 864 260 853 271 q 875 233 875 249 l 875 38 q 864 11 875 22 q 838 0 853 0 l 114 0 m 581 913 q 567 921 575 924 q 549 917 560 918 q 528 917 536 915 q 518 906 519 918 q 521 889 515 893 q 539 878 526 885 q 556 869 550 872 q 572 874 563 865 q 585 891 583 883 q 581 913 586 899 m 188 904 q 170 916 178 914 q 150 913 163 918 q 124 899 133 904 q 115 876 114 894 q 129 857 118 858 q 158 851 140 856 q 183 849 174 849 q 199 863 192 849 q 203 884 207 876 q 188 904 199 892 m 738 899 q 720 906 728 908 q 700 897 713 904 q 678 887 686 890 q 672 868 671 883 q 683 851 675 853 q 707 847 692 850 q 730 843 721 844 q 746 856 739 842 q 751 878 753 869 q 738 899 749 886 m 492 883 q 490 897 492 893 q 479 903 488 901 q 465 905 469 906 q 454 897 460 904 q 456 869 446 883 q 466 863 461 863 q 479 867 471 864 q 492 883 492 871 m 408 885 l 400 892 l 393 885 l 393 874 l 406 872 l 408 885 m 797 871 l 785 876 l 774 872 l 776 858 l 790 858 l 797 871 m 346 857 q 323 856 329 863 q 307 835 317 849 q 293 813 297 821 q 299 792 289 806 q 319 774 310 778 q 344 776 328 771 q 363 791 361 782 q 364 817 364 800 q 363 843 364 833 q 346 857 361 853 m 235 839 l 226 832 l 229 822 l 242 818 l 244 832 l 235 839 m 546 811 q 536 813 540 815 q 526 804 532 810 q 517 798 521 800 q 515 789 513 796 q 521 776 518 781 q 533 772 524 772 q 553 788 547 772 q 546 811 558 801 m 713 779 q 703 778 706 782 q 696 768 701 774 q 690 759 692 763 q 692 750 688 756 q 710 746 697 743 q 722 750 717 749 q 726 758 726 751 q 713 779 728 774 m 204 729 q 190 741 194 736 q 175 739 185 746 q 161 725 164 732 q 163 706 158 718 q 172 691 165 693 q 190 689 178 689 q 211 690 204 689 q 224 703 218 690 q 221 718 228 714 q 204 729 214 722 m 289 718 l 276 711 l 275 703 l 283 693 l 290 704 l 289 718 m 189 629 q 167 628 174 633 q 150 611 160 624 q 141 591 142 599 q 150 572 140 583 q 166 555 158 560 q 189 554 174 550 q 203 568 203 560 q 204 592 204 576 q 203 615 204 607 q 189 629 203 624 m 410 536 q 381 544 392 546 q 356 531 371 543 q 336 505 340 515 q 340 475 332 494 q 359 442 350 453 q 393 433 368 431 q 424 448 418 436 q 436 485 431 460 q 434 515 440 506 q 410 536 428 525 m 536 532 q 514 536 528 542 q 503 530 506 533 q 500 518 500 526 q 517 499 501 503 q 526 501 524 497 q 533 511 529 504 q 539 522 538 518 q 536 532 540 526 m 232 492 q 220 499 225 497 q 208 494 215 500 q 196 484 199 489 q 196 468 193 479 q 204 455 199 458 q 221 451 210 451 q 235 456 231 451 q 242 469 239 460 q 242 482 244 478 q 232 492 240 486 m 583 486 l 571 494 l 558 489 l 563 474 l 576 474 l 583 486 m 140 486 l 122 483 l 125 464 l 142 461 l 154 474 l 140 486 m 524 446 q 512 456 515 451 q 500 456 508 461 q 489 426 483 444 q 497 417 490 417 q 513 417 503 417 q 527 417 522 417 q 535 425 532 417 q 534 437 538 433 q 524 446 531 440 m 238 422 l 231 418 l 228 407 l 240 404 l 246 414 l 238 422 m 282 369 q 267 385 272 378 q 251 385 263 392 q 244 372 240 379 q 250 351 247 364 q 255 336 253 342 q 267 329 257 331 q 285 331 279 328 q 294 344 290 333 q 294 358 299 354 q 282 369 289 363 m 176 369 q 159 371 165 371 q 149 360 153 371 q 154 328 140 342 q 171 317 164 319 q 189 322 178 315 q 197 335 199 328 q 193 353 194 342 q 176 369 190 368 m 178 265 q 178 280 178 274 q 168 288 178 286 q 158 285 160 290 q 151 271 156 279 q 151 256 146 263 q 160 247 157 250 q 169 247 163 244 q 178 265 179 251 m 267 206 q 263 226 267 219 q 247 236 260 232 q 219 243 229 242 q 200 229 210 244 q 198 208 190 215 q 215 188 206 200 q 231 171 225 176 q 250 171 236 165 q 265 183 264 175 q 267 206 267 190 m 633 224 q 606 222 614 231 q 586 197 597 214 q 570 170 575 181 q 576 144 565 160 q 600 131 589 128 q 629 140 611 135 q 649 153 644 146 q 653 175 653 160 q 652 207 653 196 q 633 224 651 218 m 350 178 l 331 183 l 328 164 l 339 156 l 349 163 l 350 178 m 811 143 q 806 158 808 153 q 793 164 803 164 q 774 161 781 164 q 764 147 768 158 q 765 133 760 138 q 779 121 769 128 q 795 106 789 113 q 813 107 801 100 q 819 123 824 115 q 811 143 815 131 m 426 150 l 413 151 l 411 138 l 422 131 l 429 140 l 426 150 m 488 63 l 476 63 l 475 53 l 485 47 l 492 54 l 488 63 m 374 1042 q 322 1068 347 1042 l 167 1238 q 160 1256 160 1244 q 182 1278 160 1278 l 281 1278 q 308 1276 294 1278 q 336 1268 322 1275 l 464 1210 l 592 1268 q 620 1276 607 1275 q 647 1278 633 1278 l 746 1278 q 768 1256 768 1278 q 761 1238 768 1244 l 606 1068 q 554 1042 581 1042 l 374 1042 m 282 1226 l 269 1239 l 254 1224 l 264 1204 l 285 1210 l 282 1226 m 596 1231 q 576 1223 581 1232 q 565 1200 572 1214 q 553 1176 558 1185 q 560 1156 547 1167 q 581 1147 572 1143 q 606 1158 590 1150 q 628 1172 621 1167 q 633 1194 636 1178 q 622 1221 629 1214 q 596 1231 615 1228 m 378 1207 q 353 1208 364 1217 q 346 1183 340 1200 q 365 1168 350 1168 q 386 1183 382 1168 q 378 1207 390 1197 m 481 1185 q 467 1183 472 1185 q 460 1172 463 1181 q 456 1156 456 1163 q 464 1143 456 1150 q 476 1142 472 1138 q 489 1153 481 1147 q 497 1171 501 1161 q 481 1185 493 1185 m 450 1090 q 442 1101 449 1101 q 425 1104 436 1101 q 406 1097 411 1107 q 399 1083 400 1089 q 404 1071 397 1078 q 417 1063 411 1063 q 431 1068 422 1064 q 446 1077 440 1074 q 450 1090 451 1081 z "},"Ê":{"ha":926,"x_min":76,"x_max":875,"o":"m 114 0 q 88 11 99 0 q 76 38 76 22 l 76 935 q 88 961 76 950 q 114 972 99 972 l 826 972 q 853 961 842 972 q 864 935 864 950 l 864 739 q 853 713 864 724 q 826 701 842 701 l 410 701 l 410 614 l 796 614 q 822 603 811 614 q 833 576 833 592 l 833 396 q 822 369 833 381 q 796 358 811 358 l 410 358 l 410 271 l 838 271 q 864 260 853 271 q 875 233 875 249 l 875 38 q 864 11 875 22 q 838 0 853 0 l 114 0 m 581 913 q 567 921 575 924 q 549 917 560 918 q 528 917 536 915 q 518 906 519 918 q 521 889 515 893 q 539 878 526 885 q 556 869 550 872 q 572 874 563 865 q 585 891 583 883 q 581 913 586 899 m 188 904 q 170 916 178 914 q 150 913 163 918 q 124 899 133 904 q 115 876 114 894 q 129 857 118 858 q 158 851 140 856 q 183 849 174 849 q 199 863 192 849 q 203 884 207 876 q 188 904 199 892 m 738 899 q 720 906 728 908 q 700 897 713 904 q 678 887 686 890 q 672 868 671 883 q 683 851 675 853 q 707 847 692 850 q 730 843 721 844 q 746 856 739 842 q 751 878 753 869 q 738 899 749 886 m 492 883 q 490 897 492 893 q 479 903 488 901 q 465 905 469 906 q 454 897 460 904 q 456 869 446 883 q 466 863 461 863 q 479 867 471 864 q 492 883 492 871 m 408 885 l 400 892 l 393 885 l 393 874 l 406 872 l 408 885 m 797 871 l 785 876 l 774 872 l 776 858 l 790 858 l 797 871 m 346 857 q 323 856 329 863 q 307 835 317 849 q 293 813 297 821 q 299 792 289 806 q 319 774 310 778 q 344 776 328 771 q 363 791 361 782 q 364 817 364 800 q 363 843 364 833 q 346 857 361 853 m 235 839 l 226 832 l 229 822 l 242 818 l 244 832 l 235 839 m 546 811 q 536 813 540 815 q 526 804 532 810 q 517 798 521 800 q 515 789 513 796 q 521 776 518 781 q 533 772 524 772 q 553 788 547 772 q 546 811 558 801 m 713 779 q 703 778 706 782 q 696 768 701 774 q 690 759 692 763 q 692 750 688 756 q 710 746 697 743 q 722 750 717 749 q 726 758 726 751 q 713 779 728 774 m 204 729 q 190 741 194 736 q 175 739 185 746 q 161 725 164 732 q 163 706 158 718 q 172 691 165 693 q 190 689 178 689 q 211 690 204 689 q 224 703 218 690 q 221 718 228 714 q 204 729 214 722 m 289 718 l 276 711 l 275 703 l 283 693 l 290 704 l 289 718 m 189 629 q 167 628 174 633 q 150 611 160 624 q 141 591 142 599 q 150 572 140 583 q 166 555 158 560 q 189 554 174 550 q 203 568 203 560 q 204 592 204 576 q 203 615 204 607 q 189 629 203 624 m 410 536 q 381 544 392 546 q 356 531 371 543 q 336 505 340 515 q 340 475 332 494 q 359 442 350 453 q 393 433 368 431 q 424 448 418 436 q 436 485 431 460 q 434 515 440 506 q 410 536 428 525 m 536 532 q 514 536 528 542 q 503 530 506 533 q 500 518 500 526 q 517 499 501 503 q 526 501 524 497 q 533 511 529 504 q 539 522 538 518 q 536 532 540 526 m 232 492 q 220 499 225 497 q 208 494 215 500 q 196 484 199 489 q 196 468 193 479 q 204 455 199 458 q 221 451 210 451 q 235 456 231 451 q 242 469 239 460 q 242 482 244 478 q 232 492 240 486 m 583 486 l 571 494 l 558 489 l 563 474 l 576 474 l 583 486 m 140 486 l 122 483 l 125 464 l 142 461 l 154 474 l 140 486 m 524 446 q 512 456 515 451 q 500 456 508 461 q 489 426 483 444 q 497 417 490 417 q 513 417 503 417 q 527 417 522 417 q 535 425 532 417 q 534 437 538 433 q 524 446 531 440 m 238 422 l 231 418 l 228 407 l 240 404 l 246 414 l 238 422 m 282 369 q 267 385 272 378 q 251 385 263 392 q 244 372 240 379 q 250 351 247 364 q 255 336 253 342 q 267 329 257 331 q 285 331 279 328 q 294 344 290 333 q 294 358 299 354 q 282 369 289 363 m 176 369 q 159 371 165 371 q 149 360 153 371 q 154 328 140 342 q 171 317 164 319 q 189 322 178 315 q 197 335 199 328 q 193 353 194 342 q 176 369 190 368 m 178 265 q 178 280 178 274 q 168 288 178 286 q 158 285 160 290 q 151 271 156 279 q 151 256 146 263 q 160 247 157 250 q 169 247 163 244 q 178 265 179 251 m 267 206 q 263 226 267 219 q 247 236 260 232 q 219 243 229 242 q 200 229 210 244 q 198 208 190 215 q 215 188 206 200 q 231 171 225 176 q 250 171 236 165 q 265 183 264 175 q 267 206 267 190 m 633 224 q 606 222 614 231 q 586 197 597 214 q 570 170 575 181 q 576 144 565 160 q 600 131 589 128 q 629 140 611 135 q 649 153 644 146 q 653 175 653 160 q 652 207 653 196 q 633 224 651 218 m 350 178 l 331 183 l 328 164 l 339 156 l 349 163 l 350 178 m 811 143 q 806 158 808 153 q 793 164 803 164 q 774 161 781 164 q 764 147 768 158 q 765 133 760 138 q 779 121 769 128 q 795 106 789 113 q 813 107 801 100 q 819 123 824 115 q 811 143 815 131 m 426 150 l 413 151 l 411 138 l 422 131 l 429 140 l 426 150 m 488 63 l 476 63 l 475 53 l 485 47 l 492 54 l 488 63 m 182 1042 q 160 1064 160 1042 q 167 1082 160 1075 l 322 1251 q 374 1278 347 1278 l 554 1278 q 606 1251 581 1278 l 761 1082 q 768 1064 768 1075 q 746 1042 768 1042 l 647 1042 q 620 1043 633 1042 q 592 1051 607 1044 l 464 1110 l 336 1051 q 308 1043 322 1044 q 281 1042 294 1042 l 182 1042 m 440 1190 q 426 1222 439 1217 q 388 1236 413 1228 q 354 1238 365 1242 q 331 1217 343 1235 q 319 1185 318 1197 q 333 1156 319 1174 q 358 1136 347 1139 q 390 1140 369 1133 q 428 1157 415 1150 q 440 1190 442 1164 m 560 1208 q 544 1216 551 1218 q 526 1210 538 1214 q 510 1201 515 1206 q 506 1186 504 1197 q 513 1173 507 1175 q 531 1168 519 1171 q 549 1163 542 1165 q 563 1171 556 1161 q 569 1190 569 1182 q 560 1208 568 1197 m 644 1125 q 619 1126 633 1135 q 608 1104 606 1119 q 615 1097 610 1097 q 628 1096 619 1097 q 642 1092 636 1094 q 650 1099 647 1090 q 644 1125 657 1113 m 713 1104 q 701 1110 706 1107 q 692 1107 697 1114 q 692 1083 683 1097 q 714 1075 700 1071 q 724 1081 722 1076 q 726 1093 726 1085 q 722 1101 726 1100 q 713 1104 718 1103 z "},"Ë":{"ha":926,"x_min":76,"x_max":875,"o":"m 114 0 q 88 11 99 0 q 76 38 76 22 l 76 935 q 88 961 76 950 q 114 972 99 972 l 826 972 q 853 961 842 972 q 864 935 864 950 l 864 739 q 853 713 864 724 q 826 701 842 701 l 410 701 l 410 614 l 796 614 q 822 603 811 614 q 833 576 833 592 l 833 396 q 822 369 833 381 q 796 358 811 358 l 410 358 l 410 271 l 838 271 q 864 260 853 271 q 875 233 875 249 l 875 38 q 864 11 875 22 q 838 0 853 0 l 114 0 m 581 913 q 567 921 575 924 q 549 917 560 918 q 528 917 536 915 q 518 906 519 918 q 521 889 515 893 q 539 878 526 885 q 556 869 550 872 q 572 874 563 865 q 585 891 583 883 q 581 913 586 899 m 188 904 q 170 916 178 914 q 150 913 163 918 q 124 899 133 904 q 115 876 114 894 q 129 857 118 858 q 158 851 140 856 q 183 849 174 849 q 199 863 192 849 q 203 884 207 876 q 188 904 199 892 m 738 899 q 720 906 728 908 q 700 897 713 904 q 678 887 686 890 q 672 868 671 883 q 683 851 675 853 q 707 847 692 850 q 730 843 721 844 q 746 856 739 842 q 751 878 753 869 q 738 899 749 886 m 492 883 q 490 897 492 893 q 479 903 488 901 q 465 905 469 906 q 454 897 460 904 q 456 869 446 883 q 466 863 461 863 q 479 867 471 864 q 492 883 492 871 m 408 885 l 400 892 l 393 885 l 393 874 l 406 872 l 408 885 m 797 871 l 785 876 l 774 872 l 776 858 l 790 858 l 797 871 m 346 857 q 323 856 329 863 q 307 835 317 849 q 293 813 297 821 q 299 792 289 806 q 319 774 310 778 q 344 776 328 771 q 363 791 361 782 q 364 817 364 800 q 363 843 364 833 q 346 857 361 853 m 235 839 l 226 832 l 229 822 l 242 818 l 244 832 l 235 839 m 546 811 q 536 813 540 815 q 526 804 532 810 q 517 798 521 800 q 515 789 513 796 q 521 776 518 781 q 533 772 524 772 q 553 788 547 772 q 546 811 558 801 m 713 779 q 703 778 706 782 q 696 768 701 774 q 690 759 692 763 q 692 750 688 756 q 710 746 697 743 q 722 750 717 749 q 726 758 726 751 q 713 779 728 774 m 204 729 q 190 741 194 736 q 175 739 185 746 q 161 725 164 732 q 163 706 158 718 q 172 691 165 693 q 190 689 178 689 q 211 690 204 689 q 224 703 218 690 q 221 718 228 714 q 204 729 214 722 m 289 718 l 276 711 l 275 703 l 283 693 l 290 704 l 289 718 m 189 629 q 167 628 174 633 q 150 611 160 624 q 141 591 142 599 q 150 572 140 583 q 166 555 158 560 q 189 554 174 550 q 203 568 203 560 q 204 592 204 576 q 203 615 204 607 q 189 629 203 624 m 410 536 q 381 544 392 546 q 356 531 371 543 q 336 505 340 515 q 340 475 332 494 q 359 442 350 453 q 393 433 368 431 q 424 448 418 436 q 436 485 431 460 q 434 515 440 506 q 410 536 428 525 m 536 532 q 514 536 528 542 q 503 530 506 533 q 500 518 500 526 q 517 499 501 503 q 526 501 524 497 q 533 511 529 504 q 539 522 538 518 q 536 532 540 526 m 232 492 q 220 499 225 497 q 208 494 215 500 q 196 484 199 489 q 196 468 193 479 q 204 455 199 458 q 221 451 210 451 q 235 456 231 451 q 242 469 239 460 q 242 482 244 478 q 232 492 240 486 m 583 486 l 571 494 l 558 489 l 563 474 l 576 474 l 583 486 m 140 486 l 122 483 l 125 464 l 142 461 l 154 474 l 140 486 m 524 446 q 512 456 515 451 q 500 456 508 461 q 489 426 483 444 q 497 417 490 417 q 513 417 503 417 q 527 417 522 417 q 535 425 532 417 q 534 437 538 433 q 524 446 531 440 m 238 422 l 231 418 l 228 407 l 240 404 l 246 414 l 238 422 m 282 369 q 267 385 272 378 q 251 385 263 392 q 244 372 240 379 q 250 351 247 364 q 255 336 253 342 q 267 329 257 331 q 285 331 279 328 q 294 344 290 333 q 294 358 299 354 q 282 369 289 363 m 176 369 q 159 371 165 371 q 149 360 153 371 q 154 328 140 342 q 171 317 164 319 q 189 322 178 315 q 197 335 199 328 q 193 353 194 342 q 176 369 190 368 m 178 265 q 178 280 178 274 q 168 288 178 286 q 158 285 160 290 q 151 271 156 279 q 151 256 146 263 q 160 247 157 250 q 169 247 163 244 q 178 265 179 251 m 267 206 q 263 226 267 219 q 247 236 260 232 q 219 243 229 242 q 200 229 210 244 q 198 208 190 215 q 215 188 206 200 q 231 171 225 176 q 250 171 236 165 q 265 183 264 175 q 267 206 267 190 m 633 224 q 606 222 614 231 q 586 197 597 214 q 570 170 575 181 q 576 144 565 160 q 600 131 589 128 q 629 140 611 135 q 649 153 644 146 q 653 175 653 160 q 652 207 653 196 q 633 224 651 218 m 350 178 l 331 183 l 328 164 l 339 156 l 349 163 l 350 178 m 811 143 q 806 158 808 153 q 793 164 803 164 q 774 161 781 164 q 764 147 768 158 q 765 133 760 138 q 779 121 769 128 q 795 106 789 113 q 813 107 801 100 q 819 123 824 115 q 811 143 815 131 m 426 150 l 413 151 l 411 138 l 422 131 l 429 140 l 426 150 m 488 63 l 476 63 l 475 53 l 485 47 l 492 54 l 488 63 m 564 1042 q 541 1051 550 1042 q 532 1074 532 1060 l 532 1246 q 541 1269 532 1260 q 564 1278 550 1278 l 736 1278 q 759 1269 750 1278 q 768 1246 768 1260 l 768 1074 q 759 1051 768 1060 q 736 1042 750 1042 l 564 1042 m 190 1042 q 167 1051 176 1042 q 158 1074 158 1060 l 158 1246 q 167 1269 158 1260 q 190 1278 176 1278 l 363 1278 q 385 1269 376 1278 q 394 1246 394 1260 l 394 1074 q 385 1051 394 1060 q 363 1042 376 1042 l 190 1042 m 733 1253 l 717 1261 l 713 1242 l 725 1228 l 744 1238 l 733 1253 m 258 1233 q 222 1233 233 1239 q 196 1207 210 1228 q 191 1176 185 1186 q 213 1149 197 1165 q 235 1135 225 1135 q 261 1142 244 1135 q 280 1157 276 1149 q 282 1182 283 1165 q 279 1216 279 1203 q 258 1233 279 1229 m 576 1104 l 563 1114 l 549 1100 l 563 1088 l 582 1086 l 576 1104 m 657 1092 q 638 1097 649 1101 q 625 1079 625 1092 q 640 1064 625 1068 q 657 1072 650 1061 q 657 1092 664 1083 z "},"Ė":{"ha":926,"x_min":76,"x_max":875,"o":"m 114 0 q 88 11 99 0 q 76 38 76 22 l 76 935 q 88 961 76 950 q 114 972 99 972 l 826 972 q 853 961 842 972 q 864 935 864 950 l 864 739 q 853 713 864 724 q 826 701 842 701 l 410 701 l 410 614 l 796 614 q 822 603 811 614 q 833 576 833 592 l 833 396 q 822 369 833 381 q 796 358 811 358 l 410 358 l 410 271 l 838 271 q 864 260 853 271 q 875 233 875 249 l 875 38 q 864 11 875 22 q 838 0 853 0 l 114 0 m 581 913 q 567 921 575 924 q 549 917 560 918 q 528 917 536 915 q 518 906 519 918 q 521 889 515 893 q 539 878 526 885 q 556 869 550 872 q 572 874 563 865 q 585 891 583 883 q 581 913 586 899 m 188 904 q 170 916 178 914 q 150 913 163 918 q 124 899 133 904 q 115 876 114 894 q 129 857 118 858 q 158 851 140 856 q 183 849 174 849 q 199 863 192 849 q 203 884 207 876 q 188 904 199 892 m 738 899 q 720 906 728 908 q 700 897 713 904 q 678 887 686 890 q 672 868 671 883 q 683 851 675 853 q 707 847 692 850 q 730 843 721 844 q 746 856 739 842 q 751 878 753 869 q 738 899 749 886 m 492 883 q 490 897 492 893 q 479 903 488 901 q 465 905 469 906 q 454 897 460 904 q 456 869 446 883 q 466 863 461 863 q 479 867 471 864 q 492 883 492 871 m 408 885 l 400 892 l 393 885 l 393 874 l 406 872 l 408 885 m 797 871 l 785 876 l 774 872 l 776 858 l 790 858 l 797 871 m 346 857 q 323 856 329 863 q 307 835 317 849 q 293 813 297 821 q 299 792 289 806 q 319 774 310 778 q 344 776 328 771 q 363 791 361 782 q 364 817 364 800 q 363 843 364 833 q 346 857 361 853 m 235 839 l 226 832 l 229 822 l 242 818 l 244 832 l 235 839 m 546 811 q 536 813 540 815 q 526 804 532 810 q 517 798 521 800 q 515 789 513 796 q 521 776 518 781 q 533 772 524 772 q 553 788 547 772 q 546 811 558 801 m 713 779 q 703 778 706 782 q 696 768 701 774 q 690 759 692 763 q 692 750 688 756 q 710 746 697 743 q 722 750 717 749 q 726 758 726 751 q 713 779 728 774 m 204 729 q 190 741 194 736 q 175 739 185 746 q 161 725 164 732 q 163 706 158 718 q 172 691 165 693 q 190 689 178 689 q 211 690 204 689 q 224 703 218 690 q 221 718 228 714 q 204 729 214 722 m 289 718 l 276 711 l 275 703 l 283 693 l 290 704 l 289 718 m 189 629 q 167 628 174 633 q 150 611 160 624 q 141 591 142 599 q 150 572 140 583 q 166 555 158 560 q 189 554 174 550 q 203 568 203 560 q 204 592 204 576 q 203 615 204 607 q 189 629 203 624 m 410 536 q 381 544 392 546 q 356 531 371 543 q 336 505 340 515 q 340 475 332 494 q 359 442 350 453 q 393 433 368 431 q 424 448 418 436 q 436 485 431 460 q 434 515 440 506 q 410 536 428 525 m 536 532 q 514 536 528 542 q 503 530 506 533 q 500 518 500 526 q 517 499 501 503 q 526 501 524 497 q 533 511 529 504 q 539 522 538 518 q 536 532 540 526 m 232 492 q 220 499 225 497 q 208 494 215 500 q 196 484 199 489 q 196 468 193 479 q 204 455 199 458 q 221 451 210 451 q 235 456 231 451 q 242 469 239 460 q 242 482 244 478 q 232 492 240 486 m 583 486 l 571 494 l 558 489 l 563 474 l 576 474 l 583 486 m 140 486 l 122 483 l 125 464 l 142 461 l 154 474 l 140 486 m 524 446 q 512 456 515 451 q 500 456 508 461 q 489 426 483 444 q 497 417 490 417 q 513 417 503 417 q 527 417 522 417 q 535 425 532 417 q 534 437 538 433 q 524 446 531 440 m 238 422 l 231 418 l 228 407 l 240 404 l 246 414 l 238 422 m 282 369 q 267 385 272 378 q 251 385 263 392 q 244 372 240 379 q 250 351 247 364 q 255 336 253 342 q 267 329 257 331 q 285 331 279 328 q 294 344 290 333 q 294 358 299 354 q 282 369 289 363 m 176 369 q 159 371 165 371 q 149 360 153 371 q 154 328 140 342 q 171 317 164 319 q 189 322 178 315 q 197 335 199 328 q 193 353 194 342 q 176 369 190 368 m 178 265 q 178 280 178 274 q 168 288 178 286 q 158 285 160 290 q 151 271 156 279 q 151 256 146 263 q 160 247 157 250 q 169 247 163 244 q 178 265 179 251 m 267 206 q 263 226 267 219 q 247 236 260 232 q 219 243 229 242 q 200 229 210 244 q 198 208 190 215 q 215 188 206 200 q 231 171 225 176 q 250 171 236 165 q 265 183 264 175 q 267 206 267 190 m 633 224 q 606 222 614 231 q 586 197 597 214 q 570 170 575 181 q 576 144 565 160 q 600 131 589 128 q 629 140 611 135 q 649 153 644 146 q 653 175 653 160 q 652 207 653 196 q 633 224 651 218 m 350 178 l 331 183 l 328 164 l 339 156 l 349 163 l 350 178 m 811 143 q 806 158 808 153 q 793 164 803 164 q 774 161 781 164 q 764 147 768 158 q 765 133 760 138 q 779 121 769 128 q 795 106 789 113 q 813 107 801 100 q 819 123 824 115 q 811 143 815 131 m 426 150 l 413 151 l 411 138 l 422 131 l 429 140 l 426 150 m 488 63 l 476 63 l 475 53 l 485 47 l 492 54 l 488 63 m 369 1042 q 347 1051 356 1042 q 338 1074 338 1060 l 338 1263 q 347 1285 338 1276 q 369 1294 356 1294 l 558 1294 q 581 1285 572 1294 q 590 1263 590 1276 l 590 1074 q 581 1051 590 1060 q 558 1042 572 1042 l 369 1042 m 506 1192 l 497 1200 l 485 1196 l 490 1185 l 503 1178 l 506 1192 m 458 1182 l 438 1185 l 435 1164 l 451 1153 l 465 1165 l 458 1182 m 546 1163 q 521 1160 531 1171 q 515 1149 514 1154 q 519 1136 515 1144 q 527 1122 524 1126 q 540 1118 531 1117 q 550 1126 550 1119 q 551 1142 550 1132 q 553 1155 553 1150 q 546 1163 553 1160 z "},"È":{"ha":926,"x_min":76,"x_max":875,"o":"m 114 0 q 88 11 99 0 q 76 38 76 22 l 76 935 q 88 961 76 950 q 114 972 99 972 l 826 972 q 853 961 842 972 q 864 935 864 950 l 864 739 q 853 713 864 724 q 826 701 842 701 l 410 701 l 410 614 l 796 614 q 822 603 811 614 q 833 576 833 592 l 833 396 q 822 369 833 381 q 796 358 811 358 l 410 358 l 410 271 l 838 271 q 864 260 853 271 q 875 233 875 249 l 875 38 q 864 11 875 22 q 838 0 853 0 l 114 0 m 581 913 q 567 921 575 924 q 549 917 560 918 q 528 917 536 915 q 518 906 519 918 q 521 889 515 893 q 539 878 526 885 q 556 869 550 872 q 572 874 563 865 q 585 891 583 883 q 581 913 586 899 m 188 904 q 170 916 178 914 q 150 913 163 918 q 124 899 133 904 q 115 876 114 894 q 129 857 118 858 q 158 851 140 856 q 183 849 174 849 q 199 863 192 849 q 203 884 207 876 q 188 904 199 892 m 738 899 q 720 906 728 908 q 700 897 713 904 q 678 887 686 890 q 672 868 671 883 q 683 851 675 853 q 707 847 692 850 q 730 843 721 844 q 746 856 739 842 q 751 878 753 869 q 738 899 749 886 m 492 883 q 490 897 492 893 q 479 903 488 901 q 465 905 469 906 q 454 897 460 904 q 456 869 446 883 q 466 863 461 863 q 479 867 471 864 q 492 883 492 871 m 408 885 l 400 892 l 393 885 l 393 874 l 406 872 l 408 885 m 797 871 l 785 876 l 774 872 l 776 858 l 790 858 l 797 871 m 346 857 q 323 856 329 863 q 307 835 317 849 q 293 813 297 821 q 299 792 289 806 q 319 774 310 778 q 344 776 328 771 q 363 791 361 782 q 364 817 364 800 q 363 843 364 833 q 346 857 361 853 m 235 839 l 226 832 l 229 822 l 242 818 l 244 832 l 235 839 m 546 811 q 536 813 540 815 q 526 804 532 810 q 517 798 521 800 q 515 789 513 796 q 521 776 518 781 q 533 772 524 772 q 553 788 547 772 q 546 811 558 801 m 713 779 q 703 778 706 782 q 696 768 701 774 q 690 759 692 763 q 692 750 688 756 q 710 746 697 743 q 722 750 717 749 q 726 758 726 751 q 713 779 728 774 m 204 729 q 190 741 194 736 q 175 739 185 746 q 161 725 164 732 q 163 706 158 718 q 172 691 165 693 q 190 689 178 689 q 211 690 204 689 q 224 703 218 690 q 221 718 228 714 q 204 729 214 722 m 289 718 l 276 711 l 275 703 l 283 693 l 290 704 l 289 718 m 189 629 q 167 628 174 633 q 150 611 160 624 q 141 591 142 599 q 150 572 140 583 q 166 555 158 560 q 189 554 174 550 q 203 568 203 560 q 204 592 204 576 q 203 615 204 607 q 189 629 203 624 m 410 536 q 381 544 392 546 q 356 531 371 543 q 336 505 340 515 q 340 475 332 494 q 359 442 350 453 q 393 433 368 431 q 424 448 418 436 q 436 485 431 460 q 434 515 440 506 q 410 536 428 525 m 536 532 q 514 536 528 542 q 503 530 506 533 q 500 518 500 526 q 517 499 501 503 q 526 501 524 497 q 533 511 529 504 q 539 522 538 518 q 536 532 540 526 m 232 492 q 220 499 225 497 q 208 494 215 500 q 196 484 199 489 q 196 468 193 479 q 204 455 199 458 q 221 451 210 451 q 235 456 231 451 q 242 469 239 460 q 242 482 244 478 q 232 492 240 486 m 583 486 l 571 494 l 558 489 l 563 474 l 576 474 l 583 486 m 140 486 l 122 483 l 125 464 l 142 461 l 154 474 l 140 486 m 524 446 q 512 456 515 451 q 500 456 508 461 q 489 426 483 444 q 497 417 490 417 q 513 417 503 417 q 527 417 522 417 q 535 425 532 417 q 534 437 538 433 q 524 446 531 440 m 238 422 l 231 418 l 228 407 l 240 404 l 246 414 l 238 422 m 282 369 q 267 385 272 378 q 251 385 263 392 q 244 372 240 379 q 250 351 247 364 q 255 336 253 342 q 267 329 257 331 q 285 331 279 328 q 294 344 290 333 q 294 358 299 354 q 282 369 289 363 m 176 369 q 159 371 165 371 q 149 360 153 371 q 154 328 140 342 q 171 317 164 319 q 189 322 178 315 q 197 335 199 328 q 193 353 194 342 q 176 369 190 368 m 178 265 q 178 280 178 274 q 168 288 178 286 q 158 285 160 290 q 151 271 156 279 q 151 256 146 263 q 160 247 157 250 q 169 247 163 244 q 178 265 179 251 m 267 206 q 263 226 267 219 q 247 236 260 232 q 219 243 229 242 q 200 229 210 244 q 198 208 190 215 q 215 188 206 200 q 231 171 225 176 q 250 171 236 165 q 265 183 264 175 q 267 206 267 190 m 633 224 q 606 222 614 231 q 586 197 597 214 q 570 170 575 181 q 576 144 565 160 q 600 131 589 128 q 629 140 611 135 q 649 153 644 146 q 653 175 653 160 q 652 207 653 196 q 633 224 651 218 m 350 178 l 331 183 l 328 164 l 339 156 l 349 163 l 350 178 m 811 143 q 806 158 808 153 q 793 164 803 164 q 774 161 781 164 q 764 147 768 158 q 765 133 760 138 q 779 121 769 128 q 795 106 789 113 q 813 107 801 100 q 819 123 824 115 q 811 143 815 131 m 426 150 l 413 151 l 411 138 l 422 131 l 429 140 l 426 150 m 488 63 l 476 63 l 475 53 l 485 47 l 492 54 l 488 63 m 388 1042 q 353 1049 365 1042 q 329 1065 340 1056 l 125 1233 q 118 1250 118 1240 q 144 1278 118 1278 l 417 1278 q 442 1274 432 1278 q 468 1251 453 1269 l 607 1082 q 614 1064 614 1075 q 592 1042 614 1042 l 388 1042 m 404 1256 q 384 1265 392 1264 q 364 1257 376 1265 q 353 1241 353 1249 q 357 1221 353 1233 q 367 1208 361 1210 q 385 1207 374 1207 q 406 1206 397 1207 q 418 1218 414 1206 q 419 1239 422 1232 q 404 1256 415 1246 m 471 1211 q 460 1218 464 1217 q 449 1214 456 1219 q 444 1206 442 1210 q 447 1194 446 1201 q 451 1182 450 1186 q 460 1178 451 1178 q 469 1181 467 1178 q 474 1192 471 1185 q 471 1211 479 1206 z "},"Ē":{"ha":926,"x_min":76,"x_max":875,"o":"m 114 0 q 88 11 99 0 q 76 38 76 22 l 76 935 q 88 961 76 950 q 114 972 99 972 l 826 972 q 853 961 842 972 q 864 935 864 950 l 864 739 q 853 713 864 724 q 826 701 842 701 l 410 701 l 410 614 l 796 614 q 822 603 811 614 q 833 576 833 592 l 833 396 q 822 369 833 381 q 796 358 811 358 l 410 358 l 410 271 l 838 271 q 864 260 853 271 q 875 233 875 249 l 875 38 q 864 11 875 22 q 838 0 853 0 l 114 0 m 581 913 q 567 921 575 924 q 549 917 560 918 q 528 917 536 915 q 518 906 519 918 q 521 889 515 893 q 539 878 526 885 q 556 869 550 872 q 572 874 563 865 q 585 891 583 883 q 581 913 586 899 m 188 904 q 170 916 178 914 q 150 913 163 918 q 124 899 133 904 q 115 876 114 894 q 129 857 118 858 q 158 851 140 856 q 183 849 174 849 q 199 863 192 849 q 203 884 207 876 q 188 904 199 892 m 738 899 q 720 906 728 908 q 700 897 713 904 q 678 887 686 890 q 672 868 671 883 q 683 851 675 853 q 707 847 692 850 q 730 843 721 844 q 746 856 739 842 q 751 878 753 869 q 738 899 749 886 m 492 883 q 490 897 492 893 q 479 903 488 901 q 465 905 469 906 q 454 897 460 904 q 456 869 446 883 q 466 863 461 863 q 479 867 471 864 q 492 883 492 871 m 408 885 l 400 892 l 393 885 l 393 874 l 406 872 l 408 885 m 797 871 l 785 876 l 774 872 l 776 858 l 790 858 l 797 871 m 346 857 q 323 856 329 863 q 307 835 317 849 q 293 813 297 821 q 299 792 289 806 q 319 774 310 778 q 344 776 328 771 q 363 791 361 782 q 364 817 364 800 q 363 843 364 833 q 346 857 361 853 m 235 839 l 226 832 l 229 822 l 242 818 l 244 832 l 235 839 m 546 811 q 536 813 540 815 q 526 804 532 810 q 517 798 521 800 q 515 789 513 796 q 521 776 518 781 q 533 772 524 772 q 553 788 547 772 q 546 811 558 801 m 713 779 q 703 778 706 782 q 696 768 701 774 q 690 759 692 763 q 692 750 688 756 q 710 746 697 743 q 722 750 717 749 q 726 758 726 751 q 713 779 728 774 m 204 729 q 190 741 194 736 q 175 739 185 746 q 161 725 164 732 q 163 706 158 718 q 172 691 165 693 q 190 689 178 689 q 211 690 204 689 q 224 703 218 690 q 221 718 228 714 q 204 729 214 722 m 289 718 l 276 711 l 275 703 l 283 693 l 290 704 l 289 718 m 189 629 q 167 628 174 633 q 150 611 160 624 q 141 591 142 599 q 150 572 140 583 q 166 555 158 560 q 189 554 174 550 q 203 568 203 560 q 204 592 204 576 q 203 615 204 607 q 189 629 203 624 m 410 536 q 381 544 392 546 q 356 531 371 543 q 336 505 340 515 q 340 475 332 494 q 359 442 350 453 q 393 433 368 431 q 424 448 418 436 q 436 485 431 460 q 434 515 440 506 q 410 536 428 525 m 536 532 q 514 536 528 542 q 503 530 506 533 q 500 518 500 526 q 517 499 501 503 q 526 501 524 497 q 533 511 529 504 q 539 522 538 518 q 536 532 540 526 m 232 492 q 220 499 225 497 q 208 494 215 500 q 196 484 199 489 q 196 468 193 479 q 204 455 199 458 q 221 451 210 451 q 235 456 231 451 q 242 469 239 460 q 242 482 244 478 q 232 492 240 486 m 583 486 l 571 494 l 558 489 l 563 474 l 576 474 l 583 486 m 140 486 l 122 483 l 125 464 l 142 461 l 154 474 l 140 486 m 524 446 q 512 456 515 451 q 500 456 508 461 q 489 426 483 444 q 497 417 490 417 q 513 417 503 417 q 527 417 522 417 q 535 425 532 417 q 534 437 538 433 q 524 446 531 440 m 238 422 l 231 418 l 228 407 l 240 404 l 246 414 l 238 422 m 282 369 q 267 385 272 378 q 251 385 263 392 q 244 372 240 379 q 250 351 247 364 q 255 336 253 342 q 267 329 257 331 q 285 331 279 328 q 294 344 290 333 q 294 358 299 354 q 282 369 289 363 m 176 369 q 159 371 165 371 q 149 360 153 371 q 154 328 140 342 q 171 317 164 319 q 189 322 178 315 q 197 335 199 328 q 193 353 194 342 q 176 369 190 368 m 178 265 q 178 280 178 274 q 168 288 178 286 q 158 285 160 290 q 151 271 156 279 q 151 256 146 263 q 160 247 157 250 q 169 247 163 244 q 178 265 179 251 m 267 206 q 263 226 267 219 q 247 236 260 232 q 219 243 229 242 q 200 229 210 244 q 198 208 190 215 q 215 188 206 200 q 231 171 225 176 q 250 171 236 165 q 265 183 264 175 q 267 206 267 190 m 633 224 q 606 222 614 231 q 586 197 597 214 q 570 170 575 181 q 576 144 565 160 q 600 131 589 128 q 629 140 611 135 q 649 153 644 146 q 653 175 653 160 q 652 207 653 196 q 633 224 651 218 m 350 178 l 331 183 l 328 164 l 339 156 l 349 163 l 350 178 m 811 143 q 806 158 808 153 q 793 164 803 164 q 774 161 781 164 q 764 147 768 158 q 765 133 760 138 q 779 121 769 128 q 795 106 789 113 q 813 107 801 100 q 819 123 824 115 q 811 143 815 131 m 426 150 l 413 151 l 411 138 l 422 131 l 429 140 l 426 150 m 488 63 l 476 63 l 475 53 l 485 47 l 492 54 l 488 63 m 201 1042 q 178 1051 188 1042 q 169 1074 169 1060 l 169 1218 q 178 1241 169 1232 q 201 1250 188 1250 l 725 1250 q 748 1241 739 1250 q 757 1218 757 1232 l 757 1074 q 748 1051 757 1060 q 725 1042 739 1042 l 201 1042 m 521 1213 l 511 1228 l 496 1218 l 496 1200 l 515 1196 l 521 1213 m 694 1190 l 679 1193 l 682 1178 l 692 1167 l 700 1181 l 694 1190 m 457 1161 l 444 1154 l 442 1139 l 458 1132 l 463 1147 l 457 1161 m 219 1151 l 204 1150 l 201 1136 l 213 1132 l 224 1138 l 219 1151 m 738 1114 l 721 1107 l 726 1099 l 739 1101 l 738 1114 m 553 1100 q 539 1110 550 1110 q 526 1100 531 1110 q 532 1086 524 1092 q 541 1079 538 1082 q 550 1081 544 1076 q 556 1089 557 1085 q 553 1100 556 1093 z "}}}
